<svg id="Layer_1" data-name="Layer 1" xmlns="http://www.w3.org/2000/svg" viewBox="0 0 84 105"><defs><style>.cls-1{fill:none;stroke:#fff;stroke-miterlimit:10;}.cls-2{fill:#f1c25a;opacity:0.11;}.cls-3{fill:#fff;}</style></defs><title>Artboard 9</title><rect class="cls-1" x="3.2" y="3" width="77.12" height="99"/><path class="cls-2" d="M53.59,35.83l4.35.45c-.09,0-1-1-1.07-1.05-.26-.23-.79-.84-1.19-.9l-4.14-.61c.06,0,.92,1.09,1,1.12C52.69,35,53.24,35.8,53.59,35.83Z"/><path class="cls-2" d="M53.87,36.36l4.37.44c-.08,0-1.06-1.14-1.1-1.18-.25-.24-.83-1-1.23-1L51.77,34c.06,0,.95,1.23,1,1.26C52.92,35.42,53.52,36.33,53.87,36.36Z"/><path class="cls-2" d="M54.12,36.19l4.41.37c.25,0-.05-.34-.17-.35L54,35.84C53.7,35.81,54,36.18,54.12,36.19Z"/><path class="cls-2" d="M54,37.54l4.41.43c.15,0-.31-.76-.5-.78l-4.35-.49C53.43,36.69,53.85,37.52,54,37.54Z"/><path class="cls-2" d="M53.71,36.49l4.36.43c-.09,0-1.15-1.38-1.19-1.42-.22-.24-.91-1.23-1.32-1.29l-4.09-.62c.07,0,1,1.48,1.05,1.51C52.66,35.29,53.35,36.46,53.71,36.49Z"/><path class="cls-2" d="M53.67,36l4.36.43a14.34,14.34,0,0,1-1.16-1.18c-.27-.25-.88-1-1.3-1.05l-4.13-.62c.08,0,1,1.23,1.05,1.27C52.68,35.09,53.31,36,53.67,36Z"/><path class="cls-2" d="M53.84,37l4.34.42c-.37,0-.84-1.46-1.41-1.54l-4.09-.55C53,35.33,53.3,36.91,53.84,37Z"/><path class="cls-2" d="M54.29,36.45l4.43.43c.14,0-.31-.53-.48-.54l-4.42-.46C53.68,35.87,54.11,36.44,54.29,36.45Z"/><path class="cls-2" d="M53.9,37l4.36.43s-1-1.21-1-1.23c-.19-.22-.75-1.05-1.11-1.1l-4.06-.62s.82,1.31.82,1.32S53.6,36.94,53.9,37Z"/><path class="cls-2" d="M53.65,36.24l4.35.43a14.24,14.24,0,0,1-1.15-1.3c-.24-.24-.88-1.1-1.3-1.17l-4.1-.62c.07,0,1,1.36,1,1.39C52.64,35.17,53.29,36.2,53.65,36.24Z"/><path class="cls-2" d="M54,36.75l4.36.43s-.93-1-1-1.08c-.22-.21-.72-.89-1.09-.94l-4.09-.61S53,35.7,53,35.71C53.19,35.89,53.69,36.72,54,36.75Z"/><path class="cls-2" d="M54.2,37.69l4.43.43c.16,0-.29-.76-.47-.78l-4.4-.46C53.59,36.86,54,37.68,54.2,37.69Z"/><path class="cls-2" d="M60.56,22.42l3,0c-.1,0-1.12-.9-1.19-.94-.31-.22-.87-.75-1.29-.79l-2.78-.24a11.54,11.54,0,0,1,1.07,1C59.58,21.71,60.2,22.41,60.56,22.42Z"/><path class="cls-2" d="M60.85,22.93l3,0a13.85,13.85,0,0,1-1.22-1.08c-.28-.22-.91-.89-1.33-.93l-2.77-.24a13.36,13.36,0,0,1,1.09,1.17C59.82,22.07,60.5,22.92,60.85,22.93Z"/><path class="cls-2" d="M61.15,22.71l3,0c.26,0-.09-.34-.21-.34l-3,0C60.69,22.38,61,22.71,61.15,22.71Z"/><path class="cls-2" d="M61.06,24.07l3.06.05c.16,0-.34-.71-.52-.72l-3-.09C60.41,23.31,60.89,24.07,61.06,24.07Z"/><path class="cls-2" d="M60.68,23.05l3,0c-.09,0-1.27-1.27-1.31-1.3-.26-.24-1-1.12-1.44-1.17l-2.72-.26c.09,0,1.13,1.38,1.17,1.41S60.33,23.05,60.68,23.05Z"/><path class="cls-2" d="M60.65,22.6l3,0a14.75,14.75,0,0,1-1.29-1.08c-.31-.23-1-.89-1.4-.93l-2.76-.25a14.34,14.34,0,0,1,1.16,1.18C59.56,21.76,60.27,22.6,60.65,22.6Z"/><path class="cls-2" d="M60.84,23.5l3,0c-.35,0-1-1.33-1.48-1.37L59.56,22C59.88,22,60.3,23.5,60.84,23.5Z"/><path class="cls-2" d="M61.3,23l3.07,0c.13,0-.39-.5-.57-.5l-3-.08C60.63,22.43,61.12,23,61.3,23Z"/><path class="cls-2" d="M60.89,23.51l3,0s-1-1.1-1.07-1.12c-.23-.22-.82-.95-1.2-1l-2.67-.26s.9,1.22.91,1.23S60.58,23.51,60.89,23.51Z"/><path class="cls-2" d="M60.62,22.81l3,0a14.42,14.42,0,0,1-1.28-1.19c-.28-.23-1-1-1.4-1l-2.74-.26c.09,0,1.11,1.25,1.15,1.29C59.52,21.84,60.26,22.81,60.62,22.81Z"/><path class="cls-2" d="M61,23.3l3,.05c-.06,0-1-1-1-1-.26-.21-.79-.81-1.17-.84l-2.7-.26s.88,1.07.89,1.09S60.68,23.3,61,23.3Z"/><path class="cls-2" d="M61.23,24.23l3.07,0c.18,0-.31-.71-.48-.71l-3.07-.07C60.58,23.48,61.06,24.23,61.23,24.23Z"/><path class="cls-2" d="M55.37,8.85l.15-1.39-.17.37.87-1.41-2,2.49L56.8,6.29c-.16.16.87-.93.53-.7a12.13,12.13,0,0,0-2.88,2.75A5.6,5.6,0,0,0,53.25,12a12.05,12.05,0,0,1,1.14-1.52C54.65,10.08,55.31,9.36,55.37,8.85Z"/><path class="cls-2" d="M55.47,9.32l.87-2.46L54.4,8.76a27,27,0,0,0,3-2.61A.29.29,0,0,0,57.56,6a3.92,3.92,0,0,0-.71.44,11.31,11.31,0,0,0-1.53,1.21l-1.76,2.54a4.66,4.66,0,0,0-.11,1.54c0-.09,1-1.08,1.08-1.13C54.76,10.31,55.43,9.72,55.47,9.32Z"/><path class="cls-2" d="M55.65,8.12l.21-1.4-.46.87,1.11-1.73L56,6.59l1.29-1c.12-.09.83-1,.49-.77a5.67,5.67,0,0,0-2.85,4.42S55.6,8.47,55.65,8.12Z"/><path class="cls-2" d="M55.79,9.41l2-3.07c.2-.12.1-.28-.1-.16a3.88,3.88,0,0,0-2.26,3.34C55.44,9.74,55.77,9.52,55.79,9.41Z"/><path class="cls-2" d="M55.23,9.58l.85-2.47-2,2a33.56,33.56,0,0,0,3.12-2.7.3.3,0,0,0,.13-.18,4.74,4.74,0,0,0-.75.46,11.62,11.62,0,0,0-1.61,1.26l-1.71,2.59a3.84,3.84,0,0,0-.1,1.55,15.74,15.74,0,0,1,1.13-1.18C54.48,10.62,55.19,10,55.23,9.58Z"/><path class="cls-2" d="M55.39,9.08l.84-2.44L54.1,9l3.11-3c-.15.14.46-.5.14-.28a14.59,14.59,0,0,0-3,2.69,5.14,5.14,0,0,0-1.22,3.6,11,11,0,0,1,1.19-1.44C54.61,10.29,55.33,9.57,55.39,9.08Z"/><path class="cls-2" d="M55.48,9.44l1.86-3c.32-.25.27-.39-.11-.14a4.78,4.78,0,0,0-2.64,4S55.44,9.72,55.48,9.44Z"/><path class="cls-2" d="M55.85,8.54,57.27,6c.12-.1,1-1,.62-.79A5.48,5.48,0,0,0,55,9.55S55.8,8.86,55.85,8.54Z"/><path class="cls-2" d="M55.4,9.76l.88-2.52L54.87,8.47l2.47-1.9c.23-.17.15-.23-.08-.12a6,6,0,0,0-1.45.94A4.77,4.77,0,0,0,54,11.19C54,10.82,55.34,10.29,55.4,9.76Z"/><path class="cls-2" d="M55.26,9.35l.85-2.46-2,2.18a28.49,28.49,0,0,0,3.13-2.88A.38.38,0,0,0,57.33,6a2.38,2.38,0,0,0-.54.35,13.67,13.67,0,0,0-1.43,1.19l-2.12,3a4.09,4.09,0,0,0-.1,1.56,12.89,12.89,0,0,1,1.14-1.31C54.52,10.46,55.22,9.8,55.26,9.35Z"/><path class="cls-2" d="M55.54,9.54,56.43,7,55,8.35a15.58,15.58,0,0,0,2.66-2.12l0-.07a3.14,3.14,0,0,0-.78.43,6.13,6.13,0,0,0-1.8,1.79C54,9.88,54.16,9.26,54,11.1c0,0,.58-.48.66-.56S55.5,9.86,55.54,9.54Z"/><path class="cls-2" d="M55.83,9.61,58.1,6.37c.13-.09,0-.2-.16-.13a4.24,4.24,0,0,0-2.42,3.45C55.49,9.89,55.8,9.73,55.83,9.61Z"/><path class="cls-2" d="M43.64,7.18l3.5-4.87a13.63,13.63,0,0,1-1.65.5c-.36.13-1.31.33-1.59.68L40.36,8.13A16.16,16.16,0,0,1,42,7.74C42.34,7.65,43.41,7.5,43.64,7.18Z"/><path class="cls-2" d="M43.86,7.56l3.5-4.87c0,.05-1.56.27-1.6.28-.29.07-1.33.17-1.56.47L40.68,8.05s1.59-.15,1.61-.16C42.52,7.86,43.66,7.83,43.86,7.56Z"/><path class="cls-2" d="M44.3,6.68l3.51-4.91c.06-.08-.69.1-.81.27L43.47,6.91C43.41,7,44.18,6.85,44.3,6.68Z"/><path class="cls-2" d="M44.41,8.12l3.44-4.93C48,3,47.42,3,47.35,3.1L43.92,8C43.81,8.19,44.34,8.22,44.41,8.12Z"/><path class="cls-2" d="M43.59,7.72l3.49-4.85s-1.67.23-1.7.24c-.29.06-1.44.12-1.67.43L40.2,8.1S41.89,8,41.91,8C42.13,8,43.39,8,43.59,7.72Z"/><path class="cls-2" d="M43.7,7.34l3.49-4.86a14.93,14.93,0,0,1-1.75.44c-.34.1-1.42.27-1.69.62L40.21,8.15A15.24,15.24,0,0,1,42,7.84C42.26,7.77,43.47,7.66,43.7,7.34Z"/><path class="cls-2" d="M43.93,7.85l3.43-4.78c0-.06-1.3-.06-1.48.19L42.39,8C42.49,7.81,43.69,8.19,43.93,7.85Z"/><path class="cls-2" d="M44.4,7.09l3.52-4.87a2.19,2.19,0,0,0-1.1.34L43.29,7.29A1.77,1.77,0,0,0,44.4,7.09Z"/><path class="cls-2" d="M43.84,8l3.48-4.84-1.27.09c-.22,0-1.06,0-1.24.26L41.34,8s1.28.06,1.26.07C42.76,8.09,43.69,8.18,43.84,8Z"/><path class="cls-2" d="M43.59,7.54l3.49-4.86c0,.07-1.65.32-1.71.34-.31.08-1.41.2-1.65.52L40.19,8.13c0-.05,1.68-.2,1.71-.2C42.16,7.88,43.38,7.83,43.59,7.54Z"/><path class="cls-2" d="M44,7.77l3.48-4.84-1.29.15c-.24,0-1.06.08-1.25.33L41.46,8l1.28,0C42.93,8,43.83,8,44,7.77Z"/><path class="cls-2" d="M44.57,8.25,48,3.32c.11-.17-.4-.21-.47-.11L44.11,8.14C44,8.31,44.5,8.35,44.57,8.25Z"/><path class="cls-2" d="M28.22,8.62,24.9,7.53a19.17,19.17,0,0,1,.91,1.74c.17.31.65,1.47,1.06,1.64l3,1.23a18.34,18.34,0,0,1-.73-1.8C29,10.12,28.57,8.73,28.22,8.62Z"/><path class="cls-2" d="M28.45,9.19l-3.3-1.11c.05,0,.68,1.29.7,1.31.16.27.51,1.08.86,1.22l3,1.21s-.54-1.34-.55-1.36C29.06,10.26,28.75,9.29,28.45,9.19Z"/><path class="cls-2" d="M28,7.83,24.75,6.71s.45,1.2.76,1.32l3.06,1.24S28.35,8,28,7.83Z"/><path class="cls-2" d="M27.93,9.05,24.58,8c-.22-.06-.07.3.05.34l3.35,1C28.2,9.45,28,9.08,27.93,9.05Z"/><path class="cls-2" d="M28.35,9.41l-3.29-1.1c.09,0,.81,1.35.86,1.41.2.31.61,1.15,1,1.31l3,1.23c-.07,0-.68-1.42-.71-1.47C29.1,10.55,28.69,9.53,28.35,9.41Z"/><path class="cls-2" d="M28.33,8.9,25,7.81c.09,0,.84,1.61.87,1.66.19.31.64,1.4,1.05,1.57l3,1.22a18.31,18.31,0,0,1-.71-1.72C29.1,10.32,28.67,9,28.33,8.9Z"/><path class="cls-2" d="M28.09,9.18,24.84,8.1s.52,1,.83,1.11l3,1.14C28.77,10.37,28.38,9.28,28.09,9.18Z"/><path class="cls-2" d="M28.27,8.24,25,7.1a2.21,2.21,0,0,0,.61,1.07l3,1.19C28.75,9.4,28.49,8.31,28.27,8.24Z"/><path class="cls-2" d="M28.31,9.51,25.13,8.43c-.25-.08.24.54.2.47.18.28.61,1,.94,1.11l3,1.17C29.21,11.16,28.77,9.66,28.31,9.51Z"/><path class="cls-2" d="M28.3,9.16,25,8.06a17,17,0,0,1,.89,1.54c.2.31.64,1.28,1.05,1.44l3,1.23c-.08,0-.71-1.55-.74-1.6C29.08,10.44,28.65,9.27,28.3,9.16Z"/><path class="cls-2" d="M28.38,9.28,25.2,8.21c.06,0,.64,1.5,1.07,1.67l3,1.19C29,10.94,28.93,9.46,28.38,9.28Z"/><path class="cls-2" d="M28.14,9.25,24.68,8.07c-.15-.05-.15.19,0,.24l3.47,1.2C28.29,9.57,28.26,9.29,28.14,9.25Z"/><path class="cls-3" d="M27.94,19.2h-8.2"/><path class="cls-2" d="M25.84,16.73l-8.16,0c.07,0,1.25,1.4,1.27,1.42.19.19,1,1.28,1.4,1.29l8,.18s-1.15-1.49-1.16-1.5C27,17.93,26.19,16.73,25.84,16.73Z"/><path class="cls-2" d="M26.09,17.25l-8.15,0s1,1,1,1.05c.2.18.8.9,1.14.91l8,.16s-.92-1.1-.93-1.11S26.4,17.25,26.09,17.25Z"/><path class="cls-2" d="M25.48,16l-8.11-.06c-.1,0,.59,1,.86,1l8.13.17C26.22,17.12,25.86,16,25.48,16Z"/><path class="cls-2" d="M25.35,17.24l-8.17,0c-.24,0,.07.32.18.32l8.18,0C25.78,17.57,25.46,17.24,25.35,17.24Z"/><path class="cls-2" d="M26,17.44l-8.15,0a16.48,16.48,0,0,1,1.24,1.12c.25.2.95,1,1.35,1l8,.18c-.06,0-1.12-1.16-1.16-1.19C27.08,18.3,26.36,17.44,26,17.44Z"/><path class="cls-2" d="M26,17l-8.15,0c.07,0,1.23,1.32,1.25,1.34.2.2,1,1.2,1.38,1.21l8,.18s-1.14-1.4-1.15-1.41C27.1,18.1,26.31,17,26,17Z"/><path class="cls-2" d="M25.64,17.3l-8.13,0s.8.89,1.14.89l8,.1S26,17.3,25.64,17.3Z"/><path class="cls-2" d="M25.74,16.37l-8.16-.06c-.13,0,.47.8.69.8l8.07.14C26.49,17.25,25.94,16.37,25.74,16.37Z"/><path class="cls-2" d="M25.92,17.58l-8.06,0c-.27,0,.39.44.34.4.24.2.91.81,1.25.82l8,.13c.22,0-.43-.53-.49-.57C26.73,18.11,26.27,17.58,25.92,17.58Z"/><path class="cls-2" d="M25.94,17.21l-8.15,0c.08,0,1.23,1.2,1.27,1.23.23.21,1,1.09,1.39,1.1l8,.18c-.06,0-1.16-1.28-1.18-1.31C27.07,18.2,26.3,17.21,25.94,17.21Z"/><path class="cls-2" d="M26,17.36l-8,0s1,1.28,1.48,1.29l8.05.14C27.1,18.75,26.55,17.36,26,17.36Z"/><path class="cls-2" d="M25.6,17.42l-8.28-.05c-.18,0,0,.25.09.25l8.31.08C25.93,17.7,25.72,17.43,25.6,17.42Z"/><path class="cls-2" d="M24.84,29.32l-1.6,2.27c-.53.34,0,.14.29,0a7.56,7.56,0,0,0,2.17-1.16,5.05,5.05,0,0,0,1.58-2.94s-1.26.81-1.28.83C25.77,28.51,24.93,29,24.84,29.32Z"/><path class="cls-2" d="M24.9,29.76,24,31.58,26,29.94a22.24,22.24,0,0,0-2.78,2.13.28.28,0,0,0-.12.16,3.28,3.28,0,0,0,.69-.36A6.52,6.52,0,0,0,27,27.72a14.41,14.41,0,0,1-1.12,1C25.63,28.92,25,29.37,24.9,29.76Z"/><path class="cls-2" d="M24.08,29.48l-1.8,2.22c-.34.2.23.12.38,0a3.57,3.57,0,0,0,1.88-2.43C24.58,29.14,24.12,29.36,24.08,29.48Z"/><path class="cls-2" d="M24.15,30.86l-1.6,2c-.06,0-.56.6-.28.45a5,5,0,0,0,2.6-3.15S24.22,30.62,24.15,30.86Z"/><path class="cls-2" d="M24.72,30l-.86,1.8,2.42-2.07a34.7,34.7,0,0,0-3.23,2.54.35.35,0,0,0-.16.18,4.5,4.5,0,0,0,.84-.48c1.72-1.18,3.21-2.42,3.63-4.54A14.5,14.5,0,0,1,26,28.6C25.68,28.88,24.84,29.48,24.72,30Z"/><path class="cls-2" d="M24.88,29.48,24,31.3l1.86-1.37-2.59,1.8c-.54.37,0,.14.31,0a8.73,8.73,0,0,0,2.21-1.35,5,5,0,0,0,1.57-3c0,.08-1.27.93-1.31,1C25.82,28.58,25,29.09,24.88,29.48Z"/><path class="cls-2" d="M24.39,30.32l-.92,1.86,1.37-1.27-1.92,1.47c-.12.09-.65.61-.18.33a5.81,5.81,0,0,0,3.16-3.8C25.87,29,24.53,29.82,24.39,30.32Z"/><path class="cls-2" d="M24.34,29.82a2.64,2.64,0,0,1-1.85,2.24c-.28.17.05.19.21.1a3.8,3.8,0,0,0,2.15-2.64C24.89,29.39,24.38,29.67,24.34,29.82Z"/><path class="cls-2" d="M24.66,30.29l-.91,1.87,1.79-1.77-2.21,1.85c.14-.11-.73.7-.45.53a7,7,0,0,0,3.71-4.51c.07-.33-.65.52-.57.44C25.66,29.07,24.8,29.76,24.66,30.29Z"/><path class="cls-2" d="M24.76,29.71l-.86,1.81L25.84,30l-2.65,1.94c-.57.42,0,.15.32,0a10.16,10.16,0,0,0,2.3-1.51,5.1,5.1,0,0,0,1.58-3c0,.11-1.32,1-1.38,1.1C25.73,28.72,24.87,29.29,24.76,29.71Z"/><path class="cls-2" d="M24.77,30.07l-.91,1.87,1.58-1.49L23.38,32.1c-.13.1-.76.7-.22.37a6.25,6.25,0,0,0,3.31-4.1c.07-.3-.59.43-.51.36C25.65,29,24.89,29.62,24.77,30.07Z"/><path class="cls-2" d="M24.25,31l-1.58,2c-.09.06-.54.61-.29.47a4.38,4.38,0,0,0,2.4-2.88C24.88,30.27,24.29,30.85,24.25,31Z"/><path class="cls-2" d="M31.83,35.74l0,3.23s1.11-1,1.13-1c.2-.22,1-.81,1-1.17l.25-3-1.22.89C32.77,34.84,31.84,35.44,31.83,35.74Z"/><path class="cls-2" d="M31.89,36.19l-.06,3.26c0-.08,1-1.09,1-1.13.21-.28.79-.85.83-1.25l.24-3c0,.06-1,1-1.07,1C32.64,35.25,31.89,35.86,31.89,36.19Z"/><path class="cls-2" d="M31.1,36l0,3.3c0,.2.45-.08.44-.2l0-3.3C31.52,35.56,31.09,35.83,31.1,36Z"/><path class="cls-2" d="M31.16,37.32l0,3.31a1.75,1.75,0,0,0,.63-.79l.11-3.24C31.87,36.49,31.16,37.09,31.16,37.32Z"/><path class="cls-2" d="M31.71,36.38l0,3.27a15.39,15.39,0,0,1,1.22-1.42c.25-.31,1-1.06,1.07-1.53l.27-3A14.71,14.71,0,0,1,32.9,35C32.7,35.18,31.71,36,31.71,36.38Z"/><path class="cls-2" d="M31.87,35.91l-.05,3.24C31.82,39.08,33,38,33,38c.22-.25,1-.9,1-1.3l.26-3c0,.06-1.23,1-1.26,1S31.87,35.57,31.87,35.91Z"/><path class="cls-2" d="M31.38,36.83l0,3.17c0-.1,1.26-1.19,1.3-1.7l.21-3.1-.8.76C31.89,36.13,31.39,36.55,31.38,36.83Z"/><path class="cls-2" d="M31.35,36.28v3.33c0,.19.49-.18.49-.32V36C31.84,35.77,31.35,36.14,31.35,36.28Z"/><path class="cls-2" d="M31.63,36.82l0,3.25c0-.14.6-.75.72-.92.26-.39.9-1,.94-1.53l.26-3.11a12.91,12.91,0,0,1-1,1.09C32.31,35.83,31.64,36.45,31.63,36.82Z"/><path class="cls-2" d="M31.75,36.14l0,3.26a16.61,16.61,0,0,1,1.21-1.3c.23-.28,1-1,1.07-1.42l.26-3c0,.09-1.28,1.13-1.32,1.17S31.75,35.78,31.75,36.14Z"/><path class="cls-2" d="M31.75,36.58l-.05,3.25a7.68,7.68,0,0,1,.64-.79c.23-.33.78-.89.81-1.31l.25-3.1s-.87.89-.9.92C32.33,35.75,31.75,36.26,31.75,36.58Z"/><path class="cls-2" d="M31.25,37.51v3.34c0,.14.54-.38.54-.57l0-3.36C31.8,36.79,31.25,37.32,31.25,37.51Z"/><path class="cls-2" d="M40,20.76,40,24s1.11-1,1.12-1c.21-.21,1-.8,1-1.16l.25-3s-1.22.89-1.22.89C41,19.85,40,20.46,40,20.76Z"/><path class="cls-2" d="M40.08,21.21l0,3.26c0-.08.95-1.09,1-1.14.22-.27.8-.84.84-1.24l.24-3c0,.06-1,1-1.07,1C40.84,20.26,40.09,20.87,40.08,21.21Z"/><path class="cls-2" d="M39.29,21l0,3.31c0,.19.44-.08.44-.21l-.05-3.29C39.72,20.57,39.29,20.84,39.29,21Z"/><path class="cls-2" d="M39.36,22.33l0,3.31c0,.09.63-.54.64-.78l.11-3.25C40.06,21.51,39.36,22.1,39.36,22.33Z"/><path class="cls-2" d="M39.91,21.4l0,3.26a13.71,13.71,0,0,1,1.22-1.41c.25-.32,1-1.06,1.07-1.53l.27-3c0,.12-1.28,1.22-1.33,1.29C40.9,20.2,39.91,21,39.91,21.4Z"/><path class="cls-2" d="M40.07,20.93l0,3.24C40,24.1,41.14,23,41.17,23c.22-.25,1-.89,1-1.29l.26-3c0,.05-1.24,1-1.26,1S40.07,20.59,40.07,20.93Z"/><path class="cls-2" d="M39.58,21.85l0,3.17c0-.1,1.26-1.2,1.29-1.7l.22-3.1-.81.75C40.09,21.15,39.59,21.56,39.58,21.85Z"/><path class="cls-2" d="M39.55,21.3v3.33c0,.18.48-.19.48-.33V21C40,20.79,39.55,21.16,39.55,21.3Z"/><path class="cls-2" d="M39.83,21.83l0,3.26c0-.14.6-.75.72-.93.26-.39.9-1,.94-1.52l.26-3.11a12.91,12.91,0,0,1-1,1.09C40.51,20.85,39.83,21.47,39.83,21.83Z"/><path class="cls-2" d="M40,21.16l-.05,3.25c0-.1,1.18-1.25,1.22-1.3.23-.27,1-1,1.07-1.41l.26-3a15.88,15.88,0,0,1-1.32,1.16C41,20,40,20.8,40,21.16Z"/><path class="cls-2" d="M40,21.6l-.05,3.24a7.41,7.41,0,0,1,.64-.78c.22-.34.78-.89.81-1.31l.24-3.1c0,.05-.86.88-.89.92C40.53,20.77,40,21.28,40,21.6Z"/><path class="cls-2" d="M39.45,22.53v3.34c0,.13.53-.39.54-.57l0-3.36C40,21.81,39.45,22.34,39.45,22.53Z"/><path class="cls-2" d="M35.27,14.67a3.87,3.87,0,0,0-2,4c.29,2.6,3.07,3.86,5.39,4.08,4.14.39,8.76-4.17,7.43-8.44-1.56-5-9.86-2.87-11.76.81-1.11,2.16-.4,4.86,1,6.72s4,3.59,6.26,2.88c1.51-.46,1.25-1.66.83-2.94-.56-1.75-1.57-3.19-3.46-3.53s-3.31.71-3.23,2.65c.1,2.53,2.56,3.68,4.71,4.35,1.17.36,2.93.91,3.78-.32a7,7,0,0,0,.4-5.45,3.67,3.67,0,0,0-2.89-2,2.55,2.55,0,0,0-2.33,1c-1.95,2.17-1.59,5-.73,7.56a12.1,12.1,0,0,0,2.4-1c1.25-.89,3-2.24,3.07-3.95A5.86,5.86,0,0,0,44,19.76a5.62,5.62,0,0,0-2.44-4.11,4,4,0,0,0-4-.55,4.22,4.22,0,0,0-1.85,4.17,3.92,3.92,0,0,0,2.71,3.26c1.65.73,4,1,5.51-.2,1.09-.85,1.89-2.1,1.33-3.53a3.82,3.82,0,0,0-2.81-2.16,3.23,3.23,0,0,0-3,1.89A3.13,3.13,0,0,0,41.26,23a4.08,4.08,0,0,0,4.17-.85,4.66,4.66,0,0,0,1.08-2.59c.41-2.66-1.62-3.9-3.74-4.73-.24-.1-1.73,2.26-1.77,2.45-.32,1.25-.82,2.49-.26,3.75.64,1.46,1.8,1.82,3.25,2,.25,0,1.95-.6,2-.91.64-2.14,1-1.58.26-2.67a2.48,2.48,0,0,0-1.62.36c-.73.8-.68,1.43.16,1.89A3.26,3.26,0,0,0,47.12,23a6,6,0,0,0,1-2.28A4.73,4.73,0,0,0,46.55,19c-.15-.13-1.41,1.21-1.47,1.34a5.35,5.35,0,0,0-.1,4.94,15.11,15.11,0,0,0,2-1.44,28.73,28.73,0,0,0,2.45-5.63.27.27,0,0,0,0-.23,9.51,9.51,0,0,0-4.88,3l-.05.07a8.9,8.9,0,0,0,4.21,2.34,5,5,0,0,0,1-2.16,8.16,8.16,0,0,0-3.36-3.59,7.12,7.12,0,0,0-2.7.14,2.77,2.77,0,0,0,.32,2.15,6.72,6.72,0,0,0,1.06,1.83,1.74,1.74,0,0,1,.3,2.42A2.84,2.84,0,0,1,45,25.59c-.31.8-.64,1-.07,1.88.71,1.09,2,1.19,3.17,1.18A7.53,7.53,0,0,0,47.71,26c-1.15.11-1.54-.36-1.61-1.74l-.7,1.19c.67-1,2.49-2.52,2.34-3.81A4.79,4.79,0,0,0,46.9,20a3.14,3.14,0,0,1-.47-2.4l-2.7.14a8.38,8.38,0,0,1,2.9,2.38,8.84,8.84,0,0,1,2.13,3.23l1-2.16a2.83,2.83,0,0,1-2-.36c-1-.42-1-1-.23-1.84l-2,1,3-.12.56-1.41L45,25.15l2-1.43a6.42,6.42,0,0,1-.5-4.71l-1.46,1.35a5.81,5.81,0,0,1,2,2.65l1-2.28c-1.4.33-2-.08-1.83-1.26l-1.62.36L44,23l2-.84-3.19.61,1.82-.2-2.91-.47,1.71.4-2.45-1.42,1.52,1.08-1.78-2.28,1.2,1.83L41,18.25l.4,1.9.29-3.45-.49,2,1.61-3.77L41,17.39a5.88,5.88,0,0,1,4.14-.68H43.5l1.7.85-1.14-.64L45.34,22l.35-1.61-1.38,2.37,1.31-1.67-2.51,1.77,1.25-.8-3,.8,1.73-.31-2.95-.37,1.93.46-2.7-1.56,2.06,1.37-.82-3.85-.3.61a4.16,4.16,0,0,1,4.25-.47L43,18.35l.71.53-.55-.49-.83,2.67q-2,1.53-2.94-1c-1.59-.68-1.94-1.38-1-2.09q2-2.76,5.65,1.73l-.89-1,1,2.58-.28-2-.38,2.66.17-.87L42.33,23.8,43,22.67l-2.24,2.52L42.08,24l-3.17,1.9L41.13,25a2.86,2.86,0,0,1-.75-2.28l.42-1.18c.13-.63-.13-1.5,1-1.17.85.24.88,1.59.68,2.2-.51,1.56-.46,1-1,.65l-1.29-.75-1.33,0c-.83-.42-1-.93-.6-1.51.58-.28.74.17,1.13.45s.73.46.59,1.16l2.62-.19c-2-.24-5-.22-5.83-2.63a4.84,4.84,0,0,1,0-3.1,5.44,5.44,0,0,1,2.7-2.07c1.27-.43,4.48-.56,4.31,1.47l1.55-1.69c-2.46,2.35-1.71,1.1-1.91,3.33a3.06,3.06,0,0,1-2.49,2.71c-1.69.49-4.56.68-4.7-1.46-.07-1.09.51-1.45,1.52-1.46,0,0-1.17-1.5-1.17-1.5S35.45,14.58,35.27,14.67Z"/><path class="cls-2" d="M35.51,15.18A3.69,3.69,0,0,0,33.44,19c.23,2.58,2.9,3.87,5.19,4.16,4.13.51,9.14-4.07,7.69-8.4-1.65-4.88-9.81-2.94-11.79.72-1.15,2.11-.53,4.8.81,6.68s4,3.8,6.36,3.13c1.57-.46,1.3-1.71.88-3C42,20.5,41.05,19,39.1,18.68a2.52,2.52,0,0,0-3.22,2.56c0,2.5,2.46,3.76,4.56,4.52,1.24.44,3.14,1.1,4-.26a7.13,7.13,0,0,0,.32-5.63,3.66,3.66,0,0,0-2.92-2,2.61,2.61,0,0,0-2.3,1c-1.95,2.12-1.67,5-.88,7.5h.07c2.84-1,5.43-2.8,5.38-6.21-.06-3-3.55-5.73-6.38-4.61-1.51.6-2,2.54-1.92,4,.06,2,1.66,3.06,3.3,3.67,2.68,1,8-.76,5.86-4.43-2.59-4.37-8,.84-5,3.77a4.18,4.18,0,0,0,5.48.06,4.2,4.2,0,0,0,1.2-3.27c0-2.36-1.72-3.3-3.68-4.08-.25-.1-1.39,1.75-1.47,1.92-.59,1.3-1.32,2.72-.71,4.15s1.76,1.79,3.16,2c.32,0,1.64-1.14,1.68-1.46.23-2.23.68-1.72-.61-2.92a.14.14,0,0,0-.11.1l-1,2.1v.07a4.82,4.82,0,0,0,3,2.19c-.13-.06.31-2.11,0-2.43a5.68,5.68,0,0,0-2.06-1.67.16.16,0,0,0-.07.15A15.06,15.06,0,0,0,44.16,23c0,1.34-.06.68.64,2.38a.29.29,0,0,0,.18-.18,24.08,24.08,0,0,0,3.32-5c.12-.22-.4-1.88-.65-1.9-2-.19-2.21,1-3.38,2.65a.24.24,0,0,0-.07.22,9.43,9.43,0,0,0,4.38,2.46,8.26,8.26,0,0,0,0-2.35,20,20,0,0,0-5.57-5c-.08-.05-.07.52-.07.39,0,2.08-.3,2.15.65,3.72s1.31,1.14,2,3.48l.27-1.81c.47-2.5-1.3,4.76-1.27,5.08.18,1.86,2.19,2.11,3.62,2.08.05,0-.2-2.72-.44-2.69-1.68.16-1.91-.68-1.89-2.77a10.89,10.89,0,0,0,.2-2.34,4.79,4.79,0,0,0-.53-1l-.82-.94a3.63,3.63,0,0,1-1.64-3.05v1.29a13.14,13.14,0,0,1,5.44,5.85l.06-2.29a5.07,5.07,0,0,1-3.12-1.78L44.39,21a3,3,0,0,1,3.91-.84l-.67-1.84A21.19,21.19,0,0,1,45,24.83l.84-1.43-1.1-2.64-.42,1.39,2.56,1.21,0-2.36A1.9,1.9,0,0,1,45,19l-.49,1.06.76,1.57.44-1.9L44,23.28l1.6-1.39-4.36-.48,1,.56-1.44-1.82.89,1.4L43,15.36l-1.46,1.92c3.31.06,4.31,1.14,3,3.22q-.26,3.21-4,2l1.31.15-2-1.07,1.4.83a3.34,3.34,0,0,1-.82-2c2-1.77,3-1.8,3-.07-.34,1.41-2.35.82-3.28.77q-2.62.57-2.33-2.67a3.26,3.26,0,0,0,1.13-.89.71.71,0,0,1,.93.38q6,4.08-.62,8l1.47-1a2.9,2.9,0,0,1-.5-2.37,3.9,3.9,0,0,0,.64-2.21c.49-.46,1.48-.05,1.77.36a2.87,2.87,0,0,1,.29,1.93,1.37,1.37,0,0,0-.37,1.4c-.58.23-1.74-.36-2.17-.67a1.06,1.06,0,0,0-1.38-.68,4,4,0,0,1-1-1.41c.13-.69.89-.72,1.38-.35s1.23,1.24,1.23,1.71c.22.23.26.29.13.17a1.66,1.66,0,0,1-1.55-.56c-1.2-.71-2.13-1.17-2.69-2.51A3.67,3.67,0,0,1,37.12,16a5.64,5.64,0,0,1,3.82-1.73,5,5,0,0,1,2.9.81,3.15,3.15,0,0,1-.09,2,4,4,0,0,1-1.61,3.24,3.51,3.51,0,0,1-2.36.58,3.5,3.5,0,0,1-2.14.25c-1.94-.51-2.6-3.71-.14-3.83C37.15,17.29,36,15,35.51,15.18Z"/><path class="cls-2" d="M34.9,13.92a3.79,3.79,0,0,0-2.29,2.86,4.88,4.88,0,0,0,.21,3.11c1.07,2.28,4.24,3.48,6.54,3.56,2.52.08,5.57-2.24,6.77-4.34a6.87,6.87,0,0,0,.6-6.21C45,9,39.09,9.65,36.21,11.46a7,7,0,0,0-3.35,4.79c-.49,3.24,1.79,7.14,4.71,8.56,1.2.58,4.26,1.24,5.49.05s.45-3.06,0-4.2c-.83-2.05-1.81-3.64-4.17-3.86-2.59-.23-4.64,1.47-4.11,4.28.6,3.14,3.75,4.51,6.62,5a4.63,4.63,0,0,0,2.85.05c1.84-.95,1.85-4.1,1.58-5.72-.23-1.43-.47-2.56-1.7-3.43a4.23,4.23,0,0,0-3.26-.93,5.11,5.11,0,0,0-2.61,1.85c-2,2.39-1.3,5.67-.46,8.34,0,.06.14.05.19,0,3.07-1,6.74-2.88,6.57-6.59-.16-3.56-3.4-7.14-7.2-5.78-1.46.52-2.22,2.51-2.41,3.83a2.89,2.89,0,0,0,0,1.84c.23,1.24,0,.71.94,1.72a6.67,6.67,0,0,0,8.23,1.37,4,4,0,0,0,2-2.61c.12-2.32-2.31-5.3-4.82-4.29-2.35.94-4.23,3.81-2.23,6a5.28,5.28,0,0,0,3.95,1.64,4,4,0,0,0,3.27-2.21,5.63,5.63,0,0,0,.83-3.17c-.24-2.14-2.36-3.44-4-4.32a.1.1,0,0,0-.09,0c-1.89,2.18-4.48,5.13-2.24,8a3.3,3.3,0,0,0,1.13,1c1.66.74,1.52.3,3-1.05a.29.29,0,0,0,0-.16l-.45-1.65c0-.05-.12-.07-.16,0l-.82.63s-.1.07-.06.12c1.76,2.44.77,1.46,3.12,3.19,0,0,.15-.09.14-.12a9.13,9.13,0,0,0-1.83-3.2s-.14,0-.16,0a7.16,7.16,0,0,0-1,2.59c-.18,1.44-.17.65.32,2.54,0,0,0,.07.07,0a26.87,26.87,0,0,0,4.33-5.78h0c-1.46-.23-2.22-.57-3.64.11a7.55,7.55,0,0,0-1.32,1c-.06.05-.09.1,0,.16a10.91,10.91,0,0,0,5,2.75s.06,0,0,0a12.15,12.15,0,0,0-2.47-3.72A11.83,11.83,0,0,0,43,17.26s-.16,0-.16,0a4.07,4.07,0,0,0,.55,3.12,6.28,6.28,0,0,0,.78,1.38,3.7,3.7,0,0,1,.69,3.49,4,4,0,0,0-.56.86c-.45.89-.49,1.08.2,1.94,1,1.22,2.44,1.29,3.86,1.26.12,0,.12-.23,0-.24q-4.49-1.78-2.94-4.63A4,4,0,0,0,45,23.13a1.93,1.93,0,0,1-.38-2.65q.26-3.24,2.24.81c.3,2,.13,2.48-.51,1.51q-8.39-.89-5.64-5.55l1.06-1.58q9.71,3.78.44,7.58-7.85-5.09,1.69-6.62Q47.5,19,42.45,23.22A6.33,6.33,0,0,1,36.83,22Q33,16.61,39,14.4q2.63-.12,3.41,2.8,5.64,5-5,6.78a9.87,9.87,0,0,1,.32-4.61,7,7,0,0,1,1.81-2.1L45.37,24q-3.43,3-6.9,1.11a5.48,5.48,0,0,1-3.3-5.37c1.31-3.79,7.21-2.87,7.57,1.18q-2,7-6.61,2.52a9.76,9.76,0,0,1-2.22-3.24C30.69,11.55,44.44,6.93,46.7,14.27c1.39,4.5-4.68,10.13-9.12,8.67-5.83-1.93-5.28-6.43-1.79-7.88C35.83,15,35.13,13.81,34.9,13.92Z"/><path class="cls-2" d="M34.73,15.18a3.85,3.85,0,0,0-2.23,2.94,5.35,5.35,0,0,0,.24,3.19c1.38,3,5.85,4,8.64,3,3.17-1.1,6-4.19,5.83-7.67a5.5,5.5,0,0,0-3.14-4.88C40,9.93,33.29,13,32.86,17.68s3.58,9.68,8.52,9.2c1.72-.17,2.39-1.18,2.25-2.87a10.23,10.23,0,0,0-2.12-4.57A3.49,3.49,0,0,0,38,18.16a3.22,3.22,0,0,0-3.21,2.65,4.68,4.68,0,0,0,1.83,4.71,9,9,0,0,0,3.7,1.8c.75.2,2.9.84,3.86.26,1.17-.69,1.62-2.29,1.75-3.55.27-2.62-.68-5.69-3.48-6.46-1.83-.51-3.13.42-4.22,1.79-2,2.45-1.34,5.49-.49,8.24,0,0,0,.1.09.08a10.72,10.72,0,0,0,4.08-1.75c.89-.73,2.26-1.95,2.51-3.08a7.19,7.19,0,0,0-.25-3.71,5.66,5.66,0,0,0-5.3-4.1,3.49,3.49,0,0,0-3,1.51,5.81,5.81,0,0,0-.7,5.36,6.66,6.66,0,0,0,3.42,2.62,6.43,6.43,0,0,0,5.56-.39c1.26-.83,2.23-1.91,2-3.44a5.08,5.08,0,0,0-2-3.22c-2.23-1.74-5,.73-5.75,2.85-.83,2.33,1.72,4.18,3.76,4.49a4.65,4.65,0,0,0,5-3.79,15.66,15.66,0,0,0,.16-1.68c-.13-2.12-2.62-3.47-4.17-4.26,0,0-.06,0-.07,0-1.37,1.64-3.81,4.1-2.93,6.54A4.66,4.66,0,0,0,41.84,24c1.63,1.09,1.88,0,3.12-1.08a.09.09,0,0,0,0-.11l-.5-1.66s-.15.07-.16.07l-.83.57c-.05,0-.12.16-.07.22,1.75,2.39.73,1.43,3.16,3,.15.1.17-.1.13-.19-1-2.24-.37-1.22-1.94-3.12a0,0,0,0,0,0,0A6.24,6.24,0,0,0,44,26.94c0,.06.12.1.16,0a28.57,28.57,0,0,0,4.28-5.66s0-.12,0-.13c-2.38-.33-3.21-.24-5,1.1,0,0,0,.12,0,.14a11,11,0,0,0,5,2.78c.09,0,.18-.12.14-.2A14.69,14.69,0,0,0,47,22.5a14.68,14.68,0,0,0-4.21-3.95h0a4,4,0,0,0,.49,3.13q.83,1.32,1.56,2.7a10,10,0,0,1-.59,3.08c-.33,1.08-.65,1,.1,2.05,1,1.3,2.42,1.28,3.84,1.22.17,0,.22-.67.08-.67-1.92,0-4.22-.21-3.3-3.42a7.24,7.24,0,0,0,.39-1.07,3.4,3.4,0,0,0-.7-2.07C44,22.39,41,18.67,45,20.33q2.52,8,1.6.72L44,23.55q-6.18.12-2.23-6.75,2.93-1.89,4.4.83l0,4.71Q43.39,26.69,44,17.67l1.24,5L35,20.06q-.15-4.86,4.22,1.27,7.62,2.82.72,5.46-2.32-15.39,5.59-5-.33,6.39-4.18,5.29-5.18-.35-1.84-8.74,4.7,2.24,2.59,7.87a6.14,6.14,0,0,1-2.63,0,7.79,7.79,0,0,1-4.66-3.14,8.49,8.49,0,0,1-1.59-3.51L44.05,12c2.24,1.31,3.15,3.47,2.73,6.51a8.78,8.78,0,0,1-2.08,3.28,7.58,7.58,0,0,1-7.15,2.38,8.06,8.06,0,0,1-3.25-1.6c-2-3.11-1.8-5.47.71-7C35.18,15.4,34.82,15.13,34.73,15.18Z"/><path class="cls-2" d="M35.42,15.37a3.72,3.72,0,0,0-2.07,3.81c.19,2.59,2.91,3.83,5.19,4.11,4.06.5,9.08-4.19,7.47-8.42-1.77-4.67-9.53-2.73-11.52.79-1.19,2.09-.56,4.76.77,6.64s4,3.83,6.36,3.1c.66-.21,1-.35,1.15-1a3.37,3.37,0,0,0-.36-2.08c-.65-1.66-1.7-3.06-3.55-3.35a2.44,2.44,0,0,0-3.09,2.53c.08,2.52,2.51,3.69,4.64,4.39,1.23.4,3.07,1,3.9-.38a7.06,7.06,0,0,0,.18-5.43,3.59,3.59,0,0,0-2.85-1.9,2.47,2.47,0,0,0-2.23,1c-1.91,2.14-1.61,4.86-.79,7.4h.09a8.07,8.07,0,0,0,4.47-3.22,4.89,4.89,0,0,0,.8-3.13c-.33-3.17-5.16-6.77-7.58-3.36a4.32,4.32,0,0,0,1,5.77,6.14,6.14,0,0,0,6.41.28,2.94,2.94,0,0,0,.62-4.61,3,3,0,0,0-3.42-.9c-1.33.67-2.68,2.75-2.06,4.31.21.52,1.17,1.1,1.56,1.44a3.35,3.35,0,0,0,2.94.63c1-.15,1-.26,1.53-1a10.66,10.66,0,0,0,1.33-2.06,3,3,0,0,0-.23-2.93c-.8-1.48-2-1.91-3.51-2.45-.29-.11-2.17,1.41-2.19,1.73-.07,1.28-.68,4,.26,5.23.6.82,2.2,1.14,3.06,1.41a3.89,3.89,0,0,0,2-.5C47,20.68,47.22,21.52,46.78,20a4.11,4.11,0,0,0-2,.46c-.72.76-.69,1.37.09,1.85A3,3,0,0,0,47,23.6S48.21,21,48,20.71a6.08,6.08,0,0,0-2-1.86,9.66,9.66,0,0,0-1,1.75,5.16,5.16,0,0,0-.14,5c0-.06,1.63-2,1.73-2.17.58-1.07,1.17-2.14,1.76-3.2a9.36,9.36,0,0,0-.08-2.45c-2,.12-2.64,1.72-3.91,3.29a.43.43,0,0,0-.15.26,9.92,9.92,0,0,0,4.32,2.47A10.29,10.29,0,0,0,49,20.92,14.91,14.91,0,0,0,44.74,16a7.09,7.09,0,0,0-1.36,1.76l0,1.49a6.7,6.7,0,0,0,1,1.89,7.57,7.57,0,0,1,1.39,3l.07-.33-.43,1.29,1-2c.12-.22-1.93,3.31-1.87,4.17.11,1.86,2.22,2.11,3.6,2.09A12.77,12.77,0,0,0,47.79,26c-2.94.51-.62-3.08-.68-4.64A4.37,4.37,0,0,0,46,19.31,5.41,5.41,0,0,1,44.74,16l-1.36,1.83a8.64,8.64,0,0,1,2.95,2.48,9.36,9.36,0,0,1,2.22,3.44L49,20.92a4,4,0,0,1-2.82-1.56l-1.88,1.92a3,3,0,0,1,4-1l-.07-2.45-1.43,4.89.73-2-2.66,4.81,1.74-2.17a4.72,4.72,0,0,1-.61-4.4l-1,1.92A5.76,5.76,0,0,1,47,23.6L48,20.71c-1,.48-1.42.24-1.18-.73l-2,.46-1.1,3.17,1.77-.43-3,.19,1.62.08-2.73-.8,1.35.62-2.2-1.75,1.06,1.31-1.28-2.57.46,2L41.46,17l-.77,1.32,1.87-2.89-2.07,1.64,2.72-.71-1.08.24,3.32.49-2-.5,2.79,1.89-2-1.59,1.57,2.29-.6-1,.88,3.17-.33-1.9-.37,3.1L46,20.5l-1.66,2.85L46,21.26l-2.86,2.16,1.42-1-3.26,1.06,1.84-.36-3.29-.32,2.09.61-2.87-1.75,2,1.77-1-4.81L39.9,20,41,17.61l-1,1.67,2.07-1.89-1.85,1.5c2.9.52,3.67,1.18,2.31,2a3.09,3.09,0,0,1-2.65-1.05q-3.59-.61-1-2a5.39,5.39,0,0,1,4.59,2.12l-1.12-1,1.14,2.31-.76-1.74L40.6,25.62,41.81,24l-3,2.37,2.29-1.45a1.53,1.53,0,0,1-.66-1.36A1.61,1.61,0,0,1,40.85,22c.07-.5-.3-1.52.63-1.33.75.15.84,1.45.72,2l-.43.89a.75.75,0,0,1-.49-.25c-.5-.12-.79-.7-1.2-.84L39,22.74c-1.08-.2-1.36-.56-.85-1.09.11-.44.32-.49.64-.16l.29.53.48,0a11.69,11.69,0,0,0,2.82,2.61l-1.85-2.18C38.25,22,35.45,19.66,37,17a5.32,5.32,0,0,1,2.61-2.19c1-.34,4.08-.34,3.91,1.39l.58-.55c-.64.13-.88.43-.72.88A3.7,3.7,0,0,1,42.85,19a3.05,3.05,0,0,1-1.77,1.36,3.51,3.51,0,0,0-2.14.5,2.06,2.06,0,0,1-2.57-1.46c-.39-1.22.44-1.77,1.49-1.75-.06,0-1.12-1.16-1.15-1.19S35.64,15.28,35.42,15.37Z"/><path class="cls-2" d="M35.39,14.92a3.83,3.83,0,0,0-2,3.94c.26,2.59,3,3.8,5.31,4,4.08.41,8.85-4.14,7.43-8.39-1.62-4.86-9.75-2.79-11.66.83-1.12,2.13-.44,4.8.94,6.65s4,3.64,6.26,2.94c.63-.19.93-.32,1.13-1a3.34,3.34,0,0,0-.3-2c-.61-1.71-1.65-3.13-3.53-3.43s-3.24.72-3.15,2.62c.11,2.52,2.56,3.65,4.7,4.31,1.19.37,3,.92,3.8-.35a6.92,6.92,0,0,0,.32-5.42,3.65,3.65,0,0,0-2.88-2,2.55,2.55,0,0,0-2.3,1c-1.92,2.17-1.57,4.94-.7,7.48a13.65,13.65,0,0,0,2.3-1.05c2.65-1.78,4.21-4.5,2.21-7.51C42.37,16.34,40.74,14.84,39,15a3.45,3.45,0,0,0-3.15,2.87c-.84,3.82,3.47,6.18,6.78,5.21a3.84,3.84,0,0,0,2.86-3c.22-1.49-1.26-2.7-2.47-3.11a3,3,0,0,0-3.59,1.81,3,3,0,0,0,.75,3.72,4,4,0,0,0,5.34-.24,4.66,4.66,0,0,0,1.09-2.59C47,17,44.89,15.82,42.76,15a6.91,6.91,0,0,0-2,2.4l.08,1.41.31-1.1c-.8,2.47-1,1.65-.16,3.49.69,1.56,1.26,1.82,3,2.05.27,0,2.14-.51,2.26-.84.79-2.19,1.19-1.61.51-2.82a3.48,3.48,0,0,0-2,.39q-1,1.18.15,1.89a3.09,3.09,0,0,0,2.19,1.28c.08,0,1.25-2.28,1.07-2.54a5.2,5.2,0,0,0-1.68-1.84c-.13-.11-1.38,1.5-1.43,1.62a5,5,0,0,0,0,4.82,25.4,25.4,0,0,0,2-1.73c.48-1.23,1-2.45,1.53-3.67A20.92,20.92,0,0,0,49,17.6c-1.87.32-3.26,2-4.52,3.3l0,.08a9.69,9.69,0,0,0,4.26,2.41,7.16,7.16,0,0,0,.76-2.55A11.37,11.37,0,0,0,46,16.39a5.32,5.32,0,0,0-2.29,1.25A2.67,2.67,0,0,0,44,19.75a7.6,7.6,0,0,0,1.1,1.86,1.89,1.89,0,0,1,.35,2.55A3,3,0,0,1,45,25.74c-.29.82-.63,1.07-.07,1.94.71,1.09,2,1.17,3.17,1.16a10.29,10.29,0,0,0-.35-2.92c-1.08.21-1.46-.22-1.48-1.55l-.11.3c.52-1,1.82-2.27,1.49-3.48a7.5,7.5,0,0,0-1-2A4.12,4.12,0,0,1,46,16.39l-2.29,1.25a8.14,8.14,0,0,1,2.9,2.43,9.07,9.07,0,0,1,2.15,3.32l.76-2.55a2.77,2.77,0,0,1-1.94-.55c-.89-.45-1-1-.3-1.78l-1.7,1.43a3.15,3.15,0,0,1,3-.05L49,17.65l-3.84,7.51,1.95-1.72a6,6,0,0,1-.52-4.56L45.13,20.5a5.7,5.7,0,0,1,2,2.68l1.07-2.54c-1.27.43-1.74.09-1.43-1l-2,.39L44,23.2l2.21-.78L42.81,23l1.92-.12-3-.56,1.72.51-2.48-1.52,1.43,1.21-1.72-2.4,1,2-.72-3.59.19,2,.53-3.72-.63,2,1.73-3.58L40.85,17.4l4.67-.6-2.11-.17,2.82,1.5-2.18-1.35,2,4.19-.5-1.7-.18,2.85.4-1.84-1.43,2.61L45.78,21l-2.61,2,1.31-.9-3.06,1,1.77-.34-3-.31,1.94.53-2.71-1.58,2,1.52-1.23-4.55-.08,1.55L41,17.68l-.73,1.61,3.17-1.07-1.1.11,2.24.54-1.69-.49.77.56-.59-.53c.3,1.57-.16,2.52-1.36,2.84q-2.37,1.48-3.77-2.65l.82-.92A6,6,0,0,1,44,19.76l-1.11-1.2L44,21.17l-.5-2.1-1.13,4.8.55-1.31-2.12,2.75,1.35-1.38L39,26l2.3-1a1.88,1.88,0,0,1-.73-1.52,1.84,1.84,0,0,1,.3-1.62c-.25-.79-.09-1.2.49-1.21.36-.16.65,0,.86.38a2.09,2.09,0,0,1-.13,2c-.42.84-.1.39-.63.08a.76.76,0,0,0-.59-.22l-.52-.45c-.77.5-1.38.43-1.82-.22-.53-.21-.65-.54-.35-1,.62-.47.83.33,1.16.64h.43a5.38,5.38,0,0,0,2.68,2.32l-1.8-1.94a5.27,5.27,0,0,1-3.13-1.54,3.49,3.49,0,0,1-.59-3.62,4.44,4.44,0,0,1,2.61-2.35c1.14-.38,4.3-.48,4.09,1.42l1.68-1.64a2.6,2.6,0,0,0-2,1.94,3.73,3.73,0,0,1-.32,2.39,2.93,2.93,0,0,1-2.62,1.45c-1.75.16-3.29,1-3.92-.91-.39-1.21.38-1.81,1.44-1.81,0,0-1.14-1.41-1.15-1.41S35.57,14.83,35.39,14.92Z"/><path class="cls-2" d="M35,15.25c-2.14.86-2.68,3.34-1.88,5.43.51,1.33,2.13,2.29,3.38,2.78a6.72,6.72,0,0,0,4.61.24c4.16-1.15,7.56-6.77,4.44-10.48-1.33-1.58-3.33-1.79-5.3-1.64a7.68,7.68,0,0,0-7,5.56c-.73,3.16,1.66,6.72,4.26,8.29a6.17,6.17,0,0,0,4.33.6A1.88,1.88,0,0,0,43,24.14c.08-1.39-.64-4.19-1.94-5.08a4.65,4.65,0,0,0-3.4-.7C34.82,18.84,34.52,22,36.1,24a9,9,0,0,0,6.3,3.11c1.68.09,2.46-.95,2.84-2.57.56-2.48.28-4.94-1.94-6.36-2-1.28-3.81-.34-5,1.45-1.46,2.26-1,4.91-.38,7.35H38c2.75-.77,5.61-2,6.05-5.26.41-3-1.57-6.53-4.91-6.64a3.86,3.86,0,0,0-3.73,2.8,4.3,4.3,0,0,0,.67,4.17,6.36,6.36,0,0,0,4.32,2.25c1.34.16,3.82-.47,4.64-1.67a3.5,3.5,0,0,0-1-4.93c-2.08-1.6-6.09.8-5.4,3.48A4.09,4.09,0,0,0,45,23.36a4.7,4.7,0,0,0,1.8-4c-.39-2.07-1.82-3.14-3.56-4.1h0c-1,1.18-2.73,2.73-2.88,4.44a8.51,8.51,0,0,0,.06,1.43,3.39,3.39,0,0,0,2.78,2.58l0,0,1.3-1.29v-.05l-.63-1.17c-.08-.14-.71.22-.69.38.13.93,0,.79.82,1.46,1.17,1,.5.52,2.6,1.22A4.12,4.12,0,0,0,46.37,23a4.83,4.83,0,0,0-1.58-1.29s-.11,0-.13.06a4.41,4.41,0,0,0-.33,4.41c0,.09.09.06.15,0a21,21,0,0,0,3.57-5c.08-.13-.3-.25-.36-.26A3.6,3.6,0,0,0,44,22.1s0,.06,0,.09a7.6,7.6,0,0,0,4.16,2.3c.09,0-.18-1-.21-1a16.12,16.12,0,0,0-4.82-4.77.09.09,0,0,0-.13.08c-.08,1.5-.26,1.34.47,2.68A13.44,13.44,0,0,1,45.2,25l.13-1c-.19.76-1.23,2.79-1.22,3.81a5.06,5.06,0,0,0,.36,1C45.34,30,46.61,30,47.94,30c0,0-.14-1.72-.41-1.73-1.35-.05-2.89-.7-2.5-2.43.09-.4.27-.79.36-1.19a3,3,0,0,0,.12-1,3.2,3.2,0,0,0-1-1.68Q45,17,48,24.39l-.2-1c-1.73.18-1.68-.54.16-2.18L47.61,21a17.83,17.83,0,0,1-2.85,4.53l.26-.21q.28-4.5,1.48-1.06L46.32,23l-2.5-1.78-.65.37,1,.7-.57-.56c-.73.71-1.32.75-1.76.14q-2.52-2.07,2.53-5.18a4,4,0,0,1,1.42,3.24c-.15,2-2.65,4-4.66,2.75-1.54-1-2-3.14-.33-4.27a2.5,2.5,0,0,1,3.94,1.9c0,2.68-4.06,3.36-6,2.52-2.44-1-3.4-3.69-1.72-5.89,1.83-2.4,5-.24,6,1.76a5.75,5.75,0,0,1,.36,3.7q-4.23,6.66-3.09-.28c-1.11-2.24-.8-3.52.91-3.84l1.28.29a2.56,2.56,0,0,1,1.5,3.25c.2,1.36.74,2.75-.48,3.74a3.61,3.61,0,0,1-4.55-1.39A3.36,3.36,0,0,1,36,21.58l.06-1c.52-1.58,1.56-1.43,3.1.44,2.13.14,3,1.09,2.71,2.85l-.13.43a3,3,0,0,1-2.58.26,7.7,7.7,0,0,1-4.76-6.11c-.58-3.95,3.78-6,7.08-6,5.33.08,4.95,5.83,2.31,8.25a6.49,6.49,0,0,1-7.44,1.35c-2.24-1.13-3.43-5-.21-5.86C36.05,16.23,35.37,15.1,35,15.25Z"/><path class="cls-2" d="M35.11,14.31a3.72,3.72,0,0,0-2.29,2.88,5.06,5.06,0,0,0,.23,3.1,6.58,6.58,0,0,0,2.79,2.51,6.81,6.81,0,0,0,5.72.5c3.12-1.09,5.94-4.2,5.88-7.64A5,5,0,0,0,44.38,11c-3-1.38-7.36-.24-9.56,2.12a6.68,6.68,0,0,0-1.67,5.56,8.94,8.94,0,0,0,4.57,6.41c1.45.65,3.77,1.27,5.19.33,2-1.35.42-4.67-.52-6.15a3.91,3.91,0,0,0-4.09-2.13,4,4,0,0,0-2.66,1.23A4.37,4.37,0,0,0,35,21.44c.17,1.94,2,3.41,3.66,4.19s5.43,2.1,6.69,0a7.66,7.66,0,0,0,.11-6.87,4.25,4.25,0,0,0-3.53-2.18,3.91,3.91,0,0,0-3.46,1.75c-2,2.43-1.31,5.56-.46,8.29,0,.1.13.06.21,0,3.19-1,6.53-2.86,6.53-6.61,0-2.26-1.63-5-3.81-5.63-1.74-.54-3.65-.51-4.79,1.13a5.75,5.75,0,0,0-.76,5.35A5.63,5.63,0,0,0,37.86,23a4.18,4.18,0,0,0,2.06.74,6,6,0,0,0,4.43-.67,4.08,4.08,0,0,0,2-2.67c.27-2.45-2.4-5-4.77-4.23A5,5,0,0,0,39.24,18a3.06,3.06,0,0,0,.08,4.18c2.08,2.3,5.72,2.22,7.25-.58a5.29,5.29,0,0,0,.81-3.22c-.5-2.21-2.13-3.25-4-4.23-.07,0-.1,0-.15.05C41.46,16.23,38.69,19.31,41,22a8.87,8.87,0,0,0,1.11,1c1.59,1,1.79,0,3-1.07,0,0,.07-.08.06-.12l-.48-1.59a.14.14,0,0,0-.17-.06l-.8.63s-.1.11-.07.16c1.72,2.38.73,1.41,3.08,3,.05,0,.18,0,.14-.11a9.82,9.82,0,0,0-1.77-3,.11.11,0,0,0-.16,0,5.83,5.83,0,0,0-.69,4.85s.11.11.15.06a27.65,27.65,0,0,0,4.25-5.58s0-.06,0-.06c-2-.27-1.29-.37-2.74,0s-.74.08-2.17,1.18c0,0-.07.1,0,.13a11.46,11.46,0,0,0,4.92,2.67c.08,0,.19,0,.13-.12a28.43,28.43,0,0,0-2.51-3.59c-1.49-1.73-.6-.79-3.07-2.79,0,0-.17-.05-.17,0,0,1.62-.16,1.56.53,3a6.18,6.18,0,0,1,1,5.73l-.18.51c.15,1-1-.14.35,1.5,1,1.26,2.38,1.22,3.79,1.17.15,0,.17-.41,0-.41-2.34,0-4-.34-3.25-3.6.08-.34.37-.65.37-1a10.21,10.21,0,0,0-.37-1.34c-.41-1.15-4.23-6-4.29-5.68q2-4.11,1.28,2.16,2.06,5.19-1.33,3.22c-.38-3.32-1.58-4.26-3.62-2.8s-2.65.56-1.61-2.64a2.53,2.53,0,0,1,2.11-2.18A2.45,2.45,0,0,1,40.68,15a3.07,3.07,0,0,1,2,1.31Q46,19.49,42,24.8l-1.8,1q-4.35-5.46-.44-8.23L45,19q2.27,4.39-1.58,7.41l-2.79-.32q-7.24-2.82-4.77-7.29l7,2.48q-2.76,13.17-4.51-9.62c1.7-.52,4.13-1,5.77-.08a5.39,5.39,0,0,1,2.27,6.81c-1.53,3.35-5.61,6-9.44,4.53q-3.71-1-2.89-6.37a2.89,2.89,0,0,1,1.76-1.34C35.89,15.14,35.31,14.21,35.11,14.31Z"/><path class="cls-2" d="M35.35,15.51a3.61,3.61,0,0,0-2.16,3.8c.19,2.62,2.81,4.07,5.14,4.46,4.32.73,9.39-4,8-8.45-1.56-5.1-9.93-3.57-12.05.34-1.19,2.19-.62,5,.7,7s4.07,4.08,6.6,3.31c1.61-.48,1.37-1.79,1-3.18-.52-1.9-1.38-3.5-3.45-3.9a2.69,2.69,0,0,0-3.48,2.49C35.52,24,38,25.61,40.19,26.42c1.36.5,3.36,1.2,4.33-.31a5.07,5.07,0,0,0,.57-2.06,7.67,7.67,0,0,0-.22-3.78,3.31,3.31,0,0,0-5.3-1.22,5.17,5.17,0,0,0-1.43,2.52,9.15,9.15,0,0,0,.15,5.33h.07c2.64-.84,5.06-2.17,5.51-5.22a5.47,5.47,0,0,0-.82-3.8,5.27,5.27,0,0,0-3.73-2.29c-2.92.05-4.26,3.1-3.38,5.65.55,1.58,3.14,2.87,4.69,2.9A5.51,5.51,0,0,0,44.35,23a3.06,3.06,0,0,0-1.05-5.25c-2-.77-4.77,1.23-4.12,3.55A3.72,3.72,0,0,0,45,23.18a4.26,4.26,0,0,0,1.51-3.79c-.42-1.91-1.71-2.83-3.39-3.65l-.05,0c-1.21,1.51-2.8,3.37-2.33,5.5a2.92,2.92,0,0,0,1.38,1.92q1.69,1,2.49-1.05c.2-.22-1.07-1.7-1.08-1.69l-.77.78c-.14.14.29.78.39.87,2,1.75.92,1.11,3.47,2-.09,0-.26-1.85-.44-2.05a3.27,3.27,0,0,0-1.57-1.27c-.06,0-.09,0-.1.08-.19.64-.36,1.29-.52,1.94a4.5,4.5,0,0,0,.57,3.28l.07,0a23,23,0,0,0,3.48-5.2c.12-.2-.5-1.24-.73-1.26-1.74-.09-2.12.85-3.2,2.12a.15.15,0,0,0-.07.16,8.44,8.44,0,0,0,4.27,2.44,10.19,10.19,0,0,0-.11-2,14.14,14.14,0,0,0-5.13-4.07c-.09,0-.15.1-.16.17a4,4,0,0,0,.25,2.17c.7,1.53,1.75,2.44,2.2,4.21l.27-1.61c-.25,1.06-.66,2.08-1,3.11a4.77,4.77,0,0,0-.38,1.36c.1,2,2.31,2.28,3.78,2.23,0,0-.22-2.66-.52-2.65-1.53,0-2.42-.59-2.08-2.73l-.82,2.21a8.16,8.16,0,0,0,1.13-3.11C46,22,45.55,21.91,44.7,21c-2-1.85-1.87-2.21.41-1.06a12.26,12.26,0,0,1,3.23,4.35l-.11-2c-.81-.07-3.38-.35-2.53-2.1l-.53.68a2.89,2.89,0,0,1,2.9,0l-.68-1.25a18.47,18.47,0,0,1-2.26,5.12l.31-.45L44.4,22l-.26.85,2.44,1.2-.45-2a4.7,4.7,0,0,1-3.3-.78l.41.83.68-1.23-1.17-.37,1.8,1.66-1-1.61-.17,1.83.19-1.13c-1.73.59-1.31-1-1.29-2.19-.28-.79,0-1.21.7-1.27.43-.41.78-.38,1,.09a3,3,0,0,1,.74,1.81c.11.66.16,1.34-.49,1.77l-.77.24-.8.48a1.37,1.37,0,0,1-1.38-.41A5.5,5.5,0,0,1,40.67,20a.92.92,0,0,1,.55-1,3.14,3.14,0,0,1,2.46.8,2.1,2.1,0,0,1-2.06,2.32c-1.81.11-3.53-.36-4.22-2.18a2.06,2.06,0,0,1,2.1-2.86c.69.05,1,.64,1.5,1s1.11.72,1.38,1.45l.16,1a2.18,2.18,0,0,1-1.73,2.15Q38.89,25,39.42,23a2.71,2.71,0,0,1,.45-1.61c.48-1.09.88-2.29,2.43-1.59S43.46,23,43,24.23s-1.51.81-2.61.3a6.87,6.87,0,0,1-2.16-1.4,1.32,1.32,0,0,1-.62-1.1l-.4-.44c-.27-.82,1-1.54,1.66-1.42,1.73.29,2,2,1.94,3.43l.05,0c.14.2,0,.21-.42,0a2.43,2.43,0,0,1-1.9-.65,5.69,5.69,0,0,1-3.07-4.68,3.49,3.49,0,0,1,1.33-3.12c1.48-1.2,4-2.16,5.92-1.34,2.76,1.18,2,4.74.44,6.21a6,6,0,0,1-4.06,1.55c-1.65.11-2.75-.17-3.5-1.73-.68-1.4-.51-2.86,1.4-3.08C36.65,16.86,35.84,15.32,35.35,15.51Z"/><path class="cls-2" d="M35.36,15.14a3.78,3.78,0,0,0-2,3.88c.22,2.59,3,3.81,5.26,4.06,4.07.45,9-4.16,7.44-8.4-1.7-4.75-9.63-2.75-11.58.81-1.16,2.11-.5,4.78.85,6.65s4,3.73,6.32,3c.64-.2.94-.34,1.13-1a3.25,3.25,0,0,0-.33-2.05c-.63-1.68-1.68-3.08-3.53-3.38s-3.2.7-3.13,2.57c.09,2.52,2.54,3.67,4.68,4.34,1.2.39,3,1,3.83-.37a7,7,0,0,0,.26-5.4,3.68,3.68,0,0,0-2.86-1.94,2.52,2.52,0,0,0-2.26,1c-1.93,2.14-1.6,4.89-.76,7.44,0,.09.93-.43.73-.32,2.13-1.19,2.8-1.11,3.93-3A4.65,4.65,0,0,0,44.05,20c-.2-2.94-3.75-5.6-6.55-4.42-1.94.82-2.25,3.9-1.36,5.51s3.07,2.31,4.85,2.37,4.29-1.08,4.4-3.15a3.35,3.35,0,0,0-2.5-3.14c-1.82-.61-3.26.75-3.75,2.4-.67,2.31,1.2,4.07,3.56,4.06a3.67,3.67,0,0,0,3.69-3.06,3.88,3.88,0,0,0,.06-2.27c-.53-1.9-2.14-2.52-3.82-3.13-.27-.1-2.11,1.76-2.1,2.08a6.18,6.18,0,0,1-.22,2.8v.07a5.62,5.62,0,0,0,.52,1.36c.64,1.46,1.49,1.75,3.09,2,.28,0,2.22-.55,2.34-.89.83-2.35,1.21-1.68.52-3a4,4,0,0,0-2,.62c-.71.76-.67,1.39.11,1.87A3.1,3.1,0,0,0,47,23.37s1.17-2.44.94-2.73a5.41,5.41,0,0,0-1.77-1.85c-.11-.09-1.11,1.56-1.14,1.64a5.06,5.06,0,0,0-.12,5s1.78-1.74,1.87-2L48.45,20a13.73,13.73,0,0,0,.22-2.36,2.58,2.58,0,0,0-2.07,1c-.79.74-1.52,1.61-2.25,2.4l0,.08a9.7,9.7,0,0,0,4.29,2.43,8.28,8.28,0,0,0,.66-2.7,12.76,12.76,0,0,0-3.81-4.65,5.14,5.14,0,0,0-1.93,1.53,2.5,2.5,0,0,0,.3,2.09A7.14,7.14,0,0,0,45,21.69a2,2,0,0,1,.38,2.6,3.5,3.5,0,0,1-.42,1.64c-.27.84-.62,1.13,0,2,.72,1.11,2.06,1.17,3.23,1.15a11.68,11.68,0,0,0-.3-3.12c-.74.14-1.21.05-1.53-.74-.53-1.31,1.2-2.39,1.27-3.62a4,4,0,0,0-.94-2.09,5.21,5.21,0,0,1-1.13-3.29l-1.93,1.53a8.33,8.33,0,0,1,2.91,2.45,9.18,9.18,0,0,1,2.17,3.37l.66-2.7c-1.08-.13-3.14-.5-2.32-2.39L45.41,20.1a3.17,3.17,0,0,1,3,0l.22-2.36L45,25.31l1.87-2a4.91,4.91,0,0,1-.63-4.49L45,20.67a5.58,5.58,0,0,1,2,2.7L48,20.64c-1.14.27-1.54-.09-1.21-1.09l-2,.62-.89,3.21,2.29-.83-3.5.59L44.61,23l-3.07-.53,1.68.5-2.44-1.51,1.31,1.21-1.71-2.55.91,2.15-.52-3.63,0,1.88.72-3.66-.77,1.84,1.85-3.41-2,2,4.83-.31-2-.35,2.78,1.69-2-1.48,1.92,4.34-.4-1.81-.28,3,.49-2-1.55,2.75,1.51-2L43.12,23.2l1.37-1-3.17,1,1.84-.36-3.27-.31,2.16.58L39.3,21.57l2,1.59-1.19-4.68L40,20l1-2.5-.91,1.85,1.68-1.72L40.3,19l3-.67-1.09.05,2.24.65-1.66-.56.78.63L43,18.54c1.59,5.33-4.82-.27-5.13.15l.9-.92a5.68,5.68,0,0,1,5.06,2.15l-1.2-1.24,1.17,2.66-.67-2.15-.81,4.34.35-.94-2,2.86L42,23.92l-3.1,2.26,2.33-1.26a1.69,1.69,0,0,1-.69-1.44,1.71,1.71,0,0,1,.35-1.55c.15-.66-.1-1.75,1-1.07a1.73,1.73,0,0,1,.4,1.79c-.45,1.68-.34.72-.9.53-.74-.24-.89-.76-1.72-.59-.67.3-1.21.07-1.63-.68l.12-.54c.65-.48.72.29,1.07.61h.47a8.85,8.85,0,0,0,2.74,2.45l-1.79-2.07a5.67,5.67,0,0,1-3.16-1.64,3.42,3.42,0,0,1-.49-3.64,5,5,0,0,1,2.6-2.26c1.05-.35,4.17-.4,4,1.39l1.68-1.5c-1.39.26-2,.85-1.89,1.78a3.77,3.77,0,0,1-.41,2.4,2.92,2.92,0,0,1-1.68,1.37,3.54,3.54,0,0,0-2.13.53A2.08,2.08,0,0,1,36.4,19.4c-.4-1.21.41-1.78,1.46-1.77,0,0-1.16-1.29-1.18-1.31S35.56,15.05,35.36,15.14Z"/><path class="cls-2" d="M35.41,15.3a3.62,3.62,0,0,0-2.16,3.83c.21,2.6,2.83,4.07,5.16,4.45,4.34.71,9.46-4,8.12-8.47C45,9.93,36.44,11.5,34.34,15.48c-1.15,2.19-.57,5,.75,7s4.06,4,6.57,3.32c1.61-.45,1.44-1.76,1.08-3.16-.52-2-1.37-3.61-3.5-4-1.83-.34-3.48.59-3.55,2.55-.09,2.62,2.37,4.24,4.57,5.05,1.36.51,3.38,1.22,4.38-.26A7.53,7.53,0,0,0,45,20a3.36,3.36,0,0,0-5.4-1.21,5.11,5.11,0,0,0-1.43,2.55,9.23,9.23,0,0,0,.17,5.33h.07c2.65-.81,5-2.11,5.53-5.16a5.62,5.62,0,0,0-.76-3.86,5.24,5.24,0,0,0-3.79-2.35c-2.94.05-4.32,3.13-3.41,5.7.56,1.6,3.13,2.86,4.69,2.91a5.59,5.59,0,0,0,3.74-1.06,3.08,3.08,0,0,0-1-5.3c-2-.8-4.87,1.18-4.22,3.52A3.75,3.75,0,0,0,45.07,23a4.27,4.27,0,0,0,1.6-3.76c-.39-2-1.7-2.9-3.38-3.75l0,0c-1.25,1.51-2.9,3.36-2.41,5.52A2.9,2.9,0,0,0,42.2,23c1.11.65,1.94.31,2.48-1,.17-.19-1.12-1.41-1.15-1.38l-.68.95c-.08.12.21.34.28.39a5.53,5.53,0,0,0,3.58,2c-.07,0-.34-1.58-.51-1.76A3.46,3.46,0,0,0,44.65,21a.09.09,0,0,0-.12.05,14,14,0,0,0-.47,1.68,4.39,4.39,0,0,0,.6,3.2.22.22,0,0,0,.15-.13,22.86,22.86,0,0,0,3.38-5.05c.09-.16-.63-.95-.76-1-1.72-.05-2.15.73-3.23,1.95v.05a8.24,8.24,0,0,0,4.28,2.36,7.48,7.48,0,0,0-.19-1.73,17.26,17.26,0,0,0-5.19-3.93c-.09,0-.15,0-.15.13a4.7,4.7,0,0,0,1,3.15,7.85,7.85,0,0,1,1.5,2.84l.15-1.68a30.18,30.18,0,0,1-.87,3.23,4.39,4.39,0,0,0-.34,1.3c.13,1.94,2.3,2.28,3.77,2.25,0,0-.24-2.3-.56-2.3-1.71,0-2.42-1.08-2.22-2.79l-.56,1.75a6.13,6.13,0,0,0,.83-2.57c.09-1.64-.18-1.42-.75-2.2-.38-.38-.77-.75-1.16-1.11q3.33-2.27,4.65,3.62l-.19-1.73c-.78,0-3.47-.19-2.58-2l-.42.41,2.91,0-.76-.95a17.56,17.56,0,0,1-2.25,5l.28-.37-1-2.21-.12.48,2.32,1.1-.43-1.63L43,21.56l.36.45L44,20.72l-1.17,0L44.61,22l-1.08-1.37c-.31.91-.75,1.09-1.29.54a.94.94,0,0,1-.16-1c-.09-1.35.41-3.82,2.12-2.38a3.32,3.32,0,0,1,.61,3.14l-.56.59a5.27,5.27,0,0,0-1.66.65c-1,.18-1.33-.56-1.63-1.36-.24-.64-.66-1.33.09-1.89a3.09,3.09,0,0,1,2.57.31c.46.4.19,1.67-.12,2.13-.8,1.21-2.47.77-3.63.68a2.82,2.82,0,0,1-2.57-2.17,2,2,0,0,1,1.44-2.83c1.13-.35,1.67.19,2.49.94s1.5,1.39,1.41,2.69a8.71,8.71,0,0,0-.4,1.75c0,1.35-1,1.82-3,1.38-.45-.88.56-3.12,1.1-3.86s1.8-.5,2.46,0c1.13.89,1,2.3.65,3.54S43,25.55,41.12,25l-2.69-1.53a2,2,0,0,1-1-1.48c-.39-.65-.66-.93.07-1.57,1.52-1.35,3.45.5,3.55,2.16.08,1.35.15,1.16-.63,1.25-1.36.17-2.87-1.15-3.68-2.09-2.07-2.4-1.94-6,1.11-7.48,1.39-.66,3.35-1.19,4.85-.6,2.59,1,2.3,3.64,1.39,5.32a5.62,5.62,0,0,1-3.5,2.64,6.21,6.21,0,0,1-3.79-.15c-2-1-2.59-4.41.08-4.77C36.65,16.73,35.85,15.12,35.41,15.3Z"/><path class="cls-2" d="M35,15.37a4.42,4.42,0,0,0-2.46,4.5c.29,2.62,2.55,4.14,5,4.77,5.39,1.42,12.07-4.75,9.31-10.23-2.25-4.47-9.23-3.4-12.13-.19A6.87,6.87,0,0,0,33,19.78,9.48,9.48,0,0,0,36,25c1.51,1.48,4.36,2.6,6.48,1.81s1.26-3.29.67-4.72c-.32-.78-1.29-2.82-2.08-3.34a5.49,5.49,0,0,0-2.93-.52,3.23,3.23,0,0,0-3.19,3.48,4.44,4.44,0,0,0,1.87,3.9,11.09,11.09,0,0,0,5.72,2.19,3.07,3.07,0,0,0,1.87-.13c2.43-1.24,2-6.24.93-7.95a4.53,4.53,0,0,0-4.46-2.2,5.18,5.18,0,0,0-2.43,1.85c-2,2.48-1.4,5.51-.54,8.32,0,0,.06.09.09.08A10.52,10.52,0,0,0,42.05,26c.89-.72,2.27-1.95,2.52-3.08a7,7,0,0,0-.24-3.72c-1-2.64-3.23-4.48-6.17-4-2.67.48-4,4.36-2.87,6.73.6,1.26,2.2,2.12,3.4,2.64a6,6,0,0,0,4.78,0c1.23-.49,2.89-1.51,2.91-3a5,5,0,0,0-3.5-4.64c-1.28-.29-3,1.19-3.72,2.18a4.31,4.31,0,0,0-.85,2.72,4.56,4.56,0,0,0,.87,1.49A5.49,5.49,0,0,0,42.25,25c2.33.51,4.54-1.62,5-3.81,0-.2.17-1.47.16-1.69-.13-2.12-2.62-3.48-4.18-4.27a0,0,0,0,0-.05,0c-1.13,1.33-3,3.29-3.14,5.22a4.36,4.36,0,0,0,.87,2.72c.88,1.19,1.2,1.07,2.52,1.47a.11.11,0,0,0,.08,0l1.62-1.53a.08.08,0,0,0,0-.1l-.5-1.72s-.15.06-.16.06l-.86.62s-.09.12-.06.16c1.79,2.48.75,1.48,3.21,3.13.13.09.17-.08.14-.17-1-2.27-.4-1.26-1.88-3.13,0,0-.15-.1-.17-.07a6.37,6.37,0,0,0-.67,5.23c0,.05.13.09.16.05a28.55,28.55,0,0,0,4.27-5.68c0-.05,0-.09,0-.1a8.53,8.53,0,0,0-2-.27,3.91,3.91,0,0,0-3,1.34s0,.08,0,.09a11.44,11.44,0,0,0,5.06,2.87.12.12,0,0,0,.12-.17,13.22,13.22,0,0,0-2.48-3.66,10.44,10.44,0,0,0-3.14-2.81.7.7,0,0,0-.18,0,4.17,4.17,0,0,0,0,1.61,9.08,9.08,0,0,0,1.39,2.91c1.1,2.61.53,3.2,0,4.85-.24.71-.32.74.29,1.56,1,1.3,2.43,1.28,3.85,1.23.16,0,.2-.64.06-.64a4.06,4.06,0,0,1-2.58-.4l-.77-2.95c0-.37.39-.73.42-1.13a3.59,3.59,0,0,0-.7-2q-.56-1-1.17-2c.93-1.65,1.75-1.71,2.44-.16q2.39,2.33-1.17,0-1.52,9.95-3-4.69l3-.62a5.76,5.76,0,0,1,2.18,3.2l-.82,3q-3,4.84-4.77-5.2c2,0,3.76.7,4.32,2.79a3,3,0,0,1-1.49,3.61,44.13,44.13,0,0,1-4.32,3.23q-4.76-8.62,1-8.85a2.39,2.39,0,0,1,3,.57c2.23,2.07,2.25,4.09.06,6-.37,2.58-1.57,3.38-3.59,2.42q-7-9.76-.85-8.64L43,22.18c.9,2.83.42,4.27-1.45,4.34l-1.91-.11a7.58,7.58,0,0,1-4.72-3.15q-5-6.53,7.36-11.65,8.15,7.13,1.51,10.65a5.68,5.68,0,0,1-4.32,2.35q-8.81-.46-4.26-9C35.35,15.54,35.08,15.32,35,15.37Z"/><path class="cls-2" d="M41.53,21.25a3.6,3.6,0,0,0-5.35-.39,5.46,5.46,0,0,0-1.48,6c1,2.32,3.75,2.34,5.85,1.77a20.13,20.13,0,0,0,5.1-2.33,9.19,9.19,0,0,0,2.62-2.18c1.72-2.38.36-5.42-1.51-7.23-2.09-2-4.74-3.09-7.6-2.27A6.36,6.36,0,0,0,35.51,17a6.36,6.36,0,0,0-.67,3.88,6.56,6.56,0,0,0,6,5.52c1.73.21,4.22.11,5.1-1.68,1.12-2.27-2.45-4.74-4.12-5.56s-4.19-1.52-6-.58-2.35,3.71-1.92,5.67a5.4,5.4,0,0,0,4.55,4.4c2.12.35,4.5-.37,5.39-2.49.82-2-.21-4.2-1.71-5.52A4.07,4.07,0,0,0,38,20a5.84,5.84,0,0,0-3.24,2.57c-.09.12,1.79,2.15,2.1,2.09a5.21,5.21,0,0,0,2.82-1c.23-.12-.72-2.34-.77-2.31a6.77,6.77,0,0,1-4.15,1.17l2.1,2.09c.39-1.69,1-2.31,2.77-2,1,.2,1.87.55,1.92,1.73.13.62,0,1-.5,1.23,0,.37-.18.52-.54.43-1.18.81-1.89.4-3-.3-1.6-1-1.93-4.71.46-4.82A.91.91,0,0,1,39,21a2.38,2.38,0,0,0,1.91.56,3.45,3.45,0,0,1,1.88,1.52,9.08,9.08,0,0,0,2,0l-1.18,0,1.41.65-1.19-.66.09.78-.29,0a3.53,3.53,0,0,1-3.1.61,4.35,4.35,0,0,1-3.18-3.6,3.57,3.57,0,0,1,3.28-3.51,6,6,0,0,1,5.32,3.11,2.67,2.67,0,0,1-.78,3.78,3,3,0,0,1-1.14.61,10.81,10.81,0,0,1-2.79.83l-.74.85-2.5.83a3.46,3.46,0,0,1-.51-.57c-.51-.69-1.16-1.61-.58-2.46a2.2,2.2,0,0,1,1.77-.85c.78.08.94.49,1.14,1.21,0-.08,1-1.61,1-1.65S41.68,21.44,41.53,21.25Z"/><path class="cls-2" d="M41.62,21.75a3.55,3.55,0,0,0-5.24-.41,5.35,5.35,0,0,0-1.57,5.78c.88,2.31,3.6,2.48,5.71,2a17.89,17.89,0,0,0,5.39-2.35,9.15,9.15,0,0,0,2.64-2.27c1.69-2.45.25-5.45-1.66-7.25A7.77,7.77,0,0,0,39.31,15,5.56,5.56,0,0,0,35,21.18a6.65,6.65,0,0,0,5.88,5.68c1.75.27,4.35.24,5.29-1.58C47.3,23,43.66,20.45,42,19.6s-4.12-1.5-6-.59-2.42,3.58-2.06,5.56a5.51,5.51,0,0,0,4.5,4.58c2.18.42,4.69-.29,5.6-2.49.84-2-.3-4.32-1.84-5.65a4.13,4.13,0,0,0-4.07-.6A5.7,5.7,0,0,0,34.93,23a5.06,5.06,0,0,0,1.74,1.58,5.65,5.65,0,0,0,3-1c.21-.11-.51-1.8-.58-1.76A7.13,7.13,0,0,1,34.93,23l1.74,1.58c.42-1.61,1.16-2.58,3-2.15a2.32,2.32,0,0,1,1.84,1.15,2.73,2.73,0,0,1,.22,2.35A3.52,3.52,0,0,1,39.38,27c-1.3.14-2.88-1.29-3.27-2.44a3.5,3.5,0,0,1,.13-2.49c.17-.86.64-1.27,1.39-1.22A1.37,1.37,0,0,1,39,20.83a4.32,4.32,0,0,0,2.12.77,4.78,4.78,0,0,1,2.17,1.93c.88.39,1,.69.39.92a2,2,0,0,0-1.75.36,3.53,3.53,0,0,1-2.44-.47C38.08,23.47,36.53,21.79,37,20a4,4,0,0,1,3.48-2.95c3.13-.12,8.17,3.6,5.45,6.93a6.85,6.85,0,0,1-2.31,1.53,4.77,4.77,0,0,0-3.7,1.55,2.61,2.61,0,0,1-1.71.54,1.3,1.3,0,0,1-1.16-1.07A1.15,1.15,0,0,1,36.43,25a1.68,1.68,0,0,1,1-1.58,1.48,1.48,0,0,1,2.43.89C39.8,24,42,22.21,41.62,21.75Z"/><path class="cls-2" d="M41.73,20.45c-2.36-3.14-6.42-1.13-7.77,1.89-.9,2-1,5,1.3,6.21a9.29,9.29,0,0,0,7.12.22A26.12,26.12,0,0,0,48,25.23a6.83,6.83,0,0,0,2-3.1c.51-1.81-.8-4.25-1.88-5.57a10.21,10.21,0,0,0-6.28-3.49c-3.45-.33-7.21,1.62-7.88,5.19a7.32,7.32,0,0,0,5.62,8.53c2.15.5,4.4.61,6.23-.79,4.44-3.41-3.29-8.28-6.06-8.91-3.23-.73-6.41.65-7,4.09a7.27,7.27,0,0,0,2.65,7.12c3.41,2.37,9.44,1,9.83-3.66a6.44,6.44,0,0,0-4.4-6.16,6.47,6.47,0,0,0-3.9.54c-1.67.78-1.81,1.28-2.9,2.68-.05.07.13.39.21.37,3.22-.65,1.73-.18,4.67-1.44.12-.05.07-.23-.05-.18L34,21.66l.21.37q6-5.37,9.31-.84l.93,1.66-10.2,3.92c-2.14-3-1.33-8.22,2.47-9.14a8,8,0,0,1,2.88-.05q7,1.25-2.07,8.17a5.77,5.77,0,0,1-3.25-5.09,3.57,3.57,0,0,1,1.86-4.14,4.19,4.19,0,0,1,3.63-2.59,6.53,6.53,0,0,1,4.11.41c2.5,1,5,3.17,5.52,5.92A6.62,6.62,0,0,1,46.3,26.2q-18.22.45-9.28-5.85a3.36,3.36,0,0,1,4.07,1.46C41,21.74,42,20.73,41.73,20.45Z"/><path class="cls-2" d="M41.84,21.69a4.47,4.47,0,0,0-6.88.2c-1.4,1.69-2.21,4.75-1.05,6.8,1.58,2.78,6,2.3,8.42,1.46,1.92-.64,5.58-2.91,6.88-4.92a4.16,4.16,0,0,0,.67-3.72c-1.24-6-9-9.17-13.87-5.36-2.4,1.88-2.7,5.14-1.57,7.84,1.21,2.87,4.16,4.34,7.17,4.5,2,.1,4.94-.47,5.45-2.82.63-2.93-2.85-5.23-5-6.27s-4.86-1.71-7-.49a5.69,5.69,0,0,0-2.54,5.59,6.67,6.67,0,0,0,6.59,6.32,5.61,5.61,0,0,0,5.66-3.4c1.12-2.87-1-6.85-4.09-7.59a6.89,6.89,0,0,0-4,.65c-1.64.81-1.74,1.24-2.83,2.62a.08.08,0,0,0,.07.13c3.36-.48,1.77-.06,4.83-1.26,0,0,0-.2,0-.18L40.71,20c3,1.23,4.26,3.12,3.83,5.67q.72,4.11-5.15,1.94c-2.92,1.75-4.78,1.58-5.56-.51a5.63,5.63,0,0,1-.9-2.69l.52-3.58.73-.95L46.65,24l-3.44-4.66q-7.59-8.71,1.45-1.27,7,1.37,4,5.8a4.3,4.3,0,0,1-2.39,3.57L40.57,30.2a10.44,10.44,0,0,1-3.57,0q-4.11-.56-.24-5.16c-.2-4.9,1.43-5.93,4.86-3.09C41.72,22.08,41.93,21.79,41.84,21.69Z"/><path class="cls-2" d="M41.4,22a3.51,3.51,0,0,0-5.16-.44,5.37,5.37,0,0,0-1.52,5.77c.88,2.34,3.65,2.38,5.73,1.86a18.32,18.32,0,0,0,5.27-2.38,9.17,9.17,0,0,0,2.59-2.25c1.64-2.4.19-5.36-1.69-7.11a7.7,7.7,0,0,0-7.43-2.17,5.47,5.47,0,0,0-4.31,6A6.53,6.53,0,0,0,40.75,27c1.78.27,4.32.2,5.23-1.65,1.13-2.32-2.58-4.76-4.29-5.54s-4-1.38-5.83-.49c-2,1-2.4,3.5-2,5.45a5.42,5.42,0,0,0,4.51,4.51c2.18.41,4.69-.31,5.52-2.57.72-2-.38-4.19-1.92-5.46a4.09,4.09,0,0,0-4-.53,5.83,5.83,0,0,0-3.13,2.56c-.08.11,1.79,2,2.1,2a6.58,6.58,0,0,0,3.2-1.11A6,6,0,0,0,39,22a7.36,7.36,0,0,1-4.2,1.24l2.1,2c.16-1.56.55-2.5,2.25-2.27,1,.14,2,.39,2.13,1.59.18,1.73-1.54,2.34-3,1.72a2.87,2.87,0,0,1-2.06-2.75,2,2,0,0,1,1.68-2.09.56.56,0,0,1,.73,0,1.69,1.69,0,0,0,1.85.43,3.41,3.41,0,0,1,2,1.29,9.14,9.14,0,0,0,2.67.33l-1.85-.32,2.13,1.27-1.87-1.23,0,.74-.37-.06a3.16,3.16,0,0,1-2.87.41,7.22,7.22,0,0,1-1.87-1.36,2.54,2.54,0,0,1-1.1-2.62,6.69,6.69,0,0,1,1.13-1.9A2.83,2.83,0,0,1,41,17.69a6,6,0,0,1,4.87,3.12c.81,1.43-.22,2.9-1.4,3.7a10.19,10.19,0,0,1-2.49,1,1.55,1.55,0,0,0-1.59.8c-.49.42-.74.93-1.42,1.12s-1,0-1.36-.64-1.29-1.35-.74-2.26a2,2,0,0,1,1.67-.88c.77.08.92.39,1.13,1.13l1-1.31C40.64,23.38,41.53,22.18,41.4,22Z"/><path class="cls-2" d="M41.54,21.49a3.57,3.57,0,0,0-5.29-.38A5.41,5.41,0,0,0,34.77,27c1,2.32,3.7,2.31,5.79,1.74a19.63,19.63,0,0,0,5.15-2.33,9.26,9.26,0,0,0,2.62-2.2c1.69-2.38.31-5.4-1.57-7.18-2.09-2-4.72-3-7.55-2.21s-4.7,3.12-4.28,6.19a6.54,6.54,0,0,0,5.94,5.51c1.75.23,4.23.13,5.13-1.67,1.14-2.28-2.51-4.74-4.19-5.53s-4.13-1.45-6-.52-2.34,3.63-1.93,5.57a5.39,5.39,0,0,0,4.52,4.4c2.13.37,4.55-.34,5.41-2.51.79-2-.27-4.18-1.78-5.47a4.06,4.06,0,0,0-4-.57,5.78,5.78,0,0,0-3.19,2.57c-.1.13,1.77,2.2,2.07,2.14A5.41,5.41,0,0,0,39.8,24C40,23.9,39,21.61,39,21.63a7,7,0,0,1-4.15,1.2L36.91,25c.28-1.65.8-2.38,2.51-2.1,1,.15,1.9.33,2,1.58A1.86,1.86,0,0,1,40.67,26a2,2,0,0,1-2.51,0c-1-.62-1.85-1.29-1.81-2.59,0-1.07.75-2.32,1.91-2.31l.59.13a1.84,1.84,0,0,0,1.84.47,3.16,3.16,0,0,1,1.91,1.36,11.49,11.49,0,0,0,2.69.08L43.41,23l2.12,1.06L43.66,23c.33.64.26.87-.19.69a3.79,3.79,0,0,1-2.4.77,5.43,5.43,0,0,1-3-1.82c-1.22-1.28-.64-3.18.45-4.31s2.52-.81,3.88-.51c2.61.57,5.47,4.28,2.58,6.32a4.48,4.48,0,0,1-1.74.88,2.54,2.54,0,0,0-2.89,1.43c-1.24,1.36-2.13,1.49-2.66.41a3.57,3.57,0,0,1-1-.43l.23.22c-.31-1.31-.3-2.81,1.27-3.1.9-.17,1.27.44,1.48,1.2,0-.06,1-1.56,1-1.58S41.69,21.68,41.54,21.49Z"/><path class="cls-2" d="M41.59,21.78a4,4,0,0,0-6.21,0,6.19,6.19,0,0,0-1.4,5.5c.67,2.3,3.42,2.85,5.52,2.7A12.43,12.43,0,0,0,46,27.39,11.27,11.27,0,0,0,48.74,25c2.13-2.8-.23-6.81-2.55-8.6-2.71-2.1-6.95-2.76-9.79-.41a6.33,6.33,0,0,0-1.17,8.34,8,8,0,0,0,8.93,3.17c2.25-.72,2.88-2.66,1.62-4.7A11.17,11.17,0,0,0,40.92,19a5.41,5.41,0,0,0-2.56-.74,4.75,4.75,0,0,0-5,3,6.85,6.85,0,0,0,2,7.65,6.31,6.31,0,0,0,8-.53A4.14,4.14,0,0,0,44.53,25a6.11,6.11,0,0,0-2.17-4.14,5,5,0,0,0-3.51-1c-2.06.12-3.37,1.51-4.53,3-.07.1.76.32.84.3a8.05,8.05,0,0,0,3.19-1.42c.17-.09-.24-.11-.34-.05a5.42,5.42,0,0,1-3.65,1.14l.83.29c1.18-1.62,3.09-3.21,5.31-2.46,2.68.9,4.11,5.12,1.7,7.19a5.34,5.34,0,0,1-3.39.93,5.13,5.13,0,0,1-4.36-3.62,6.12,6.12,0,0,1-.11-3.26q4.35-5.78,9.3-.24c.88.92,2.13,2,1.62,3.41s-2.62,1.5-3.91,1.43a6.54,6.54,0,0,1-5.2-3A5.25,5.25,0,0,1,36,17.72a6.59,6.59,0,0,1,6-2.39c3.89.54,8.3,5.63,5.45,9.39a9,9,0,0,1-2.55,2,12.13,12.13,0,0,1-5,2A5.53,5.53,0,0,1,35.82,28c-3.75-3.08,2.58-9.47,5.06-5.13C40.87,22.84,41.77,22,41.59,21.78Z"/><path class="cls-2" d="M41.93,20.87c-1.74-2.3-4.79-1.93-6.62.07a6.25,6.25,0,0,0-1.17,6.72c1.06,2.18,4.82,2.23,6.68,1.87a15.36,15.36,0,0,0,7.37-4c1.43-1.33,2.45-2.94,1.91-5a9.42,9.42,0,0,0-3.6-5.23A8.41,8.41,0,0,0,38,14.12a5.9,5.9,0,0,0-3.83,4.51c-.28,2.1.09,4.77,1.69,6.31A9.25,9.25,0,0,0,43,27.36c1.7-.11,3.87-.82,4.27-2.76.5-2.49-2.17-4.48-3.86-5.54-2.79-1.74-7.94-3.14-9.91.66a7.36,7.36,0,0,0-.26,5.73,6.41,6.41,0,0,0,6.16,4.3,5.62,5.62,0,0,0,5.24-2.68,4.46,4.46,0,0,0,.44-4A6.54,6.54,0,0,0,41,18.91a5.28,5.28,0,0,0-2.06,0c-2.19.31-3.46,1.53-4.78,3.22-.05.06.09.32.17.3,3.23-.64,1.73-.18,4.71-1.42.12,0,0-.17-.1-.13L34.25,22l.17.31q2.44-3.9,7.93-2.12a6.91,6.91,0,0,1,2.24,3q1.56,6.38-7.1,5.95-7.18-7.42-2-10.77c2-1.14,4.65-.52,6.6.4Q49,21.45,37.81,26A6.48,6.48,0,0,1,34.52,21q-.83-6.85,9.51-6.32a11,11,0,0,1,3.75,2.67,9,9,0,0,1,1.74,3.29c.64,2.45-.4,4.41-3.1,5.87a11,11,0,0,1-9.23,2.79q-5.8-5.45,0-8.7a3.41,3.41,0,0,1,4.08,1.53S42.12,21.12,41.93,20.87Z"/><path class="cls-2" d="M41.55,22.11a3.52,3.52,0,0,0-5.17-.51,5.47,5.47,0,0,0-1.89,5.67c.71,2.44,3.8,2.79,6,2.48A14.48,14.48,0,0,0,46,27.31,9.57,9.57,0,0,0,48.64,25c1.71-2.5.21-5.52-1.7-7.38a8,8,0,0,0-7.67-2.4,5.76,5.76,0,0,0-4.64,6.19c.27,3.3,2.83,5.5,6,6.07,1.82.34,4.57.36,5.51-1.57,1.13-2.35-2.37-5-4.1-6s-4.14-1.68-6.09-.77c-2.12,1-2.66,3.64-2.34,5.74a5.56,5.56,0,0,0,4.62,4.9c2.26.43,4.87-.29,5.85-2.56.87-2-.25-4.51-1.79-5.93a4.19,4.19,0,0,0-4.12-.74,5.76,5.76,0,0,0-3.31,2.56,5.33,5.33,0,0,0,1.5.62,5.55,5.55,0,0,0,2.78-1.58c.12-.09-.12-.38-.25-.32a7.13,7.13,0,0,1-4,1.25l1.51.62c.75-1.57,1.95-2.49,3.77-1.79,1.46.55,3,2.91,2.06,4.5a2.66,2.66,0,0,1-2.15,1.12,2.74,2.74,0,0,1-2.19,0A6.51,6.51,0,0,1,36,26c-1.27-1.77-1.08-5,1.39-5.84a7.26,7.26,0,0,1,4.21,1.2A7.49,7.49,0,0,1,44,24.05c.61,1.08-.06,1.25-1,1.26a5,5,0,0,1-2.91,0,3.51,3.51,0,0,1-1.89-1.16c-1.3-1.25-2.3-2.71-1.72-4.62a4.52,4.52,0,0,1,4.19-3.14c3.55-.11,8.81,4.32,5.88,8A7.57,7.57,0,0,1,44.09,26c-1.38.65-2.78,1.24-4.22,1.75-1.25.33-3.62.19-3.93-1.52.07-.66.12-1.33.14-2a2.13,2.13,0,0,1,1.56-1.53c1.3-.57,2.19-.28,2.7,1C40.28,23.61,41.8,22.44,41.55,22.11Z"/><path class="cls-2" d="M41.43,21.77a3.54,3.54,0,0,0-5.22-.42,5.37,5.37,0,0,0-1.5,5.84c.92,2.33,3.68,2.34,5.76,1.79a19.29,19.29,0,0,0,5.21-2.35,9.37,9.37,0,0,0,2.59-2.22c1.66-2.39.25-5.36-1.62-7.13a7.7,7.7,0,0,0-7.48-2.2c-2.86.81-4.69,3.07-4.3,6.11a6.51,6.51,0,0,0,5.91,5.56c1.76.25,4.27.16,5.17-1.67,1.13-2.28-2.54-4.73-4.23-5.51s-4.09-1.42-5.89-.51c-2,1-2.38,3.56-2,5.51A5.42,5.42,0,0,0,38.36,29c2.15.39,4.61-.34,5.45-2.55.75-2-.32-4.17-1.84-5.44a4.1,4.1,0,0,0-4-.56A5.81,5.81,0,0,0,34.79,23c-.08.11,1.83,2.1,2.14,2A6.13,6.13,0,0,0,40,24a6.52,6.52,0,0,0-1-2.22A7.13,7.13,0,0,1,34.79,23l2.14,2c.21-1.61.65-2.4,2.35-2.15,1,.14,1.93.28,2,1.54a2,2,0,0,1-.71,1.61A2,2,0,0,1,38.06,26c-1-.63-1.82-1.25-1.76-2.55a3,3,0,0,1,1-2.05,1,1,0,0,0,.88-.19l.56.14a1.68,1.68,0,0,0,1.83.45,3.13,3.13,0,0,1,1.94,1.29,10.06,10.06,0,0,0,2.69.22l-1.86-.25,2.12,1.17-1.84-1.17,0,.76-.32-.05a3.26,3.26,0,0,1-2.91.52c-1.47-.46-3.48-2.31-3-4A3.39,3.39,0,0,1,41,17.65a6,6,0,0,1,4.86,3.19c.77,1.43-.28,2.88-1.47,3.64a9.56,9.56,0,0,1-2.41.88,1.41,1.41,0,0,0-1.51.76c-.72.61-.77,1-1.8,1.14-.87.1-.7.17-1.16-.49s-1.22-1.43-.69-2.3a2.06,2.06,0,0,1,1.68-.87c.77.09.91.42,1.12,1.16,0,0,1-1.43,1-1.44S41.57,22,41.43,21.77Z"/><path class="cls-2" d="M41.69,21.88a3.57,3.57,0,0,0-5.24-.5,5.5,5.5,0,0,0-1.89,5.69c.73,2.44,3.8,2.82,6,2.52a14.39,14.39,0,0,0,5.53-2.44,9.52,9.52,0,0,0,2.7-2.31c1.74-2.51.25-5.56-1.68-7.43A8.09,8.09,0,0,0,39.34,15a5.79,5.79,0,0,0-4.65,6.25c.29,3.29,2.87,5.48,6,6.05,1.8.34,4.56.37,5.53-1.53,1.21-2.39-2.32-5.06-4.07-6.05S37.94,18,36,19s-2.65,3.68-2.32,5.79a5.66,5.66,0,0,0,4.62,4.89c2.29.45,4.88-.26,5.92-2.52.94-2.07-.22-4.58-1.78-6a4.2,4.2,0,0,0-4.19-.74,5.75,5.75,0,0,0-3.34,2.58,4,4,0,0,0,1.35.66,5.17,5.17,0,0,0,2.66-1.42c.09-.06.12-.55-.06-.46a6.68,6.68,0,0,1-3.9,1.2l1.36.66c.82-1.57,2.11-2.57,4-1.86,1.54.58,3.14,3,2.25,4.71C41.88,27.59,40.14,28,39,27.91a4.39,4.39,0,0,1-3.68-3.19c-.68-2.45,1-5.5,3.88-4.78,1.86.47,4.42,2.13,5.07,4,.35.14.42.37.21.68a.76.76,0,0,1-.74.82,7.49,7.49,0,0,0-2.21.18,5.2,5.2,0,0,1-2.89-.88c-1.68-1.15-2.91-3.24-2.29-5.3a4.65,4.65,0,0,1,4.3-3.23c3.67-.15,9,4.4,6.07,8.15a7.66,7.66,0,0,1-2.41,1.74,27.42,27.42,0,0,1-4.36,1.76c-1.31.3-3.7.08-4-1.65.06-.69.12-1.39.19-2.08a2.21,2.21,0,0,1,1.62-1.57c1.32-.56,2.21-.23,2.72,1.08C40.33,23.5,42,22.23,41.69,21.88Z"/><path class="cls-2" d="M41.9,21.9a4.07,4.07,0,0,0-3.63-1.62c-2.14.1-3.51,1.69-4.25,3.59-.84,2.13-.76,4.8,1.3,6.16,3.61,2.38,8.29,0,11.27-2.13,1.47-1,3.16-2.34,3.55-4.26a6.63,6.63,0,0,0-.82-3.92c-1.68-3.32-5.79-5.79-9.53-5.07a7.84,7.84,0,0,0-5,3c-1.21,1.92-.92,4.47-.18,6.48,1.3,3.49,6,5.16,9.42,4.31,2.94-.74,4.13-3.17,2.32-5.86-1.56-2.32-5.24-4.1-8-4.2a5,5,0,0,0-5.5,4.26,6.89,6.89,0,0,0,4.5,7.94c2.36.71,5.28.35,6.9-1.69A5.3,5.3,0,0,0,44,22.3,5.07,5.07,0,0,0,38.81,20c-2.25.37-3.43,1.55-4.73,3.22,0,0-.11.15,0,.14A10.91,10.91,0,0,0,39,22.09s0-.19,0-.19q-4.69,2.45,0-1.83l3.61,1q7.11,11.07-8.22,7.09l-.92-1.7q9-11.21,13.41-2.27l-5,4.06-2.14-.31L41.9,14.63a7.21,7.21,0,0,1,3.35,1.27,8.28,8.28,0,0,1,2.81,2.25Q51,21,48.78,24a4.27,4.27,0,0,1-2.41,3.56,10.24,10.24,0,0,1-6.55,2.87,7.72,7.72,0,0,1-2.71-.06c-3-1.46-4-3.3-3.17-5.54a5.49,5.49,0,0,1,1.31-2.81q3.78-3.11,6.46.08C41.8,22.24,42,22,41.9,21.9Z"/><path class="cls-2" d="M40.87,25.38V26s1.18-1,1.18-1c.23-.22,1-.76,1-1.14l.07-.44c0,.05-1.19.87-1.22.89S40.86,25.08,40.87,25.38Z"/><path class="cls-2" d="M40.92,25.83v.65c0-.05,1-1.08,1-1.11.24-.29.82-.81.89-1.23l.08-.46c0,.09-1,.95-1.08,1S40.92,25.5,40.92,25.83Z"/><path class="cls-2" d="M40.13,25.58l0,.64c0,.2.46-.08.45-.2l0-.64C40.55,25.18,40.12,25.46,40.13,25.58Z"/><path class="cls-2" d="M40.2,27v.66c0,.11.67-.51.68-.74l0-.64C40.9,26.13,40.2,26.72,40.2,27Z"/><path class="cls-2" d="M40.75,26v.65c0-.09,1.25-1.34,1.28-1.38.29-.34,1.05-1,1.14-1.51l.08-.46a12.39,12.39,0,0,1-1.33,1.28C41.75,24.8,40.74,25.64,40.75,26Z"/><path class="cls-2" d="M40.9,25.54l0,.65s1.2-1.12,1.21-1.13c.25-.27,1-.85,1.08-1.27l.07-.45a13.67,13.67,0,0,1-1.25,1C41.87,24.52,40.9,25.22,40.9,25.54Z"/><path class="cls-2" d="M40.42,26.47v.64s.53-.55.61-.65c.21-.27.73-.73.78-1.1l.06-.45C41.86,25,40.41,25.93,40.42,26.47Z"/><path class="cls-2" d="M40.38,25.92v.66c0,.18.5-.2.5-.34l0-.65C40.87,25.4,40.38,25.78,40.38,25.92Z"/><path class="cls-2" d="M40.67,26.45v.65a7.17,7.17,0,0,1,.76-.91c.29-.4,1-1,1-1.5l.09-.55a11.65,11.65,0,0,1-1,1.1C41.36,25.45,40.66,26.1,40.67,26.45Z"/><path class="cls-2" d="M40.78,25.78l0,.65c0-.06,1.25-1.24,1.27-1.26.27-.3,1-.94,1.13-1.4l.09-.45A16.1,16.1,0,0,1,42,24.48C41.8,24.65,40.77,25.43,40.78,25.78Z"/><path class="cls-2" d="M40.79,26.22v.64a8.11,8.11,0,0,1,.67-.77c.25-.33.83-.87.89-1.3l.06-.44c0-.22-.62.53-.69.61C41.5,25.22,40.78,25.83,40.79,26.22Z"/><path class="cls-2" d="M40.29,27.14v.67c0,.13.55-.39.55-.58v-.68C40.84,26.43,40.29,27,40.29,27.14Z"/><path class="cls-3" d="M43.82,78l-.16-2.69c0-.36,0-.72-.07-1.08a26.87,26.87,0,0,1,0-2.84A16.76,16.76,0,0,1,45,65.11a14.78,14.78,0,0,1,2.55-4,10.09,10.09,0,0,1,2.24-1.82c.92-.55,1.86-1.08,2.8-1.61a20.73,20.73,0,0,0,2.28-1.43,8.09,8.09,0,0,0,1.6-1.49,4.05,4.05,0,0,0,.52-.84,1.72,1.72,0,0,0,0-1.53,3.31,3.31,0,0,0-1-1.12,8.42,8.42,0,0,0-1.59-.94,30,30,0,0,0-3.11-1.22,27.5,27.5,0,0,1-3.71-1.57,12.77,12.77,0,0,1-2.47-1.64A7,7,0,0,1,42.82,42a14.15,14.15,0,0,1-.27-3.31.32.32,0,0,1,.33-.34c.22,0,.35.08.36.3a8.72,8.72,0,0,1,0,.88,12.6,12.6,0,0,0,.21,2.13,6.08,6.08,0,0,0,2.15,3.69,14,14,0,0,0,4.08,2.38c1.14.44,2.3.84,3.45,1.27a15.69,15.69,0,0,1,2.62,1.24,5.07,5.07,0,0,1,1.29,1,2.82,2.82,0,0,1,.55,3.12,4.23,4.23,0,0,1-.92,1.33,9.68,9.68,0,0,1-2.22,1.71c-.89.53-1.8,1-2.71,1.52a13.84,13.84,0,0,0-3.82,3,14.51,14.51,0,0,0-3,5.46,16.55,16.55,0,0,0-.64,3.28,22.65,22.65,0,0,0,0,3.59c.05.76.08,1.51.13,2.27a30.12,30.12,0,0,1,0,3.29,6.89,6.89,0,0,1-.34,2,3.09,3.09,0,0,1-1.45,1.73,6.76,6.76,0,0,1-2.43.8,19.81,19.81,0,0,1-3.61.11c-2-.08-3.89-.33-5.84-.56a28.43,28.43,0,0,0-3.91-.26,8.54,8.54,0,0,0-3.31.7A4.94,4.94,0,0,0,22,85.34a3.25,3.25,0,0,0-.51.72,1.3,1.3,0,0,0,.16,1.55,4.21,4.21,0,0,0,.73.67,6.58,6.58,0,0,0,2.47,1,15.33,15.33,0,0,0,3.88.3,25.63,25.63,0,0,0,8.74-1.93c1.69-.68,3.35-1.41,5-2.12a43.7,43.7,0,0,1,5.24-1.91,20.11,20.11,0,0,1,3.85-.72,17.57,17.57,0,0,1,3,0,15.67,15.67,0,0,1,4.23,1,7.89,7.89,0,0,1,1.84,1,7.14,7.14,0,0,1,.88.77A2.41,2.41,0,0,1,62.13,88a3.38,3.38,0,0,1-2.3,2.46,7.78,7.78,0,0,1-2.14.45,19.67,19.67,0,0,1-4.47-.23c-2.52-.38-5-.94-7.46-1.51a19,19,0,0,0-3-.51l-.62,0a.31.31,0,0,1-.31-.38.28.28,0,0,1,.3-.3c.24,0,.48,0,.72,0A25.43,25.43,0,0,1,47,88.7c1.39.32,2.78.66,4.17,1a29.18,29.18,0,0,0,3.73.56,14.87,14.87,0,0,0,3.4,0,4,4,0,0,0,2.25-.92,2.43,2.43,0,0,0,.87-1.79,2.12,2.12,0,0,0-.63-1.55,4.44,4.44,0,0,0-1.05-.77,10.67,10.67,0,0,0-2.9-1.08,15.3,15.3,0,0,0-4.15-.43,20.63,20.63,0,0,0-4.43.67A39.9,39.9,0,0,0,43,86.17c-1.88.78-3.75,1.56-5.64,2.31a27.17,27.17,0,0,1-5,1.47A19.94,19.94,0,0,1,28,90.3a20.93,20.93,0,0,1-2.73-.22,8.3,8.3,0,0,1-2.53-.75,4.53,4.53,0,0,1-1.48-1.12,2.42,2.42,0,0,1-.63-1.66A2.12,2.12,0,0,1,21,85.48a4.86,4.86,0,0,1,2.46-2,8.85,8.85,0,0,1,3-.57,29,29,0,0,1,4.56.25c1.35.16,2.7.32,4,.45a23.83,23.83,0,0,0,4.05.07,9.32,9.32,0,0,0,2.29-.4,3.09,3.09,0,0,0,2.3-2.77C43.74,79.68,43.8,78.86,43.82,78Z"/><path class="cls-3" d="M42.26,39.59a14.25,14.25,0,0,1-.41,3.2A6.84,6.84,0,0,1,38,47.36a21.53,21.53,0,0,1-2.95,1c-1.31.41-2.62.82-3.92,1.26a10.22,10.22,0,0,0-1.47.67,4,4,0,0,0-1.18.9,2.33,2.33,0,0,0-.66,1.38,2.07,2.07,0,0,0,.14.92,3.56,3.56,0,0,0,.64,1,13.78,13.78,0,0,0,1.92,1.82,29.88,29.88,0,0,0,7.3,4.33,8.49,8.49,0,0,0,2.73.63,3.16,3.16,0,0,0,1-.08,1.24,1.24,0,0,0,.66-.42,5.59,5.59,0,0,0,.5-.7c.75-1.39,1.49-2.77,2.21-4.16a9.29,9.29,0,0,0,.87-2.57,4.43,4.43,0,0,0,0-2A1.93,1.93,0,0,0,44.25,50a5.19,5.19,0,0,0-2-.12,2.46,2.46,0,0,0-2.07,1.77,3.79,3.79,0,0,0,0,2.26,9,9,0,0,0,1.46,2.85c.22.31.48.61.72.91a.36.36,0,0,1,0,.48.31.31,0,0,1-.51,0,2.26,2.26,0,0,1-.25-.28,10.31,10.31,0,0,1-2-3.45,5.28,5.28,0,0,1-.2-2.73,3,3,0,0,1,2.66-2.53,5,5,0,0,1,2.75.24,2.63,2.63,0,0,1,1.82,2.27,5.74,5.74,0,0,1-.15,2,15.62,15.62,0,0,1-1.18,3.09c-.66,1.33-1.41,2.61-2.19,3.87a2.77,2.77,0,0,1-2.48,1.35,7.46,7.46,0,0,1-2.76-.55,27.18,27.18,0,0,1-3.73-1.79,29.45,29.45,0,0,1-5.57-4,5.85,5.85,0,0,1-1-1.2,3.29,3.29,0,0,1-.54-1.63,2.62,2.62,0,0,1,.62-1.8,6.05,6.05,0,0,1,1.8-1.42,17.78,17.78,0,0,1,3.1-1.25c1.21-.38,2.43-.74,3.64-1.11a10.48,10.48,0,0,0,1.73-.71,6.25,6.25,0,0,0,3.28-4.22,13.94,13.94,0,0,0,.32-2.87q0-.41,0-.81a.31.31,0,0,1,.36-.31.28.28,0,0,1,.33.3C42.27,39,42.26,39.25,42.26,39.59Z"/></svg>
