<svg id="Layer_1" data-name="Layer 1" xmlns="http://www.w3.org/2000/svg" viewBox="0 0 194 175"><defs><style>.cls-1{fill:#fff;}.cls-2{fill:none;stroke:#fff;stroke-miterlimit:10;}.cls-3{fill:#f1c25a;opacity:0.11;}</style></defs><title>Artboard 11</title><path class="cls-1" d="M35.82,67.6V88.14H32.36v-44H48.14c8.67,0,13.25,4.65,13.25,11.56A10,10,0,0,1,53.16,66c4.53,1.06,7.54,4,7.54,11.49v1.7c0,3.08-.25,7.23.57,8.92H57.81c-.81-1.88-.63-5.4-.63-9.17V77.84c0-7.23-2.13-10.24-10.55-10.24Zm0-3.15H46.44c7.73,0,11.31-2.89,11.31-8.67,0-5.4-3.52-8.48-10.37-8.48H35.82Z"/><path class="cls-1" d="M67.56,59.77H69v2.86H67.56Zm0,7H69V81.49H67.56Z"/><path class="cls-1" d="M73.72,77.42a3.9,3.9,0,0,0,4.18,3.07c2.62,0,3.69-1.21,3.69-2.86s-.71-2.51-4-3.3c-3.8-.92-4.75-2.07-4.75-4s1.53-3.92,4.86-3.92,4.93,2,5.16,4.13H81.38a3.48,3.48,0,0,0-3.74-2.77c-2.57,0-3.3,1.26-3.3,2.44,0,1.36.7,2,3.62,2.74,4.16,1,5.19,2.36,5.19,4.57,0,2.68-2.18,4.33-5.28,4.33-3.36,0-5.24-1.77-5.66-4.42Z"/><path class="cls-1" d="M87.12,74.3c0,3.8,1.95,6.16,4.78,6.16a4.14,4.14,0,0,0,4.24-2.77h1.51a5.65,5.65,0,0,1-5.81,4.15c-4.48,0-6.22-3.86-6.22-7.6,0-4.22,2.09-7.84,6.4-7.84,4.54,0,6,3.92,6,6.69,0,.41,0,.83,0,1.21ZM96.47,73c0-2.92-1.62-5.22-4.51-5.22S87.54,69.91,87.21,73Z"/><path class="cls-1" d="M80.54,124.79C78.47,131.76,73.32,137,64,137c-12.63,0-19.29-10-19.29-22.43,0-11.88,6.53-22.68,19.35-22.68,9.49,0,15.08,5.27,16.52,12.63H77.21c-2-5.72-5.72-9.49-13.32-9.49-10.93,0-15.52,10-15.52,19.48s4.52,19.35,15.77,19.35c7.16,0,10.81-3.71,13-9.11Z"/><path class="cls-1" d="M103,118.83c0,1.93,0,5,0,5.76H101.1a31.15,31.15,0,0,1-.12-3.43c-.83,2.33-2.84,3.91-6.36,3.91-2.84,0-6.48-1.11-6.48-7.15V104.84h1.94v12.6c0,2.89.91,5.69,4.82,5.69,4.42,0,6.08-2.49,6.08-8.14V104.84h2Z"/><path class="cls-1" d="M109.43,110.21c0-3.31,0-4.74,0-5.37h1.94c0,.63.08,1.9.08,4.43a7.45,7.45,0,0,1,6.87-4.9v2.13c-4.11.28-6.87,3.12-6.87,7.82v10.27h-2Z"/><path class="cls-1" d="M121.8,110.21c0-3.31,0-4.74,0-5.37h1.93c0,.63.08,1.9.08,4.43a7.47,7.47,0,0,1,6.87-4.9v2.13c-4.1.28-6.87,3.12-6.87,7.82v10.27h-2Z"/><path class="cls-1" d="M135.3,104.84c4,11.3,5.73,16,6.4,18.09h0c.79-2.41,2.37-7,6.21-18.09H150l-7.43,20.9c-2.09,5.85-3.51,7.15-7.07,7.15a13.14,13.14,0,0,1-1.82-.12v-2a13,13,0,0,0,1.78.11c2.85,0,3.76-1.38,5.22-5.45l-7.55-20.62Z"/><rect class="cls-2" x="114.2" y="40.12" width="35.98" height="47.38"/><path class="cls-3" d="M141.45,55l2,.22c-.12,0-.66-.69-.81-.82-.35-.31-.9-1-1.37-1.13l-1.84-.38a14.41,14.41,0,0,1,1,1.12C140.56,54.18,141.1,54.94,141.45,55Z"/><path class="cls-3" d="M141.74,55.5l2,.22c-.09,0-1.07-1.15-1.12-1.19-.27-.26-.81-1-1.24-1.05l-1.74-.38c.09,0,.93,1.21,1,1.26C140.79,54.56,141.39,55.46,141.74,55.5Z"/><path class="cls-3" d="M142,55.33l2,.14c.26,0-.06-.36-.17-.36l-2-.13C141.56,55,141.86,55.32,142,55.33Z"/><path class="cls-3" d="M141.89,56.68l2,.23c.15,0-.31-.76-.5-.78l-2-.29C141.3,55.82,141.71,56.66,141.89,56.68Z"/><path class="cls-3" d="M141.57,55.63l2,.21c-.09,0-1.15-1.39-1.19-1.43-.26-.28-.89-1.21-1.33-1.31l-1.71-.38a16.88,16.88,0,0,1,1,1.51C140.53,54.43,141.22,55.6,141.57,55.63Z"/><path class="cls-3" d="M141.54,55.17l2,.21a16.56,16.56,0,0,1-1.17-1.2c-.29-.27-.85-1-1.29-1.06l-1.75-.38a13.86,13.86,0,0,1,1,1.28C140.54,54.23,141.17,55.13,141.54,55.17Z"/><path class="cls-3" d="M141.7,56.1l2,.2c-.35,0-.87-1.42-1.38-1.53l-1.73-.35C140.88,54.49,141.14,56,141.7,56.1Z"/><path class="cls-3" d="M142.15,55.59l2.07.23c.13,0-.31-.53-.48-.55L141.68,55C141.55,55,142,55.58,142.15,55.59Z"/><path class="cls-3" d="M141.77,56.11l2,.2c-.05,0-1-1.21-1-1.23-.23-.25-.73-1-1.13-1.1L140,53.59s.8,1.29.82,1.31C140.92,55.07,141.46,56.07,141.77,56.11Z"/><path class="cls-3" d="M141.51,55.38l2,.21c-.09,0-1.12-1.27-1.16-1.31-.27-.28-.86-1.09-1.3-1.18l-1.72-.38a13.77,13.77,0,0,1,1,1.39C140.5,54.31,141.15,55.34,141.51,55.38Z"/><path class="cls-3" d="M141.86,55.89l2,.21c-.05,0-.93-1.05-1-1.08-.25-.25-.71-.87-1.1-1l-1.68-.38c.05,0,.79,1.13.81,1.16S141.55,55.86,141.86,55.89Z"/><path class="cls-3" d="M142.06,56.83l2.06.23c.16,0-.28-.75-.47-.78l-2-.26C141.46,56,141.87,56.81,142.06,56.83Z"/><path class="cls-3" d="M142,50.22l1.37,0c-.12,0-.74-.65-.9-.76-.38-.28-1-.95-1.48-1l-1.25-.17a14.83,14.83,0,0,1,1.07,1C141,49.52,141.6,50.22,142,50.22Z"/><path class="cls-3" d="M142.25,50.73l1.38,0c-.08,0-1.16-1.07-1.21-1.11-.3-.24-.89-.89-1.32-1l-1.16-.17A15.23,15.23,0,0,1,141,49.7C141.22,49.88,141.9,50.73,142.25,50.73Z"/><path class="cls-3" d="M142.54,50.52l1.38,0c.27,0-.11-.36-.22-.35l-1.36,0C142.08,50.19,142.43,50.52,142.54,50.52Z"/><path class="cls-3" d="M142.45,51.88l1.43,0c.17,0-.32-.72-.5-.72l-1.4-.07C141.81,51.11,142.28,51.87,142.45,51.88Z"/><path class="cls-3" d="M142.08,50.86h1.38c-.08,0-1.26-1.3-1.3-1.33-.28-.26-1-1.12-1.42-1.19l-1.13-.17a14.24,14.24,0,0,1,1.16,1.41C140.93,49.75,141.72,50.86,142.08,50.86Z"/><path class="cls-3" d="M142,50.41h1.37a15,15,0,0,1-1.28-1.11c-.32-.25-.93-.89-1.39-1l-1.16-.16a12.92,12.92,0,0,1,1.17,1.17C141,49.56,141.67,50.41,142,50.41Z"/><path class="cls-3" d="M142.23,51.31h1.34c-.33,0-1-1.34-1.47-1.4L141,49.77C141.29,49.81,141.67,51.31,142.23,51.31Z"/><path class="cls-3" d="M142.69,50.78l1.43,0c.13,0-.38-.51-.56-.52l-1.4,0C142,50.23,142.51,50.78,142.69,50.78Z"/><path class="cls-3" d="M142.28,51.32h1.37s-1.05-1.14-1.06-1.16c-.25-.23-.8-1-1.19-1L140.32,49c.05,0,.89,1.21.91,1.23S142,51.32,142.28,51.32Z"/><path class="cls-3" d="M142,50.62h1.37c-.08,0-1.22-1.18-1.26-1.21-.3-.26-.94-1-1.39-1.08l-1.14-.16a14,14,0,0,1,1.14,1.29C140.91,49.64,141.66,50.61,142,50.62Z"/><path class="cls-3" d="M142.39,51.11h1.36c-.05,0-1-1-1-1-.27-.23-.77-.81-1.17-.87l-1.09-.17c.05,0,.87,1,.9,1.08S142.08,51.11,142.39,51.11Z"/><path class="cls-3" d="M142.62,52l1.45,0c.17,0-.3-.71-.47-.72l-1.45-.05C142,51.28,142.45,52,142.62,52Z"/><path class="cls-3" d="M139.48,41.62l.23-.9-1.93,2.64L140,40.89c-.15.17.85-1,.5-.74a6.5,6.5,0,0,0-3.08,4.49c0-.24.72-.89.9-1.14A7.1,7.1,0,0,0,139.48,41.62Z"/><path class="cls-3" d="M139.58,42.08l.26-1L138,43.19c.38-.36,2.17-2.45,2.65-2.56.09,0,0-.08-.16,0a6.73,6.73,0,0,0-2.9,3.73c0-.14.71-.69.85-.85C138.75,43.14,139.45,42.58,139.58,42.08Z"/><path class="cls-3" d="M139.75,40.9l.32-1-.63,1,.8-.7a8,8,0,0,0,.62-.88A3.41,3.41,0,0,0,139,41.9,5.59,5.59,0,0,0,139.75,40.9Z"/><path class="cls-3" d="M139.92,42.08l1-1.21c.13-.08.16-.31,0-.2-1,.6-.91.37-1.24,1.52C139.54,42.4,139.89,42.19,139.92,42.08Z"/><path class="cls-3" d="M139.2,42.56l.39-1.22-1.93,2.21c.5-.49,2.12-2.48,2.74-2.71l-.29.12c-1.43.65-2.32,2.39-2.83,3.68-.11.28.4-.28.43-.31A14,14,0,0,0,139.2,42.56Z"/><path class="cls-3" d="M139.49,41.86l.26-1-2.05,2.65,2.65-2.84c-.11.12.43-.49.12-.29a6.49,6.49,0,0,0-3.19,4.39c0-.22.76-.87.93-1.1C138.59,43.15,139.34,42.48,139.49,41.86Z"/><path class="cls-3" d="M139.61,42.11l.23-.88-.8.88L140.4,41c.09-.07.39-.47.08-.27-1.09.7-1.53,1-1.76,2.28C138.72,43,139.54,42.39,139.61,42.11Z"/><path class="cls-3" d="M140,41.21l.27-.92-.73,1,.93-.79c.07-.06.88-.93.49-.69a3.33,3.33,0,0,0-1.83,2.44S139.88,41.53,140,41.21Z"/><path class="cls-3" d="M139.44,42.57l.31-1-1.33,1.31s2.86-2.29,1.93-1.83a4.84,4.84,0,0,0-2.27,2.77C138.13,43.69,139.2,42.9,139.44,42.57Z"/><path class="cls-3" d="M139.37,42.12l.26-1-2,2.42c6.46-6.68-.21-.57-.41,1.23,0-.19.74-.8.89-1C138.51,43.31,139.23,42.69,139.37,42.12Z"/><path class="cls-3" d="M139.57,42.36l.33-1-1.4,1.42s2.95-2.45,2-1.92a5.44,5.44,0,0,0-2.36,2.89C138.21,43.56,139.31,42.72,139.57,42.36Z"/><path class="cls-3" d="M140,42.29l1.09-1.35c.17-.11.08-.27-.1-.16-1,.62-.89.44-1.29,1.58C139.59,42.55,139.92,42.4,140,42.29Z"/><path class="cls-3" d="M134.53,41.65l1.63-2.29a12.33,12.33,0,0,1-1.65.56,4.39,4.39,0,0,0-1.58.73l-1.68,2a12.28,12.28,0,0,1,1.67-.4C133.23,42.14,134.3,42,134.53,41.65Z"/><path class="cls-3" d="M134.75,42l1.62-2.28c0,.06-1.55.32-1.6.34-.34.09-1.28.2-1.55.52l-1.64,1.94s1.56-.16,1.6-.17C133.42,42.34,134.55,42.3,134.75,42Z"/><path class="cls-3" d="M135.18,41.15l1.66-2.33c0-.08-.69.13-.82.3l-1.67,2.27C134.29,41.47,135.06,41.32,135.18,41.15Z"/><path class="cls-3" d="M135.3,42.59l1.56-2.36c.11-.17-.43-.19-.5-.09l-1.55,2.36C134.7,42.67,135.23,42.69,135.3,42.59Z"/><path class="cls-3" d="M134.48,42.19l1.61-2.26c0,.06-1.66.28-1.7.29-.33.08-1.39.16-1.66.48l-1.63,1.92s1.66-.12,1.7-.12C133,42.47,134.28,42.47,134.48,42.19Z"/><path class="cls-3" d="M134.58,41.82l1.62-2.29a15,15,0,0,1-1.74.5c-.39.13-1.38.3-1.69.67l-1.66,2a13.3,13.3,0,0,1,1.76-.33C133.16,42.26,134.36,42.14,134.58,41.82Z"/><path class="cls-3" d="M134.82,42.32l1.55-2.17s-1.29,0-1.5.3l-1.55,1.94S134.61,42.6,134.82,42.32Z"/><path class="cls-3" d="M135.28,41.55l1.65-2.26a2.74,2.74,0,0,0-1.1.41l-1.66,2.07A1.82,1.82,0,0,0,135.28,41.55Z"/><path class="cls-3" d="M134.73,42.44l1.6-2.24-1.28.15c-.26,0-1,.08-1.24.32l-1.57,1.86s1.26,0,1.25,0C133.66,42.57,134.58,42.65,134.73,42.44Z"/><path class="cls-3" d="M134.47,42l1.62-2.27a17.35,17.35,0,0,1-1.7.39c-.36.1-1.37.24-1.65.57l-1.65,1.94a16.31,16.31,0,0,1,1.71-.22C133.06,42.37,134.26,42.3,134.47,42Z"/><path class="cls-3" d="M134.88,42.24,136.49,40l-1.29.21c-.29.06-1,.13-1.25.39l-1.59,1.88,1.27,0C133.82,42.44,134.72,42.47,134.88,42.24Z"/><path class="cls-3" d="M135.46,42.71,137,40.35c.11-.17-.41-.2-.47-.1L135,42.61C134.89,42.78,135.39,42.81,135.46,42.71Z"/><path class="cls-3" d="M125.15,41.22l-1.53-.51a18,18,0,0,1,.87,1.76c.2.35.62,1.46,1.05,1.68l1.22.6a14.82,14.82,0,0,1-.72-1.81C125.94,42.72,125.5,41.33,125.15,41.22Z"/><path class="cls-3" d="M125.37,41.79l-1.5-.52s.66,1.3.67,1.33c.18.29.49,1.07.84,1.24l1.23.59s-.52-1.33-.53-1.36C126,42.86,125.67,41.89,125.37,41.79Z"/><path class="cls-3" d="M124.93,40.42l-1.44-.53s.43,1.22.74,1.37l1.26.61S125.29,40.56,124.93,40.42Z"/><path class="cls-3" d="M124.86,41.65l-1.52-.42c-.23-.06-.06.32.06.35l1.5.4C125.13,42,125,41.68,124.86,41.65Z"/><path class="cls-3" d="M125.28,42l-1.51-.51a15.9,15.9,0,0,1,.84,1.44c.22.33.59,1.13,1,1.33l1.24.6a15.41,15.41,0,0,1-.7-1.48C126,43.16,125.62,42.13,125.28,42Z"/><path class="cls-3" d="M125.25,41.5,123.73,41c.09,0,.82,1.64.85,1.69.19.34.6,1.39,1,1.59l1.22.6a15.9,15.9,0,0,1-.7-1.72C126,42.93,125.59,41.61,125.25,41.5Z"/><path class="cls-3" d="M125,41.78l-1.44-.5s.54,1,.84,1.14l1.22.53S125.32,41.88,125,41.78Z"/><path class="cls-3" d="M125.19,40.83l-1.48-.55a2.27,2.27,0,0,0,.56,1.1l1.29.58C125.66,42,125.43,40.92,125.19,40.83Z"/><path class="cls-3" d="M125.24,42.1l-1.38-.47c-.25-.08.23.54.2.48a3.43,3.43,0,0,0,.92,1.14l1.2.54c.19.09-.21-.62-.24-.68C125.79,42.85,125.55,42.21,125.24,42.1Z"/><path class="cls-3" d="M125.22,41.76l-1.51-.51c.09,0,.83,1.51.87,1.57.21.33.61,1.26,1,1.46l1.23.6a14.26,14.26,0,0,1-.72-1.6C126,43,125.57,41.87,125.22,41.76Z"/><path class="cls-3" d="M125.31,41.88l-1.39-.47c.06,0,.64,1.51,1.06,1.7l1.18.54S125.77,42,125.31,41.88Z"/><path class="cls-3" d="M125.06,41.85l-1.6-.55c-.15,0-.14.2,0,.25l1.61.56C125.21,42.16,125.18,41.89,125.06,41.85Z"/><path class="cls-3" d="M123.64,45.41l-3.76,0a19.07,19.07,0,0,1,1.31,1.39c.24.22,1,1.21,1.45,1.25l3.47.26c-.07,0-1.14-1.47-1.16-1.49C124.8,46.6,124,45.41,123.64,45.41Z"/><path class="cls-3" d="M123.89,45.92l-3.75-.05s1,1,1.06,1c.23.2.8.85,1.17.87l3.51.24s-.92-1.09-.93-1.1C124.79,46.73,124.2,45.93,123.89,45.92Z"/><path class="cls-3" d="M123.28,44.66l-3.7-.08c-.06,0,.68,1,1,1l3.54.23C124.19,45.8,123.6,44.67,123.28,44.66Z"/><path class="cls-3" d="M123.14,45.92l-3.79,0c-.24,0,.07.32.18.32l3.81,0C123.58,46.24,123.26,45.92,123.14,45.92Z"/><path class="cls-3" d="M123.8,46.11l-3.75,0a14.73,14.73,0,0,1,1.28,1.09c.29.23,1,.91,1.39.94l3.52.25a16.15,16.15,0,0,1-1.16-1.18C124.88,47,124.16,46.12,123.8,46.11Z"/><path class="cls-3" d="M123.76,45.66l-3.75,0c.09,0,1.26,1.28,1.3,1.31.25.23,1,1.14,1.42,1.17l3.48.27c-.07,0-1.13-1.39-1.15-1.42S124.11,45.66,123.76,45.66Z"/><path class="cls-3" d="M123.44,46l-3.71,0s.86.84,1.22.85l3.54.17S123.77,46,123.44,46Z"/><path class="cls-3" d="M123.53,45,119.8,45c-.1,0,.54.76.79.77l3.55.19C124.28,45.93,123.74,45,123.53,45Z"/><path class="cls-3" d="M123.79,46.25l-3.71-.06c.1,0,1.17,1.14,1.67,1.16l3.51.21C125.2,47.56,124.24,46.26,123.79,46.25Z"/><path class="cls-3" d="M123.73,45.88l-3.75,0A16.79,16.79,0,0,1,121.3,47c.28.23,1,1,1.43,1.06l3.51.27c-.09,0-1.15-1.27-1.19-1.31C124.87,46.87,124.1,45.89,123.73,45.88Z"/><path class="cls-3" d="M123.78,46,120.14,46c-.26,0,.38.45.34.41.24.21.88.81,1.23.83l3.55.21C124.88,47.41,124.37,46,123.78,46Z"/><path class="cls-3" d="M123.39,46.1,119.45,46c-.17,0,0,.25.09.25l4,.12C123.72,46.38,123.52,46.1,123.39,46.1Z"/><path class="cls-3" d="M123.22,53.48l-.27.69,1.79-1.37-2.2,1.52c-.52.35,0,.13.3,0A7,7,0,0,0,125,53.05c.63-.75.46-.43.7-1.38,0,.06-1.24.81-1.27.83C124.09,52.72,123.37,53.1,123.22,53.48Z"/><path class="cls-3" d="M123.3,53.84l-.26.69,1.88-1.75s-3.44,2.47-2.26,2.07a5.37,5.37,0,0,0,2.72-3c0,.13-.72.58-.87.72C124.16,52.94,123.48,53.38,123.3,53.84Z"/><path class="cls-3" d="M122.48,53.6l-.92,1c-.18.1.34.07.47,0,.73-.47.55-.26.87-1.06C123,53.27,122.52,53.49,122.48,53.6Z"/><path class="cls-3" d="M122.56,55l-.6.71s-.62.63-.33.47a2.72,2.72,0,0,0,1.58-1.7C123.37,54.1,122.62,54.8,122.56,55Z"/><path class="cls-3" d="M123.14,54l-.3.78,2.38-2.29c-.61.52-2.28,2.36-3,2.6a2.9,2.9,0,0,0,.32-.13c1.24-.69,2.86-2,3.2-3.43,0,.19-.89.73-1.08.92C124.22,52.88,123.37,53.44,123.14,54Z"/><path class="cls-3" d="M123.26,53.65l-.27.68,1.84-1.56-2.24,1.68c-.53.4,0,.14.31,0A8,8,0,0,0,125.06,53c.62-.76.46-.44.7-1.41,0,.1-1.26.92-1.31,1C124.13,52.79,123.42,53.22,123.26,53.65Z"/><path class="cls-3" d="M122.77,54.48l-.27.67,1.37-1.34-1.62,1.31c.12-.09-.58.56-.33.43a4.24,4.24,0,0,0,2.36-2.48C124.24,53.19,123,54,122.77,54.48Z"/><path class="cls-3" d="M122.74,53.93l-.88,1c-.35.22.18.13.33,0a1.8,1.8,0,0,0,1-1.2C123.32,53.47,122.79,53.82,122.74,53.93Z"/><path class="cls-3" d="M123,54.45l-.27.67,1.76-1.88L122.64,55c.15-.13-.75.73-.44.56a5.47,5.47,0,0,0,2.77-3.1C124.9,52.68,123.3,53.79,123,54.45Z"/><path class="cls-3" d="M123.14,53.88l-.27.68,2.38-2.09-2.77,2.18c-.55.44,0,.14.33,0A9.63,9.63,0,0,0,125.06,53c.62-.77.46-.46.7-1.43a12,12,0,0,1-1.37,1.1C124.05,52.94,123.32,53.42,123.14,53.88Z"/><path class="cls-3" d="M123.15,54.23l-.26.67,1.54-1.59-1.73,1.51c.13-.11-.66.65-.39.49a4.82,4.82,0,0,0,2.54-2.78c.08-.3-.6.44-.52.36A5.2,5.2,0,0,0,123.15,54.23Z"/><path class="cls-3" d="M122.63,55.15l-.67.72c-.06,0-.49.55-.23.42a2.3,2.3,0,0,0,1.42-1.55C123.28,54.46,122.69,55,122.63,55.15Z"/><path class="cls-3" d="M126.53,56.6l0,1.52s1.14-1,1.15-1c.22-.22,1-.78,1-1.16l.18-1.25s-1.21.87-1.22.89S126.53,56.3,126.53,56.6Z"/><path class="cls-3" d="M126.59,57.06l0,1.52c0-.07,1-1.08,1-1.12.23-.3.8-.83.86-1.25l.17-1.3c0,.08-1,1-1.07,1S126.59,56.72,126.59,57.06Z"/><path class="cls-3" d="M125.79,56.81l0,1.56c0,.2.46-.09.45-.21l-.06-1.55C126.22,56.41,125.79,56.69,125.79,56.81Z"/><path class="cls-3" d="M125.86,58.18l0,1.58c0,.09.64-.55.65-.78l.09-1.52C126.57,57.36,125.87,57.94,125.86,58.18Z"/><path class="cls-3" d="M126.41,57.25v1.53a15.11,15.11,0,0,1,1.24-1.4c.27-.34,1-1,1.1-1.53l.19-1.31a13.47,13.47,0,0,1-1.33,1.29C127.4,56,126.41,56.86,126.41,57.25Z"/><path class="cls-3" d="M126.57,56.77l0,1.52c0-.06,1.15-1.13,1.18-1.16.24-.27,1-.87,1-1.29l.18-1.28c0,.08-1.22,1-1.26,1S126.57,56.44,126.57,56.77Z"/><path class="cls-3" d="M126.08,57.7v1.43c0-.1,1.25-1.21,1.32-1.72l.15-1.27C127.53,56.25,126.09,57.15,126.08,57.7Z"/><path class="cls-3" d="M126.05,57.14v1.59c0,.19.5-.19.5-.33V56.82C126.54,56.63,126.05,57,126.05,57.14Z"/><path class="cls-3" d="M126.33,57.68V59.2c0-.14.61-.76.73-.92.28-.41.9-1,1-1.53l.19-1.38a11.54,11.54,0,0,1-1,1.09C127,56.69,126.33,57.32,126.33,57.68Z"/><path class="cls-3" d="M126.45,57v1.52c0-.09,1.2-1.24,1.23-1.28.26-.3,1-1,1.1-1.41l.18-1.29a16.1,16.1,0,0,1-1.32,1.16C127.45,55.89,126.45,56.65,126.45,57Z"/><path class="cls-3" d="M126.45,57.45l0,1.5a7.63,7.63,0,0,1,.65-.78c.24-.35.78-.88.84-1.32l.17-1.27c0-.22-.63.53-.7.61C127.16,56.46,126.45,57,126.45,57.45Z"/><path class="cls-3" d="M126,58.37V60c0,.13.53-.39.54-.57l0-1.63C126.5,57.65,126,58.18,126,58.37Z"/><path class="cls-3" d="M130.35,49.43l0,1.52s1.14-1,1.15-1c.22-.22,1-.78,1-1.16l.17-1.25s-1.2.87-1.22.89S130.36,49.13,130.35,49.43Z"/><path class="cls-3" d="M130.41,49.88l0,1.53c0-.07,1-1.08,1-1.13.23-.29.8-.82.85-1.24l.17-1.31a14.78,14.78,0,0,1-1.07,1C131.17,48.94,130.42,49.55,130.41,49.88Z"/><path class="cls-3" d="M129.62,49.64l0,1.56c0,.2.45-.09.45-.21l-.07-1.55C130,49.24,129.62,49.52,129.62,49.64Z"/><path class="cls-3" d="M129.68,51l0,1.58c0,.09.63-.55.65-.78l.09-1.52C130.39,50.19,129.69,50.77,129.68,51Z"/><path class="cls-3" d="M130.23,50.07v1.54a16.67,16.67,0,0,1,1.24-1.41c.27-.33,1-1,1.1-1.52l.18-1.31a12.45,12.45,0,0,1-1.33,1.29C131.23,48.87,130.24,49.69,130.23,50.07Z"/><path class="cls-3" d="M130.39,49.6v1.52c0-.06,1.15-1.13,1.17-1.16.24-.27,1-.87,1-1.29l.18-1.28c0,.08-1.22,1-1.25,1S130.39,49.27,130.39,49.6Z"/><path class="cls-3" d="M129.91,50.52l0,1.44c0-.1,1.26-1.22,1.32-1.72l.16-1.27C131.35,49.07,129.91,50,129.91,50.52Z"/><path class="cls-3" d="M129.87,50v1.59c0,.19.49-.19.49-.33V49.65C130.36,49.46,129.87,49.84,129.87,50Z"/><path class="cls-3" d="M130.16,50.51l0,1.52c0-.14.62-.76.73-.93a4.77,4.77,0,0,0,1-1.52L132,48.2a11.65,11.65,0,0,1-1,1.09C130.84,49.52,130.16,50.15,130.16,50.51Z"/><path class="cls-3" d="M130.27,49.83v1.53a16.68,16.68,0,0,1,1.24-1.28c.25-.3,1-1,1.09-1.42l.18-1.29a16.1,16.1,0,0,1-1.31,1.17C131.28,48.71,130.27,49.48,130.27,49.83Z"/><path class="cls-3" d="M130.27,50.28v1.5a7.65,7.65,0,0,1,.64-.78c.25-.35.79-.88.84-1.32l.17-1.28c0-.21-.62.54-.69.61C131,49.29,130.28,49.87,130.27,50.28Z"/><path class="cls-3" d="M129.78,51.2l0,1.61c0,.13.54-.39.54-.57l0-1.63C130.33,50.48,129.78,51,129.78,51.2Z"/><path class="cls-3" d="M127.82,45.79c-2.5,2.1.26,5.09,2.86,5,2.37-.06,5.14-3.7,3-5.56-2.62-2.25-6.71,1-5.84,4.06a4.16,4.16,0,0,0,5,2.78,4.43,4.43,0,0,0,.79-2.07c-.89-.51-1.3-1.51-2.39-1.76a1.77,1.77,0,0,0-2.21,1.59c-.17,1.51,1.1,2.21,2.38,2.37,1.12.13,1.72.19,2.06-1a3.07,3.07,0,0,0-.48-2.56,1.44,1.44,0,0,0-2.1-.56c-1.57.91-1,2.89-.53,4.22.09.24,2.45,0,2.61-.06a3.2,3.2,0,0,0,1.79-2.05l0,0c-.74-.86-1-2-1.92-2.79a3,3,0,0,0-2.49-.64,2.65,2.65,0,0,0-1.29,1.91,1.56,1.56,0,0,0,.69,1.68,3.05,3.05,0,0,0,2.64.75c1.15-.19,1.54-.72,2-1.73a3.48,3.48,0,0,0-.53-2.13c-.75-.33-1.61-.86-2.4-.41a3.1,3.1,0,0,0-1.19,2.38C130.58,50.65,133,51,134,50c1.79-1.74-.45-2.82-1.66-3.88-.19-.16-2.17,1.51-2.28,1.66-.75,1-1.71,2.54-.09,3.21.22.09,1.78.56,2,.32a1.31,1.31,0,0,0,.48-2.05c0-.1-2.42.32-2.43.57v.47l.05,0,3.57,1.12c.08,0,.1,0,0-.07l-.8-1.39c-.16-.29-2-.69-2-.7,0,1.41,0,.52,1.41,2.83a.28.28,0,0,0,.18.17l1.92-2.78c.15-.23-1.23-1.67-1.37-1.79-.58-.49-.58-.12-.78.57,0,.17-.51,1.39-.3,1.5a4.24,4.24,0,0,0,2.74.9,8.91,8.91,0,0,0,.25-2.33c-.63-1.63-.24-1-1.28-2.26a8.3,8.3,0,0,0-1.22,1.66,3.47,3.47,0,0,0,.63,2l.61.85a3.11,3.11,0,0,1-.34,2.11c-.47,1.17.43,1.55,1.56,1.63.39,0,.21-2.5.37-2.61-.42.3.07-2.76.14-2.4a3.8,3.8,0,0,0-.72-1.2,5.28,5.28,0,0,1-1-2.08l-1.21,1.73a5.32,5.32,0,0,1,2.2,2.8l.25-2.34a4.09,4.09,0,0,1-2.42-.52l-.48,2a1.59,1.59,0,0,1,2.33-.26l-1.38-1.79-1.57,2.57,1.11,2,.37-2.23-1.93-.64-.11.94,1.79.62c-.85-.51-.91-1.06-.18-1.66l-2.43.57c.47.27.44.64-.07,1.11l2,.31c-2.44-1.25-.83-3.66.39-5l-2.18,1.65,3-1.14-2,.56,2.79,0L132,47l2.55,1.27-2-1.45,1.69,2.28-1.07-1.64.55,2.06L133.48,48l-.15.81.19-.61a1.87,1.87,0,0,1-1.64.36c-.93-.4-.67-.89.78-1.5l-.77-.19,1.72.66-1-.71,1.58,1.52-.83-1.26.9,2-.44-1.85,0,2.87.22-1.71L133,50.74l.91-1.44-1.95,1.64,1.69-1-3.12.79,1.94-.18-3-.72,2.15.81-.36-.92a1.52,1.52,0,0,1,1.4.34.66.66,0,0,0,.88.2,2.68,2.68,0,0,1,1-.08l-.73-.94c-.14,1.69-1.26,2.71-3.34,3.06l2.54-.1-2.86-1.27,1.87,1-1.76-2.39,1.33,2.09-.23-3.7-.64,3,2.8-.06-2.17-1.2.79,2.64.45-2.35-3.3,1,2.56.42c-.74-.81.16-1.75.9-2l-.61-.5.86,2,.13-1.13L132,52.21l1.65-1.72q-6.45-5.62.57-3.56l-2-1.53q1.81,2.68-2.4,4l.31.15c-.35-.51-.58-.9.17-.91C130,48.66,128.13,45.53,127.82,45.79Z"/><path class="cls-3" d="M128.07,46.3c-2.5,1.87.12,4.72,2.51,4.81,2.23.09,5.36-3.29,3.14-5.15-1.85-1.55-5.49-.24-5.76,2.26a4,4,0,0,0,4.89,4.23,4.7,4.7,0,0,0,.11-2.37c-1-.87-2.55-2.77-4-1.09-.65.75-.07,2,.46,2.62a3.76,3.76,0,0,0,3.05,1.14c.44.09.74-.11.9-.62l.19-.82a2.92,2.92,0,0,0-.55-2.39,1.4,1.4,0,0,0-2.16-.05c-1,1-.68,2.4-.36,3.59a6.2,6.2,0,0,0,2.22-.82c.65-1.15,1.07-1.54.81-2.74a3.49,3.49,0,0,0-1.37-2,2.28,2.28,0,0,0-3.21.85,7.16,7.16,0,0,0,0,2.61c0,.3,1,1.16,1.22,1.21a5.78,5.78,0,0,0,1.92.26A10,10,0,0,0,134,51c.79-.68.63-.95.45-1.57-.33-1.16-1.1-2.28-2.42-1.94a2.29,2.29,0,0,0-1.68,2.38c.27,1.56,2.65,2,3.65.94a2.89,2.89,0,0,0,.65-2c-.19-1.17-1.2-1.64-2.15-2-.28-.11-1.46,1.29-1.6,1.44-.4.45-1.09,1.08-1.17,1.75-.14,1.26,1.13,1.36,2,1.69,0,0,.4.18.47.09a1.24,1.24,0,0,0,.44-2.06,4.39,4.39,0,0,0-2.16.21l0,.43,0,.05c1.1.53,2.22,1,3.36,1.45.08,0,.1,0,.07-.06l-.83-1.41c-.16-.27-1.42-.87-1.45-1,.26,1.5.25,1.07,1.11,3.33l0,0L134.77,50c.17-.22-.58-1.78-.84-1.89-.84-.34-1.43,1.54-1.62,1.86a.23.23,0,0,0-.06.22,4.7,4.7,0,0,0,2.7,1.2,6.16,6.16,0,0,0,.35-2.24,5.44,5.44,0,0,0-2.08-2.3c-.1-.08-.75,1.26-.76,1.37a2.27,2.27,0,0,0,0,1.1A21.48,21.48,0,0,1,133.77,52l.53-1.74c-.77,2.06-2.65,4.4.58,4.64a8.86,8.86,0,0,0-.14-2.72c-1,.19,0-2-.11-2.43-.17-1.09-1.22-1.6-1.39-2.81l-.76,1.38A6.31,6.31,0,0,1,135,51.42l.35-2.24a2.66,2.66,0,0,1-1.92-.59l-1.06,1.61a1.7,1.7,0,0,1,2.45-.17l-.84-1.89-2,1.77.73,1.58.53-1.11-1.45-1-.35,1,1.53,1-.2-1.7-2.16.21.07,1.2,1.51.51q-3-1.73.27-4.6l-1.52,1.43,2.15-.95-1.38.54,2.4-.08-1.81-.08,2.18.9-1.87-.91c.62,1,.66.92.14-.29l-1,.2,2,.27-1.05-.26,1.67,1.08-.91-.84,1.09,1.8-.6-1.46L133,51.5l.64-1-1.72,1.21,1.32-.53-2.92.19,1.26.21L129,50.33l1.22,1.15-1.39-2.36.57,1.33-.33-2.58L129,49.46l.83-2.46L129,48.76l2-2-1.41,1.11L132,47l-1.87.32L133.4,49l-.79-.82.86,2-.1-1.49L131.84,52,133,51l-2.44,1.44,2.18-.76-1.05-3.19-.23,2.42-1.52.93,1.33-.89-1.71.21,1.37,0c-1.71-1.14-1-1.09,2,.15l-.57-1.41L132,52.59l1.15-2.15c-3,.38-3.87-.29-2.65-2q.51-2.85,3.83-.85l-2.23-1c.3,2.39-.56,3.15-2.59,2.26,0-.42.17-.56.57-.43C129.82,48.4,128.41,46.05,128.07,46.3Z"/><path class="cls-3" d="M127.46,45a2.64,2.64,0,0,0-.65,3.88,5.63,5.63,0,0,0,1.73,1.74c1.21.81,1.69.74,3.06.21,1.94-.75,4.52-3.28,3.16-5.5-1.21-2-4-2-5.85-.8-1.46,1-2.36,2.23-1.93,4a5.73,5.73,0,0,0,2.43,3.33c.66.45,2.15,1.35,3,.69,1.1-.86-.34-3.59-.84-4.17s-2-1.69-2.91-.85c-2.16,2,1.27,5.76,3.39,5.94,3,.26,3.12-4.85,1.67-6.46a2.28,2.28,0,0,0-3.27-.24c-1.69,1.31-1.43,3.6-1.28,5.47,0,0,.06.19.14.17,1.4-.45,3.55-1.05,4.23-2.58a4.07,4.07,0,0,0-.77-3.92c-1.73-1.68-4.09-.42-4.55,1.69a2.81,2.81,0,0,0,1.17,3,10.14,10.14,0,0,0,1.59.85c1.57.23,4.28-1,3.65-3-.54-1.75-2-2.34-3.49-1.31s-1.4,2.09-.25,3.35c1.31,1.43,2.87,1,4-.56,1.3-1.8-.26-3.49-1.71-4.64,0,0-.09,0-.13,0-1.08,1.42-2.39,3.06-1.7,4.92.43,1.15.89,1.18,2,.75,0,0,.16-.12.15-.18l-.09-1c0-.08-.1-.08-.15,0l-.47.48c-.06.06.06.21.11.24a2.24,2.24,0,0,0,1.58.69c.13,0,.12-.25.06-.3-.9-.74-1.32-1.75-1.78.4-.08.37,0,2.69,0,1.35,0,0,.09.17.14.1l1.94-2.75s.06-.08,0-.09a2.48,2.48,0,0,0-2.75-.07.09.09,0,0,0,0,.15c1.17,1.22.56.78,1.9,1.47.07,0,.17,0,.13-.12-.89-2.29-.32-1.25-1.7-3.19,0-.07-.23-.22-.24,0a1.75,1.75,0,0,0-.06,1.19,6.23,6.23,0,0,1,.55,3.7,2.45,2.45,0,0,0-.34,1.1c.22,1.05,1.28,1.05,2.11,1.05.14,0,.14-.2,0-.2-1.56-.74-2-1.71-1.27-2.89a.18.18,0,0,0,0-.1c0-.29-.24-1.6-.56-1.73q-1.87,1.47-1.11-1.63c.05-1.14.58-1.73,1.59-1.75q3.45-1.35-.64,4.41-7.49-3-1.12-5.38,3.3,4.59-.51,6l3.38-2.14q-9.5,2.72-2.17.43,1.85,5.84-3-4.94a4.7,4.7,0,0,1,5.14,0q-3.33,8.4-6.62,4.31c-1-1.85-.73-3,.69-3.34C128.41,46.15,127.63,44.92,127.46,45Z"/><path class="cls-3" d="M127.24,46.33a3,3,0,0,0-1,3.46,4.31,4.31,0,0,0,5.53,2.48c2.23-.89,5.18-5.08,1.87-6.64a5.43,5.43,0,0,0-4.75.47c-.67.4-2,1.45-2.07,2.33-.42,3,2.64,6.14,5.56,5.46a.09.09,0,0,0,.06-.06,4.27,4.27,0,0,0-1-4.07,2.65,2.65,0,0,0-2.46-1c-1.06.31-1.14,1.65-1,2.64.35,1.78,3.25,4.12,5.1,3.29,1.51-.67,1.75-4.37,1.29-5.42a2.51,2.51,0,0,0-3.94-1.06c-1.85,1.37-1.43,3.55-1.18,5.54,0,.05.05.07.1.06,2.5-.75,5.45-2.27,4-5.36-.51-1.11-2.13-2.43-3.47-1.74a3.72,3.72,0,0,0-1.73,3.84A15.67,15.67,0,0,0,129.34,52c.28.24,0,.05.85.45a2.19,2.19,0,0,0,2.32.28c1.74-.58,3.06-2.16,1.54-3.92a1.89,1.89,0,0,0-2.31-.62,3.18,3.18,0,0,0-2,1.84c-.12.77,1,2.13,1.56,2.45a2.06,2.06,0,0,0,2.63-.19c1-.72,1.7-1.73,1.3-2.9a6.68,6.68,0,0,0-2.19-2.92h0c-1.39,1.91-3,4.45-.7,6.3a.26.26,0,0,0,.15,0l1-.51a.09.09,0,0,0,.06-.09l-.12-1s-.11-.07-.14,0l-.44.35s-.08.11,0,.16c.8.85.36.54,1.51,1,.2.08.18-.42.09-.49l-1-.71a.14.14,0,0,0-.17,0c-.8,1.63-.64.8-.52,2.6,0,.07.13.1.16,0l2-2.79s0-.13,0-.14c-1.17-.49-1.7-.63-2.79,0-.05,0-.08.09,0,.14,1.14,1.26.52.79,2,1.54a.09.09,0,0,0,.12-.12c-1-2.56-.32-1.45-1.88-3.49,0,0-.09,0-.09,0-.18,1.36-.28,1,.22,2.23l.45,1a4.56,4.56,0,0,1-.37,2.26c0,.79-.65.21.11,1.16.53.67,1.2.51,1.94.51.13,0,.08-.56-.09-.56l-1.54-1.66.25-.73c0-.08,0-.15,0-.23a2.61,2.61,0,0,0-.08-.57,1.73,1.73,0,0,0-.28-.88c-.56-1-.07-.75,1.45.75l0-.5c.56-2.6.24-2.94-.94-1-1.64,1.72-1.34,1.68.9-.1-.61,3.7-1.86,4.56-3.78,2.58a3.54,3.54,0,0,1-2.34-2.36l3.86.09q5.1-5.81,1.12-.18l-4.5.76q-2.92-1.5-1.07-5.26C127.7,46.5,127.35,46.23,127.24,46.33Z"/><path class="cls-3" d="M128,46.5a2.45,2.45,0,0,0-.88,2.85c.34,1.06,2.46,1.94,3.43,2,2.33,0,5.28-3.61,3-5.44-2-1.61-5.6.15-5.82,2.67a4,4,0,0,0,5.05,4.05,6.61,6.61,0,0,0,.68-2.87l-.56-.38.15,1.6c0-2,.17-3.68-2.66-2.69-.86.3-1.3.58-1.23,1.61a3.43,3.43,0,0,0,1.46,2.65c.85.53,2.16.66,2.63-.33a3.2,3.2,0,0,0-.12-2.62,1.88,1.88,0,0,0-1.91-1.08c-2,.49-1.28,3.19-.86,4.41a6.75,6.75,0,0,0,2.87-.37,5.12,5.12,0,0,0,1.47-3c.12-1.12-1.19-2-2.2-2.34-1.58-.59-3,.94-3.1,2.45-.11,1.23,1.17,1.78,2.24,1.87a2.51,2.51,0,0,0,2.54-1.71,5.55,5.55,0,0,0-1.28-2.52c-.65-.07-2.92-.76-3.51.33-.33.61.08,1.32.33,1.86.65,1.36,1.65,2.13,3.26,1.35a2.25,2.25,0,0,0,1.42-1.87c-.06-1.1-1.35-1.69-2.17-2-.22-.09-1,.68-1.13.76-.45.35-2.66,1.54-2,2.55.49.71,2,1.18,2.73,1.48H132a1.56,1.56,0,0,0,.52-2.16c-.09-.43-2.54-.38-2.55-.51,0,.15.12.32.14.43a13.47,13.47,0,0,0,1.34.94,6.08,6.08,0,0,0,2.43,1.35.42.42,0,0,0-.1-.3L133,50.17a8.38,8.38,0,0,0-1-1.37s-.38-.48-.32-.24q.5,2,1.05,4l0,.07,1.93-2.55a4.65,4.65,0,0,0-.58-2.54c-.76-.31-2.15,2.91-1.86,2.43a.35.35,0,0,0-.1.27,5,5,0,0,0,2.7,1.27,8.39,8.39,0,0,0,.69-2.74,5.15,5.15,0,0,0-1.85-2.32,8.85,8.85,0,0,0-1.28,1.85,2.3,2.3,0,0,0,.54,2.07,3.18,3.18,0,0,1,.79,1.77l.07-.32a8.73,8.73,0,0,0-.91,2c0,1,1.19,1.11,1.89,1.16.35,0,.07-3.24.21-3.31-.68.37.15-2,.12-2.24a3.09,3.09,0,0,0-.59-1.1,4.1,4.1,0,0,1-.84-1.93l-1.28,1.93a6.16,6.16,0,0,1,2.44,3.13l.69-2.74a2.53,2.53,0,0,1-1.82-.74l-1.57,2.21a1.78,1.78,0,0,1,2.54-.16l-.58-2.54q-.7,3.52-2.2,1.6l.61,2.35.54-1.09-1.31-1.69,1.57,2.39-1.07-1.83-1.24.15,1.72,1.85-.28-1.77c-.09-.54-2.3-.24-2.55-.51.24.94,0,1.36-.61,1.25l1.71.93c-1-1.73-.25-2.74,1-4.06l-1.87,1.42,2.8-1.1-2,.6,3.34.88L132,47.71c.44.66-.14.7-.69.79a2.1,2.1,0,0,1-1.89-.29l.59,1.43c.07-1.33.88-2,2.43-2.09l-1.65-.39,2.59.81-1.62-.88L134,48.76l-1.57-1.64L134,49.55l-1.08-2.2.66,3.17-.26-2.21-.55,2.76.59-2.1-1.58,2.25,1.53-1.9L130.54,51l2-.91-2.89.08,2.53.17-.28-.45c0-.35.16-.51.47-.48a5.15,5.15,0,0,1,1.75-.79l-1.22-1.17a2.19,2.19,0,0,1,.78,2.53,3.34,3.34,0,0,1-1.85,2.49l1.5-.58-2.89,1,2.72-.34-3-1,1.9.84-1.83-2.2,1.18,2,1.37.71a.47.47,0,0,0,0-.33c-.71-2.38-1.24-2.46-.5-4.09l-1.9-.07a1.81,1.81,0,0,1,2.05,1.15,3,3,0,0,1,.55,1.81l0-1.92-.94,3.31,1.66-2.51-1.18.66c-1.1.61-1.73.19-1.9-1.25-.83-.6-1-1.23-.65-1.89q.75-2.33,4.32-.19L132,45.85c.42.91.94,1.69.25,2.6a2.26,2.26,0,0,1-2.34,1l.32.1c-.36-.49-.57-.85.18-.82C130.06,48.72,128.38,46.19,128,46.5Z"/><path class="cls-3" d="M127.94,46a2.55,2.55,0,0,0-.81,3c.41,1.22,2.36,1.87,3.53,2,2.6.19,5.16-4.14,2.62-5.74s-5.67,1-5.45,3.59a4.06,4.06,0,0,0,5.09,3.42,5.27,5.27,0,0,0,.85-2.39c-.21-.14-.5-.74-.77-1a3,3,0,0,0-2-.66,1.51,1.51,0,0,0-1.72,1.6,2.43,2.43,0,0,0,1.52,2.4c.84.37,2.22.47,2.67-.47a3.22,3.22,0,0,0-.18-2.66,2,2,0,0,0-2-1.13c-2,.51-1.31,3.33-.86,4.57.09.25,2.54.12,2.71,0a3.31,3.31,0,0,0,1.83-2.1l0,0c-1-1.07-1.22-2.41-2.6-3.13-.93-.49-2.19-.65-2.83.45-1.35,2.36.41,2.63,2.32,3.59.32.16,1.87-1.06,2.06-1.25l.59-.6A4.2,4.2,0,0,0,134,47.1c-.6-.36-1.54-1.16-2.33-.8-.53.25.12-.61-.56.66s-1.24,2.43.39,3.24a2.31,2.31,0,0,0,2.12.15c.55-.25,1.34-1.19,1.1-1.89s-2.22-2-2.39-2.15-2.27,1.26-2.41,1.41c-.56.62-1.47,1.45-.86,2.32.44.62,1.72.91,2.22,1.12-.08,0,.57.29.64.2a1.51,1.51,0,0,0,.6-2.12c0-.24-2.62-.1-2.62,0v.39l0,.05c1.71.85,2.25,1.14,3.72,1.76q.12.07.06-.06L133,50c-.22-.39-1.75-1-1.81-1.29.29,1.43.44,1.37,1.32,3.36a.38.38,0,0,0,.15.25l2-2.65c.17-.24-.88-2.06-1-2.19-.32-.4-.52-.28-.62.37-.11.22-1,1.94-.85,2.05a4.81,4.81,0,0,0,2.77,1,7.81,7.81,0,0,0,.41-2.59,3.91,3.91,0,0,0-1.38-2.16,6.8,6.8,0,0,0-1.36,1.83,3.3,3.3,0,0,0,.61,2l.59.87a3,3,0,0,1-.37,2.08c-.49,1.17.45,1.55,1.57,1.64.38,0,.16-2.77.33-2.91-.34.27.23-2.34.24-2.32a5.15,5.15,0,0,0-1-1.5,2.47,2.47,0,0,1-.66-1.65l-1.36,1.83A5.7,5.7,0,0,1,134.85,51l.41-2.59a3.39,3.39,0,0,1-2.15-.71l-1,2.21c.93-.76,1.36-.67,2.46-.19l-1.11-2.23-1.55,2.37.72,2.43.34-2.17-1.81-1.29-.36.9,1.9,1.3-.2-1.76c-.05-.41-2.44.14-2.62,0l-.23,1.09,2.21,1c-1.86-1.76-1.73-3.4.41-4.9L130,47.8l3.19-.93-2.09.37,3.1.27L132,46.93l2.63,1.51-2-1.67,1.7,2.43-1.06-1.85.62,2.55-.35-2.06-.14.81.2-.68c-1.31.22-1.66-.19-2.25-1.29l-.65,1.26,3.56.51-.77-1.55.84,2.35L134,47.17l-.06,3.12.3-1.89-1.17,2.52,1-1.57L132,51.14,133.86,50l-3.29.86,2-.19-3.13-.7,2.2.85-.44-.93a1.78,1.78,0,0,1,1.52.37.7.7,0,0,0,.92.21,2.75,2.75,0,0,1,1-.07l-.83-1.06c-.17,1.71-1.3,2.76-3.37,3.14h2.64l-3-1.37L132,52.19l-1.78-2.49,1.19,2.16-.08-3.79L130.5,51l2.44,1.41-.72-2.7L129.48,51h2.71c-.4-.7,0-1.36.54-1.91l-1.34-.73,1.68,2.83.15-1.6-1.14,2.8,1.75-2c-3.51-.2-4.86-1.15-4-2.84q.73-2.39,4.44-.39L132,45.51q2.1,2.76-2.61,4.25l1.21-.15-1.87-.38,1.54.4c-.35-.47-.61-.88.14-.88C130.11,48.75,128.27,45.77,127.94,46Z"/><path class="cls-3" d="M127.56,46.37a2.44,2.44,0,0,0-.1,4,4.16,4.16,0,0,0,4.1,1.09c1.88-.55,4.08-3.07,2.58-5s-4.76-1.06-6.08.42c-2.48,2.77,1.06,7,4.21,6.28l0,0a3.45,3.45,0,0,0-.52-2.92c-.6-.92-2.08-1.65-3-.64-1.07,1.17.3,2.49,1.22,3.1s1.87,1.68,2.87.83A5.62,5.62,0,0,0,134,49.85a2.7,2.7,0,0,0-1.14-1.6,2,2,0,0,0-2,.14c-1.6.9-1.47,2.74-1.42,4.31,0,0,0,.06.08,0,1.27-.22,2.7-.42,3.32-1.8a3,3,0,0,0-.3-3.28,2.46,2.46,0,0,0-2.18-.83c-.75.1-1.45,1.18-1.61,1.89a2.5,2.5,0,0,0,1.43,2.82c1.15.58,3.25.7,3.75-.84a1.74,1.74,0,0,0-3.06-1.54c-1.21,1.82,1.33,3.44,2.84,2.24s.56-3.31-.74-4.2c0,0-.05,0-.09,0-.73.82-1.57,1.55-1.57,2.74s.37,1.4,1.33,1.89h.05l.84-.77c.12-.11-.13-.52-.18-.61l-.23-.41c-.05-.08-.39-.07-.43,0l-.36.82a.07.07,0,0,0,0,.06,2.82,2.82,0,0,0,1.91,1.38s0-1-.17-1.16l-.73-.57s-.1,0-.11,0c-.56,1.85-.55,1-.18,2.79,0,.21.55-.61.56-.63l1.07-1.87c.05-.09-.11-.46-.22-.47a2.46,2.46,0,0,0-2.25.72s0,.06,0,.09c1.37,1,.67.68,2.31,1.11.14,0,.25-.89.18-1a7.23,7.23,0,0,0-2.47-2.13c-.08,0-.16,0-.16.08a2.69,2.69,0,0,0,.2,1.39,16.08,16.08,0,0,1,1,2.1l.27-1.19a9.76,9.76,0,0,0-1.07,2.55c-.06,1.16,1.18,1.37,2,1.43,0,0,0-1.69-.3-1.75-.62,0-1-.32-1-1.06l-.56,1.37.79-1.43c.09-.16.4-1,.28-1.19a9,9,0,0,1-.57-.72c-.35-.2-.32-.29.08-.27.84-.23,1.28.35,1.31,1.75l.18-1c-1.1.27-1.12.13,0-.42l-.22-.48-1.31,2.84.64-.84.48-.18L134,51.12l-.91-1-.43,0,.74.87-.29-.7-.38,1,.29-.48c.36-1.33.44-1.57.24-.73,0,.45-.18.64-.66.55l-1-.41c.62-1.06,1-1.17,1.09-.32q.93,2.13-3-.42L132,50.77c-.19.75-.55.81-1.07.16q-1.89-.69.66-2.1c2.33-.56,1.91,3.24.14,3.56-1.11.2-.31-.18-1.61-1.12-.18-.13-1-.43-.82-.89l1.13-.53A1.11,1.11,0,0,1,131.4,51c.48.44.52.8.1,1.08l-1.07-.16c-2.18-.77-3-4.12-.61-5.2l1.15-.36q3.41.55,2.46,2.4a2.79,2.79,0,0,1-2.13,1.69,3.1,3.1,0,0,1-2.9-.88c-.53-.69-.93-1.92.33-2.21C128.62,47.35,127.87,46.17,127.56,46.37Z"/><path class="cls-3" d="M127.66,45.43a2.83,2.83,0,0,0-.21,4.54,5.2,5.2,0,0,0,2.67,1.59c2.4.07,6-2.61,5.13-5.34-1.12-3.62-7.39-2-8.19,1.12-.61,2.39,2.31,5.84,4.72,5.74.85,0,.82,0,1.05-.69.48-1.4-.59-3.59-1.92-4.31a2,2,0,0,0-2,0c-2.52,2,2.07,6.59,4.37,5.75,1.05-.38,1.32-2,1.4-2.85.12-1.27.24-2.47-.7-3.46a2.22,2.22,0,0,0-3.27-.3c-1.75,1.29-1.44,3.61-1.3,5.5,0,0,0,.17.11.15,1.46-.44,3.49-1,4.21-2.57a3.9,3.9,0,0,0-.71-3.92c-1.81-1.76-4.1-.41-4.55,1.69a3.3,3.3,0,0,0,4.21,3.64c1.36-.45,2.54-1.27,2.16-2.85-.82-3.41-5.87-1.3-4.21,1.51a2.22,2.22,0,0,0,3.36.93c2.59-1.64,1.35-3.93-.52-5.52a.09.09,0,0,0-.13,0c-1.36,1.69-3.07,4-.88,5.72a.06.06,0,0,0,.07,0l1-.42s.14-.06.13-.11l-.1-1s-.08-.13-.13-.06l-.47.59c0,.06,0,.21.08.25a3.1,3.1,0,0,0,1.65.86c.18.06.21-.28.12-.37l-1-.94s-.13.1-.14.12c-.89,1.45-.67.68-.68,2.4,0,.07.13.11.17,0L135,50.36s.09-.11.05-.13a2.35,2.35,0,0,0-2.66-.06s-.08.08,0,.12c1.15,1.19.55.76,1.93,1.43.09,0,.14-.07.11-.13a6.68,6.68,0,0,0-1.81-3.18c-.05-.06-.18-.09-.19,0-.07,1.29-.18.92.32,2.09a2.6,2.6,0,0,1,.21,2.71,4,4,0,0,0-.35,1c.11,1.14,1.25,1.19,2.11,1.23.18,0,.06-.31-.05-.31-2.9-.08-1.17-2.14-1.15-3a6.21,6.21,0,0,0-.16-.86q0-3,1.32.38l.07-.38q-1.6-6.48-.17-3.72a2.41,2.41,0,0,1,.1,2.74q-4.86,3-5.48-.79-1.65-2.58,2.43-3.35l1.78,1.55q-.8,6.82-3.11,3.66-2.25-1.53.57-3.94,7,5.89.88,4.23-5.39-.15.53-1.16l-1.83,1.94A4.35,4.35,0,0,1,128.66,51q-2.18-2.12.64-5.4l1.45-.58c2.28-.79,3.51.48,3.67,3.81l-6.63,1c-1-1.86-.85-3,.58-3.52C128.46,46.25,127.82,45.32,127.66,45.43Z"/><path class="cls-3" d="M127.9,46.63c-2.55,1.67,0,4.63,2.29,4.86A4.17,4.17,0,0,0,134,49.55c.48-.86.69-2.19-.15-2.89-1.71-1.43-5.53-.8-6,1.7s1.93,5.27,4.59,4.55l0-.07a3,3,0,0,0-1-3.24,2.09,2.09,0,0,0-1.82-.37,1.66,1.66,0,0,0-.78,2.65c.57.84,2.75,1.89,3.74,1.52.76-.28,1-1.72,1-2.35,0-1-.56-2.37-1.78-2.25-1.78.17-1.82,2.65-1.73,3.86h.07c1.63-.42,3.38-1.46,2.78-3.5a2.7,2.7,0,0,0-1.62-1.74,1.87,1.87,0,0,0-2.16,1.72c-.22,1.94,2.65,3.53,4.17,2.18a1.7,1.7,0,0,0-1-2.85,1.67,1.67,0,0,0-1.69,1.63,1.74,1.74,0,0,0,1.45,2,2.07,2.07,0,0,0,2.49-1.57c.35-1.68-.56-2.54-2-3.1a.19.19,0,0,0-.14.12c-.69.78-1.41,1.5-1.32,2.63s.6,1.41,1.54,1.86l0,0,1-1c.15-.15-.54-1.4-.66-1.35l-.53.25c-.12.06-.14.74-.06.83,1.07,1.15.49.74,1.95,1.39-.19-.08,0-1.75-.4-2l-.64-.51c-.08-.07-.1,0-.11.11-.38,2.44-.49,1.55,0,3.47,0,.07,0,.08.08,0l1.63-2.55c.06-.09-.07-1.47-.24-1.47-.86.05-1.67,1.1-2.24,1.64l0,.06a4.24,4.24,0,0,0,2.46,1.34c.09,0,.67-1.66.49-1.86a5.73,5.73,0,0,0-2.47-2c-.15-.08-.55.49-.55.6a1.47,1.47,0,0,0,0,1.09,20.44,20.44,0,0,1,1.2,2.66l.53-1.85c-.74,2-2.71,4.48.66,4.68,0,0,0-2.67-.34-2.68-.47.1-.67-.16-.58-.78l-.88,2a9.44,9.44,0,0,0,1.24-3c.09-1.07-1.07-1.53-1.24-2.67l-.55.59,2.51,3.24.49-1.86c-.74,0-1.54.09-1.35-.79l-.9.77a1.61,1.61,0,0,1,1.76.36l-.23-1.47-1.16,3,.44-.92-.57-.87-.29,1.37,1.28.26-.35-2a1.72,1.72,0,0,1-1.45-.2v.85l.77-.84-.75-.36,1,1.36L133,49.71,132.75,51l.15-.35q.78-4.3-1.53.76l.82-.08-1.43-.67,1.06.64-.35-2.46-.24,1,1.61-.78-1,.32,1,.14-.8-.19c-.26.36-1.87.89-1.35-.19a1,1,0,0,1,.83.54A5.21,5.21,0,0,1,131.4,52l.33-.92-.63.55.46-.31.65-.76-1.69-.63,1.39,1.48,1.4-1.1-1.94,1.14,0,.05.49.43-.31-.42c-.37-.17-.3-.27-.62-.39l-.05,0-2,.65,1.19.07-1.52-1.08.76.68-.53-1.57.22,1.21c1.15-1.85,1.83-1.29,3.19,1.63l-.52-2c-.23.41-1.33.32-1.67.12-.69-.4-.69-1-.62-1.6.11-1,.93-2.73,2.29-1.86.64.42,1.07,1.26.42,1.83s-1.08.22-1.7.25-.85.2-1.29-.32-.59-1.14.35-1.19C129.26,48,128.28,46.38,127.9,46.63Z"/><path class="cls-3" d="M127.91,46.27a2.5,2.5,0,0,0-.84,2.91c.35,1.07,2.49,1.94,3.49,2,2.32,0,5.21-3.64,3-5.48-2-1.66-5.66.14-5.85,2.68a4,4,0,0,0,5.09,4.07,6,6,0,0,0,.8-2.64l-.53-.37.07.53c0-1.15.14-1.1-.68-1.43a4.82,4.82,0,0,0-1.55-.23c-2.49-.09-1.93,3.24-.26,4.12.85.44,2.19.54,2.65-.42a3.19,3.19,0,0,0-.16-2.63,1.93,1.93,0,0,0-1.93-1.11c-2,.51-1.3,3.27-.86,4.5.08.25,2.6,0,2.86-.17a3.53,3.53,0,0,0,1.66-2.67A14.72,14.72,0,0,0,133,47.55a2.46,2.46,0,0,0-3.34.42c-.36.54-.81,1.6-.44,2.19a3.2,3.2,0,0,0,2.51,1.28,2.59,2.59,0,0,0,2.6-1.82,4.84,4.84,0,0,0-.78-2.53c-1-.27-2.44-1.22-3.16-.22a2.44,2.44,0,0,0,.77,3.58c1.2.58,3.73.13,3.39-1.77-.21-1.16-1.37-1.71-2.32-2.11-.38-.16-2,1.23-2.28,1.46-.71.64-1.52,1.35-.75,2.18a8.75,8.75,0,0,0,2.42,1.22.33.33,0,0,0,.27.07,1.54,1.54,0,0,0,.57-2.14c-.06-.34-2.59-.27-2.59-.3a1.26,1.26,0,0,0,.14.45c.45.28.89.56,1.35.83a8,8,0,0,0,2.39,1.22.39.39,0,0,0-.12-.28L133,50.17a20.78,20.78,0,0,0-1.57-1.57c.35,1.29.75,2.55,1.21,3.8l.05.07,2-2.59a4.49,4.49,0,0,0-.76-2.44l-.21-.13-.05.06L132.2,49.8a.37.37,0,0,0-.09.28,5.12,5.12,0,0,0,2.75,1.18,7.64,7.64,0,0,0,.64-2.67,4.14,4.14,0,0,0-1.56-2.18,6.19,6.19,0,0,0-1.46,1.82,2.21,2.21,0,0,0,.57,2,3.19,3.19,0,0,1,.81,1.75l.1-.3a9.23,9.23,0,0,0-1,2c-.05,1,1.2,1.08,1.84,1.12.39,0,.14-3,.31-3.11-.32.25-.22,0-.22-.29,0-.63.56-1.24.49-1.88a3.4,3.4,0,0,0-.61-1.14,4.43,4.43,0,0,1-.87-2l-1.46,1.82a5.91,5.91,0,0,1,2.38,3l.64-2.67a2.85,2.85,0,0,1-1.95-.76L132.18,50a1.75,1.75,0,0,1,2.47-.16l-.76-2.44c-.47,2.35-1.2,2.94-2.19,1.75l.77,2.14.54-1.09-1.48-1.48,1.31,1.75-.77-1.18-1.16.17,1.8,1.62-.24-1.76c-.06-.48-2.36-.09-2.59-.3l-.63,1.07L131,51c-1-1.87-.11-2.93,1.23-4.35L130,48.1l3-1-2.06.44,3.49,1.1-2.15-1.5,1.55,1.93-1.05-1.47.29,1-.13-.67c-1,.59-1.79,0-2.41-.67l-.41,2c.48-2,1.6-2.45,3.34-1.49l-1.21-1.08,1.84,1.9L133.07,47l1.12,2.4-.65-2.2.22,3.22.09-2.08-2.08,3,1.9-1.64L130.51,51l2.08-.48-3.12-.37,2.36.59c-.72-.69-.26-.85.5-.87s1.4.37,2.22.13l-.91-1.52q.42,3.76-3.2,4.24l2.71-.16-3.05-1.23,1.9,1-1.84-2.36L131.39,52l-.14-3.68-.79,2.8,2.35,1.5a.4.4,0,0,0,0-.32c-.32-1.45-1.23-2.68-.09-3.65l-1.39-.27A3.21,3.21,0,0,1,133,51.31l.07-1.87L132,52.51l1.73-2.27c-1.68,1.38-3,.62-4-2.25.43-1.84,1.94-2.07,4.51-.69L132,45.64a1.79,1.79,0,0,1,.32,2.24c0,1.51-1,2-2.9,1.51l.84.2c-.36-.48-.59-.86.15-.84C130.08,48.74,128.29,46,127.91,46.27Z"/><path class="cls-3" d="M128,46.42c-2.52,1.69,0,4.63,2.3,4.88a4.19,4.19,0,0,0,3.8-1.88c.5-.86.73-2.19-.09-2.93-1.68-1.5-5.66-.84-6.14,1.66a3.9,3.9,0,0,0,4.61,4.57l0-.06c.25-1.38-.14-3.22-1.77-3.58-2.05-.45-2.57,1.68-1.4,2.88.61.63,2.44,1.55,3.32,1.28s1.23-2,1.16-2.8-.67-2-1.81-1.95c-1.84.17-1.91,2.7-1.82,4h.06c1.49-.36,3-1.07,3-2.94,0-1.71-2.32-3.3-3.55-1.62-1.4,1.93.9,4,2.82,3.63,1.75-.3,2-2.93.1-3.2s-2.33,2.49-.83,3.25a2,2,0,0,0,2.45-.35c1.41-1.54.07-3.37-1.4-4l-.06,0a4.35,4.35,0,0,0-1.42,2.3c-.14,1.22.53,1.77,1.56,2.24h.06l.94-.95c.07-.08,0-.29-.06-.33l-.34-.8c0-.08-.62-.28-.65-.14.14-.61-.29.82-.2,1,.33.76,1.25,1.08,1.91,1.37-.12,0-.06-1.53-.31-1.72l-.73-.59c-.07-.05-.1,0-.11.09-.41,2.26-.49,1.38-.05,3.23,0,.14.13,0,.16-.08L135,50.48c.06-.09-.13-1.2-.3-1.19a4,4,0,0,0-2.16,1.39l0,.06A4,4,0,0,0,135,52c.1,0,.55-1.41.38-1.58a5.73,5.73,0,0,0-2.57-2c-.09-.05-.36.23-.37.32a3.65,3.65,0,0,0,.21,1.53,2.64,2.64,0,0,0,.25.47,6.72,6.72,0,0,1,.73,1.67l.4-1.61c-.73,2-2.39,4.18.79,4.41,0,0-.08-2.3-.41-2.33-.51.09-.73-.2-.67-.85L133,53.86c.34-.67,1.23-2.06,1.16-3s-1.14-1.33-1.31-2.35l-.41.29L134.92,52l.41-1.53L134,49.69l-.79.51,1.71.3-.25-1.16-1.22,3.25.55-1.14-.51-.83-.23.88,1.23.45-.31-1.73a1.53,1.53,0,0,1-1.35-.1l-.07.49.69-.81-.62-.17.93,1.14-.43-1-.43,1.68.35-.78c-.48-1.86-.54-2.49-.2-1.91.51.81,0,1.61-1.51,2.39l.77-.06-1.13-.6.84.52-.37-2.17-.15.87c.19-.11.52-.11.67-.24l-.56.19c-.48.13-.68,0-.59-.43-.17-.59.26-.21.44,0,.33.05.4.17.21.35s-.07.48.56.54l0-.06c.25.36-1.28,1.66-.55,1.34l-.06,0a4.48,4.48,0,0,1-.64-.51l0,0-1.79.51,1.12.12-1.44-1.07.75.74L129,49.74l.27,1.29c1.75-1.38,2.76-.88,3,1.52l-.58-1.7c-.36.4-1.39.23-1.76,0a1.65,1.65,0,0,1-.66-1.74c.25-2,1.84-2.35,3.44-1.32l.05,0s-.12-.15-.06.06a1.5,1.5,0,0,1-1.3,1.81,4,4,0,0,1-2.23-.3c-.45-.41-.77-1.44.25-1.51C129.26,47.83,128.3,46.19,128,46.42Z"/><path class="cls-3" d="M127.53,46.49a2.9,2.9,0,0,0-1.13,3.4,5.34,5.34,0,0,0,3.73,2.86c3.25.29,7.28-4.86,3.66-7-2.1-1.24-6.17.41-6.8,2.74-.8,2.91,2.78,6.2,5.49,5.59,0,0,.09,0,.1-.07.37-1.21.46-1.26-.25-2.71-.55-1.12-1.41-2.52-2.85-2.56-1,0-1.25.34-1.44,1.41a3.25,3.25,0,0,0,.85,2.73,5.12,5.12,0,0,0,3.4,2c1.09.09,1.63-.62,1.93-1.59s.78-3,.31-3.92-1.6-1.9-2.65-1.71a4.56,4.56,0,0,0-2.39,1.74c-.61,1.34-.27,3-.09,4.38,0,0,0,.1.06.09a9.48,9.48,0,0,0,2.5-1,4.65,4.65,0,0,0,1.77-1.64,4,4,0,0,0-.93-3.8,2.44,2.44,0,0,0-3.83.3,3,3,0,0,0,.51,4.33,3.5,3.5,0,0,0,4.47.12,2.31,2.31,0,0,0-.22-3.74,2.69,2.69,0,0,0-3.13.54c-.91.87-.88,1.52-.18,2.55a13,13,0,0,0,1.07,1c1.06.73,1.1.53,1.93.13a4,4,0,0,0,1.67-1.43c1.25-1.83-.59-3.61-2-4.75h0c-1.41,2-2.92,4.48-.63,6.32,0,0,.12,0,.15,0l1-.54s.06,0,0-.07l-.12-1.07s-.11-.07-.14,0l-.45.33a.15.15,0,0,0,0,.17c.76.87.36.55,1.5,1.07.18.09.15-.35.06-.41l-.95-.74s-.14,0-.15.06c-.81,1.57-.65.76-.51,2.53,0,.06.13.08.16,0l2-2.8s0-.11,0-.12c-1.2-.49-1.72-.64-2.82,0a.1.1,0,0,0,0,.15c1.14,1.26.53.78,2,1.54.07,0,.15-.05.12-.12-1-2.6-.32-1.46-1.94-3.54a0,0,0,0,0,0,0,2.68,2.68,0,0,0,.23,2.29c-.05,1.26-.08,2.52-.08,3.78.39,1.12,1.08,1.14,2.23,1.15.13,0,.07-.55-.1-.55l-1.56-1.62a7,7,0,0,0,.27-.77,1.64,1.64,0,0,0,0-.22c.1-1.88-3.11-5,1.07-.73l.09-.38q1.22-7.75-2.1-2.77-4.49,4,2.17.41a6,6,0,0,1-2.77,2.89q-3.23,2.16,2-4.21l-1.51,6.07a4,4,0,0,1-3.18-1.95l6-4.27L127.51,51l.23-4.29C127.88,46.63,127.62,46.42,127.53,46.49Z"/><path class="cls-3" d="M132.9,47.34a2.29,2.29,0,0,0-3.76.75A3.38,3.38,0,0,0,129,51a5.11,5.11,0,0,0,1.09.93c.29.23,1.76-.18,2-.3,1.45-.67,4.48-1.52,3.76-3.78a4.15,4.15,0,0,0-4.42-2.74A3,3,0,0,0,128.91,49c.51,1.79,3,3.09,4.72,2.16a1.48,1.48,0,0,0,.7-2.29c-.68-1.3-3.17-2.2-4.59-1.82-1.64.44-1.84,2.56-1.12,3.87.81,1.48,2.16,1.72,3.69,1.7.44,0,1.46-1.56,1.63-1.87.64-1.15-.85-2.41-1.69-2.84-1.67-.87-2.86.09-3.86,1.39a7.5,7.5,0,0,0,.67,2.72,2.84,2.84,0,0,0,1.48-.59c.47-.27.34-2.39.6-2.47a4.21,4.21,0,0,1-2.75.34l.7,2.64.16-3.42L129,50.67l1.28-2.79-1.07,1.88,2.22-1.95-1.94,1.47,4.06,0L132,48.88l1.92,1.46L132.66,49l1.15,2.62-.28-2.14L133.16,52l.6-1.85-1.44,2.37,1.56-1.85c-1.12,1.12-2.07,1.2-2.85.26q-2.34-1.32,1.64-3.2L131.18,49l2.7-.46-2,0,2.68,1.62L133,48.25l.13,3,.44-2.39c-2.28.67-3,.54-2.25-.41,0-.37.12-.56.47-.57a.56.56,0,0,0,.82.14q.33,1.72,2.94.93l-2.36-.8-.4,3.51L134,49.91l-2.36,2,1.42-1-2.77.89,1.87-.25-3.33-1.91,2,1.92-.66-1.5.27.77c.21-.79.42-.84.65-.13C131.07,50.23,133.34,47.75,132.9,47.34Z"/><path class="cls-3" d="M133,47.84c-2.37-2.21-5.54,1.92-3.35,3.88a2.33,2.33,0,0,0,2.42.37,5,5,0,0,0,2.22-1,1.91,1.91,0,0,0,1.4-.94c1.92-2.75-2.79-5.72-5.22-4.25-2.64,1.59-1.5,5.33,1.36,5.84.83.15,2.48.06,2.77-1s-.93-2.23-1.66-2.62-2.49-.92-3.31-.52c-1.09.53-1.25,1.94-1.07,3,.35,2.06,3.95,3.5,5.24,1.44.82-1.32-.25-3-1.4-3.54-1.6-.79-2.66,0-3.65,1.23a4.43,4.43,0,0,0,1,2,2.41,2.41,0,0,0,1.38-.56c.36-.22.16-1.91.28-2a4.38,4.38,0,0,1-2.66.49l1,1.95.54-2.48-.42.87a3,3,0,0,1,2.85-.33l-1-.19,2,2.45-1-2.18-.49,3.07,1-2.28q-3.42,1.39-2.7-.54,1.59-1.72,4.05.66l-1.9-1.59-.68.67a5,5,0,0,0-.62-.76c-.44-.21-.5-.41-.19-.61a2.09,2.09,0,0,0,.46-.6c.41-.2.72.06,1.08.23a.65.65,0,0,1,.69.63c.33.49.08.73-.74.7h-.08l-1.1,2.68.74-1.36L130.24,52l1.33-.72-2.38-1.17,1.61,1.21c-.6-1.5.36-1.76.47-.89C131.23,50.11,133.34,48.17,133,47.84Z"/><path class="cls-3" d="M133.11,46.55c-1.55-1.67-3.73-.38-4.63,1.33a2.83,2.83,0,0,0-.57,2.43c.36,1.06,2,1.62,2.89,1.82a6.87,6.87,0,0,0,1.73.24l2.39-1.3A3.56,3.56,0,0,0,136,50.2a3.35,3.35,0,0,0,.71-1.29c.56-2.2-1.28-4-3.06-4.78a4.38,4.38,0,0,0-4,.16,3.94,3.94,0,0,0-1.77,4.41,4.62,4.62,0,0,0,5.84,3.11c3.58-1.21-.13-5.49-2.26-6.13-4.09-1.23-5.09,3.59-2.84,6.06a3.6,3.6,0,0,0,4.21,1.17,3,3,0,0,0,1.45-3.73c-.21-.73-1.06-2.32-1.93-2.56-1.74-.5-3.1.45-4.29,1.54-.07.06,0,.26.12.26a5.19,5.19,0,0,0,2.41-.24c.12,0,.34-.32.16-.28q-4.45.52,2.77,4.28c-2.1,1.28-3.78.89-5-1.15q4.14-7.29,6.47-1.3-1.94,2.9-4.2,1.71c-1.77-.47-2.63-1.9-2.57-4.31q11.77-4.73,1.1.7c1.24-.6,2.3-1.35,3.18.07C132.41,47.82,133.35,46.81,133.11,46.55Z"/><path class="cls-3" d="M133.21,47.79c-3.14-2.48-7.75,2.89-4.12,5.17a6.28,6.28,0,0,0,3.54.65c1-.19,3.86-1.89,4.12-3.29.8-4.31-5.59-7.2-8.3-3.65a4.55,4.55,0,0,0-.57,3.35,4.15,4.15,0,0,0,3.57,3.26c1.2.25,3.1.21,3.62-1.24s-.79-2.88-1.78-3.83c-1.34-1.28-2.65-1.94-4.41-1a2.79,2.79,0,0,0-1.49,2.29c-.5,3.16,3.59,6.83,6.28,4.06,1.24-1.28.73-3.37-.2-4.65-1.6-2.19-3.86-.82-5.43.64,0,0-.14.13,0,.14a5.32,5.32,0,0,0,2.74-.22c.11,0,.09-.22,0-.19l-1.25.28q7.22-1.32,1.1.45-5.93,1.69.68.49,5.94.69,1.76-2.44C133.11,48.17,133.33,47.88,133.21,47.79Z"/><path class="cls-3" d="M132.77,48.11c-2.19-2-4.8,1.12-3.78,3.47.62,1.44,2.69,1,3.76.6a26.12,26.12,0,0,1,2.53-1.65l.57-.9c.35-1.32-.82-2.6-1.79-3.3a3.74,3.74,0,0,0-3.81-.13c-1.56.75-1.7,2.54-1,3.92a3.3,3.3,0,0,0,3.26,1.82c1,0,2.25-.39,2.08-1.65-.12-.92-1-1.17-1.72-1.62-1-.62-2-1.39-3.21-1a2.29,2.29,0,0,0-1.48,2.59,2.87,2.87,0,0,0,2.2,2.62,3.18,3.18,0,0,0,3.49-.72c.29-.24-.19-2.57-.44-2.86-.87-1-.39-.62-1.84-1.32a5.13,5.13,0,0,0-2.36.81l-1,1a7.57,7.57,0,0,0-.09,2.43,2.4,2.4,0,0,0,1.41-.41c.33-.16.59-.79.75-1.06,0,0,.6-1.15.59-1.15a4.25,4.25,0,0,1-2.66.19l0,2.37L129,49l-.72,1.75,1.81-2.44-1.39,1.31,2.78-1.53-2.28.83,3.36-.2-1.93-.05,2.83,1-1.7-.9,2.07,2L132.52,49l1.25,3.15-.41-2.71L132.24,53l1.59-2.54a4,4,0,0,1-2.26,1.07c-1.57-.29-2.29-1.3-2.15-3l.41,2,2.83-2.39-1.79,1L134,49l-2.3-.42,1.4,3.23.3-2.93c-.56,1-1.1,1.1-1.6.42-.58-.23-.63-.57-.16-1l.33.22c.38-.27.6-.19.67.23h.09l1.07-.05-.74,0a3.14,3.14,0,0,0-.32,3.45l.81-2.46-2,2.65,1.27-1.44-2.57,1.43,1.85-.63-3.19-1.38,2,1.61-.44-1.53-.06.32c.4-.33.59-.41.63.16C131,50.48,133.13,48.44,132.77,48.11Z"/><path class="cls-3" d="M132.92,47.59a2.28,2.28,0,0,0-3.72.74,3.41,3.41,0,0,0-.19,2.89,4.7,4.7,0,0,0,1.08.9c.29.24,1.79-.22,2.07-.35C134,51,137,50,135.58,47.46c-1-1.74-3.43-2.93-5.32-1.7a3.17,3.17,0,0,0-.67,4.64,3.72,3.72,0,0,0,3,1.13,2.21,2.21,0,0,0,2.11-1.18c.17-.23-1.27-1.88-1.38-2a1.3,1.3,0,0,0-1.35-.86,10.93,10.93,0,0,0-1.81-.35,2,2,0,0,0-1.82,1.6,3,3,0,0,0,.54,2.9,4.39,4.39,0,0,0,3.47,1.15,5.46,5.46,0,0,0,1.79-2.2c-.32-1.28-1-2.76-2.54-2.93s-2.43.67-3.29,1.83a8.53,8.53,0,0,0,.22,2.73,2.79,2.79,0,0,0,1.47-.53c.3-.16.5-1,.6-1.2,0,0,.46-1.28.43-1.27a4.24,4.24,0,0,1-2.72.27l.26,2.65.58-3.47-.57,2L130.24,48l-1.33,1.64,2.52-1.76-2.15,1.09,3.08-.48-1.57.16,2.83.71-1.62-.7,2.13,1.94-1.32-1.8,1.09,3-.21-2.44-.44,2.82.69-2.09-1.55,2.63,1.68-2.08c-3.1,1.31-4.62.5-4.56-2.46l.48,2.18,2.67-2.46-1.65,1,3.12-.29-2.24-.25,2.48,1-1.78-1.16.65,3.23.44-2.56c-.32.82-.81.92-1.46.29-1-.07-1.15-.42-.54-1l.34.21a16.67,16.67,0,0,1,3.62.76l-2.46-1-.29,3.73,1.18-2L131.65,52,133.11,51l-2.81,1,1.91-.28-3.35-1.84,2,1.94-1-2.17.53,1.32,0-.71-.06.37c.41-.33.58-.35.61.2C131,50.39,133.33,48,132.92,47.59Z"/><path class="cls-3" d="M133,47.87c-2.41-2.66-6.51,2.64-3.65,4.54,1.88,1.26,6.21.1,7-2.08,1-2.77-2.36-5.37-4.82-5.1a3.46,3.46,0,0,0-3,4.92,4.14,4.14,0,0,0,4.27,2.52c1.72-.18,2.12-1.38,1.43-2.82A4.8,4.8,0,0,0,130.59,47a2.47,2.47,0,0,0-2.84,2.15,3.81,3.81,0,0,0,2.53,4.43,2.57,2.57,0,0,0,3.49-1.72,3.15,3.15,0,0,0-1.53-3.42c-1.47-.7-2.54,0-3.58.89-.14.12.73.31.87.25a8.84,8.84,0,0,0,1.32-.62c.14-.07-.32-.31-.44-.2l-1.67.55.79.27c2.77-.24,3.79.51,3.07,2.23a1.33,1.33,0,0,1-.55.6,2.79,2.79,0,0,1-2.29-.45c-1.08-.8-2-3.88.36-4.35,1.53-.31,3.35,1.53,3.33,3,0,1-1.39,1-2.17.75a3.28,3.28,0,0,1-2.2-2.39q9.67,2.26,2.27,2.93l-1.89-2c-.1-1.2,2.17-2.48,2.78-1C132.23,48.91,133.17,48.1,133,47.87Z"/><path class="cls-3" d="M133.31,47c-1.71-1.82-4.52-.09-5.05,2,0,.07-.21,1.48-.19,1.55l1.21,1.31a11.7,11.7,0,0,0,1.64.66c2,.51,2.3.17,4.2-1.11,1.39-.94,2.1-1.93,1.83-3.65a4.92,4.92,0,0,0-2.11-2.83,4.1,4.1,0,0,0-3.44-.77c-1.65.38-3.16,1.25-3.35,3.12a4.88,4.88,0,0,0,.69,3.35A5.3,5.3,0,0,0,130.91,52c1.37.49,2.93.69,4-.43A2.21,2.21,0,0,0,135.1,49a20,20,0,0,0-1.57-1.75,4.15,4.15,0,0,0-3.13-1.35c-3.36.14-3.36,4.26-1.59,6.21,1.64,1.8,5.27,2.13,5.82-.93.25-1.4-.7-3.62-2.1-4.17-1.63-.64-3.19.59-4.26,1.57-.07.06,0,.19.09.19a4.54,4.54,0,0,0,2.34-.16c.11,0,.43-.32.24-.28-1,.66-1.47.49-1.39-.51l3.86.46q-.57,6.85-3.79,4.15,4.13.24.43-2.65-5-4.45,4.48-4.41,4.46,3.82-.87,2.3-4.66-.19-2.08-.3a1.2,1.2,0,0,1,1,.86S133.52,47.19,133.31,47Z"/><path class="cls-3" d="M132.93,48.21c-2-2-4.4.87-3.83,3.09.7,2.73,6.16.7,7-.91.67-1.28-.71-3-1.59-3.79a4,4,0,0,0-4.07-.52,3.08,3.08,0,0,0-1.75,3.37c.16,1.77,1.89,2.8,3.47,2.95,1.11.1,2.17-.15,2.14-1.44a3.54,3.54,0,0,0-1.95-2.59c-1-.54-2-1-3.05-.35a2.81,2.81,0,0,0-.83,3.31c.66,2.11,4.19,3.37,5.08.81a2.56,2.56,0,0,0-1.08-3c-1.38-.9-2.46-.34-3.47.73,0,0,1.22,1,1.46.86a2.58,2.58,0,0,0,1.14-1c.06-.06-.06-.51-.19-.45l-2.35.6,1.4.88c.05-.77.27-.9.66-.41.59,0,.86.26.82.77-.23.9-1.59.56-2,0s-.09-2.28,1-2.12l.82.79a2.12,2.12,0,0,0,2.32,1.58l-1.68-1.05c-.3,0-.59,0-.89.06a1.36,1.36,0,0,1-1-1.06l-.36-.52c.36-1.52,1.34-1.93,3-1.22,1.61,1.27,1.5,2-.35,2.34a2.32,2.32,0,0,1-2.1.65c-.49-.38.76-2.17,1-.71C131.67,49.68,133.2,48.48,132.93,48.21Z"/><path class="cls-3" d="M132.8,47.87a2,2,0,0,0-3.12.1c-.71.81-1.49,2.47-.66,3.48s1.44.81,2.57.47,2.83-.69,3.73-1.64c1.19-1.23.31-2.69-.69-3.65-2.22-2.09-6.69-.86-5.72,2.72a3.42,3.42,0,0,0,2.94,2.4c.91.11,2.49-.08,2.78-1.2s-.8-1.51-1.55-2c-.93-.57-1.84-1.33-3-1.25a2.24,2.24,0,0,0-2,2.17,3.12,3.12,0,0,0,1.69,3,3.37,3.37,0,0,0,4.09-.55c.28-.24,0-2.45-.27-2.72-.65-.72-1-1.3-2.1-1.49-1.77-.3-2.47.77-3.27,1.85a8.22,8.22,0,0,0,.06,2.61,2.69,2.69,0,0,0,1.47-.46c.3-.15.54-.88.67-1.14,0,0,.52-1.23.5-1.22a4.31,4.31,0,0,1-2.7.21l.1,2.55.73-3.38-.65,1.89,1.74-2.58-1.37,1.45,2.75-1.7-2.31,1,3.4-.31-1.91,0,2.82.89-1.62-.82,2.14,2.1-1.35-1.91,1.12,3.09-.26-2.58-1.27,3.51L134,50.57a4,4,0,0,1-2.3,1q-2.68-.61-2.39-3.7l.57,2.56,2.83-2.51L130.9,49l3.13-.17-2.22-.33,2.64,1.12-2-1.29.65,3.31.43-2.79c-.65,1.08-1.23,1.23-1.75.46-.59-.26-.64-.63-.16-1.09l.33.22c1.19.26,2.38.57,3.56.91l-2.47-1L132.78,52l1-2.25-2.25,2.45,1.39-1.27-2.72,1.25,1.91-.46-3.3-1.6,2,1.78-.42-1.54,0,.35c.27-.41.47-.35.6.19C131,50.45,133.19,48.23,132.8,47.87Z"/><path class="cls-3" d="M133.06,48c-2.17-2.18-5.2,1.52-3.51,3.64,1.18,1.47,4.47.68,5.88-.42,2.78-2.17-1-5.93-3.65-5.67-3.61.35-4,4.88-.88,6.33,1,.46,2.51.83,3.25-.21s-.2-2.49-1.06-3.16c-2.1-1.63-5.21-1.34-4.74,2,.28,2.07,3.74,4.32,5.18,2a3.23,3.23,0,0,0-.43-3.23,2.52,2.52,0,0,0-2.14-.81,2.4,2.4,0,0,0-1.87,1.17s1.15,1,1.38.81a2.35,2.35,0,0,0,1.06-1c.07-.08.09-.51-.1-.43l-2.28.57,1.32.82c.21-1.29,1.81,0,1.54.73s-1.27.59-1.77.12c-.72-.66-.74-2.66.74-2.61.71,0,1.31,1.21,1.37,1.78l.06,0,.66,0-.47-.09a3.39,3.39,0,0,1-.73,0,1.46,1.46,0,0,1-1.19-.75,1.68,1.68,0,0,1-.46-1.71,2,2,0,0,1,1.68-1,2.55,2.55,0,0,1,1.73.66,1.8,1.8,0,0,1,.86,1.43l-3.05,1.58c-1.89.09.09-2.33.32-.89C131.73,49.57,133.34,48.26,133.06,48Z"/><path class="cls-3" d="M133.27,48c-3.11-2.8-7.67,2.87-4,5.1a6.57,6.57,0,0,0,3.52.62c1.05-.2,3.89-1.91,4.15-3.27.82-4.34-5.68-7.32-8.36-3.64a4.59,4.59,0,0,0-.52,3.36,4.24,4.24,0,0,0,3.56,3.23c1.18.25,3.13.19,3.63-1.25s-.85-3-1.84-3.88c-1.38-1.21-2.63-1.87-4.35-.91a3,3,0,0,0-1.08,1c-1.87,3,1.68,7.63,5,6a3,3,0,0,0,1.45-3.79,4.88,4.88,0,0,0-1.88-2.63c-1.65-.66-3.36.86-4.39,1.84,0,0,0,0,0,0a5.2,5.2,0,0,0,2.82-.25c.08,0,.07-.21,0-.19-1.92.42-1.7.43.66,0q4,.24-.06-2.28l3.17-1q-10.65,3.45-1.59,2.07C133.18,48.32,133.38,48.09,133.27,48Z"/><path class="cls-3" d="M130.74,51.64V52l1.2-1c.23-.2,1-.74,1.08-1.1l0-.19s-1.19.87-1.22.89S130.74,51.35,130.74,51.64Z"/><path class="cls-3" d="M130.8,52.09v.34s1-1.06,1.05-1.08c.23-.27.85-.8.91-1.2l0-.21a12.77,12.77,0,0,1-1.07,1C131.57,51.13,130.8,51.77,130.8,52.09Z"/><path class="cls-3" d="M130,51.85v.31c0,.2.45-.09.44-.21l0-.3C130.42,51.45,130,51.73,130,51.85Z"/><path class="cls-3" d="M130.07,53.22v.32c0,.11.69-.51.7-.74v-.3C130.78,52.39,130.08,53,130.07,53.22Z"/><path class="cls-3" d="M130.62,52.28v.33c0-.08,1.28-1.31,1.31-1.35.28-.32,1.08-1,1.16-1.47l0-.21a11.58,11.58,0,0,1-1.33,1.29C131.63,51.06,130.61,51.91,130.62,52.28Z"/><path class="cls-3" d="M130.78,51.81v.33S132,51,132,51c.24-.25,1-.83,1.1-1.24l0-.2a15.66,15.66,0,0,1-1.25,1C131.75,50.78,130.77,51.49,130.78,51.81Z"/><path class="cls-3" d="M130.3,52.73v.33c0-.39,1.39-1.12,1.44-1.66l0-.22C131.75,51.27,130.29,52.2,130.3,52.73Z"/><path class="cls-3" d="M130.26,52.18v.32c0,.18.49-.19.49-.33v-.31C130.75,51.67,130.26,52.05,130.26,52.18Z"/><path class="cls-3" d="M130.55,52.72V53c0-.06,1-1.11,1-1.15.24-.31.79-.85.85-1.27l0-.21a11.65,11.65,0,0,1-1,1.09C131.24,51.72,130.54,52.37,130.55,52.72Z"/><path class="cls-3" d="M130.66,52v.33s1.28-1.21,1.3-1.23c.26-.28,1.08-.91,1.16-1.36l0-.2a13.19,13.19,0,0,1-1.31,1.17C131.68,50.91,130.65,51.7,130.66,52Z"/><path class="cls-3" d="M130.66,52.48v.33c0-.06.6-.62.69-.74.25-.3.87-.84.92-1.25l0-.29c0,.06-.86.88-.89.92S130.66,52.17,130.66,52.48Z"/><path class="cls-3" d="M130.17,53.41v.32c0,.13.55-.4.55-.59v-.32C130.72,52.69,130.17,53.22,130.17,53.41Z"/><polyline class="cls-2" points="118.58 163.5 12.89 163.5 12.89 7.36 181.26 7.36 181.26 130.59"/><line class="cls-2" x1="131.17" y1="163.5" x2="118.58" y2="163.5"/><line class="cls-2" x1="181.25" y1="163.07" x2="131.18" y2="163.93"/><line class="cls-2" x1="181.26" y1="130.59" x2="181.26" y2="163.5"/><path class="cls-1" d="M133.15,76l-.08-1.28,0-.52a12.34,12.34,0,0,1,0-1.36,8.2,8.2,0,0,1,.68-3,7.18,7.18,0,0,1,1.19-1.92,4.81,4.81,0,0,1,1-.87l1.31-.77a9.28,9.28,0,0,0,1.07-.69,3.83,3.83,0,0,0,.74-.71,1.63,1.63,0,0,0,.24-.4.82.82,0,0,0,0-.73,1.54,1.54,0,0,0-.44-.54,4.3,4.3,0,0,0-.74-.45,12.89,12.89,0,0,0-1.45-.58,13.42,13.42,0,0,1-1.74-.75,6.51,6.51,0,0,1-1.15-.79,3.38,3.38,0,0,1-1.07-1.86,7,7,0,0,1-.12-1.58.16.16,0,0,1,.32,0c0,.14,0,.28,0,.42a5.78,5.78,0,0,0,.1,1,3,3,0,0,0,1,1.77,6.55,6.55,0,0,0,1.9,1.13l1.62.61a7.26,7.26,0,0,1,1.22.6,2.49,2.49,0,0,1,.6.47,1.38,1.38,0,0,1,.25,1.5,2.09,2.09,0,0,1-.42.64,5.15,5.15,0,0,1-1,.82l-1.26.72a6.49,6.49,0,0,0-1.79,1.42,7.11,7.11,0,0,0-1.4,2.61,8.47,8.47,0,0,0-.3,1.58,11,11,0,0,0,0,1.72c0,.36,0,.72.06,1.08a13.85,13.85,0,0,1,0,1.58,3.7,3.7,0,0,1-.16.93,1.51,1.51,0,0,1-.68.83,3.09,3.09,0,0,1-1.13.38,8.69,8.69,0,0,1-1.69.06c-.91,0-1.81-.16-2.72-.27a11.18,11.18,0,0,0-1.83-.12,3.74,3.74,0,0,0-1.54.33,2.26,2.26,0,0,0-.71.51,1.61,1.61,0,0,0-.24.34.65.65,0,0,0,.07.74,1.78,1.78,0,0,0,.35.32,2.83,2.83,0,0,0,1.15.5,7.3,7.3,0,0,0,1.81.15,11.84,11.84,0,0,0,4.07-.93c.79-.32,1.57-.67,2.35-1a19.39,19.39,0,0,1,2.44-.92,9.22,9.22,0,0,1,1.8-.34,8.19,8.19,0,0,1,1.4,0,7.08,7.08,0,0,1,2,.47,3.56,3.56,0,0,1,.86.46,3.51,3.51,0,0,1,.41.37,1.18,1.18,0,0,1,.26,1.12A1.6,1.6,0,0,1,140.62,82a3.81,3.81,0,0,1-1,.22,9.74,9.74,0,0,1-2.09-.11c-1.17-.18-2.33-.45-3.48-.73a8.19,8.19,0,0,0-1.4-.24l-.28,0a.15.15,0,0,1-.15-.18.14.14,0,0,1,.14-.15h.34a12.7,12.7,0,0,1,1.94.34c.65.16,1.29.32,2,.46a14.47,14.47,0,0,0,1.73.27,6.51,6.51,0,0,0,1.59,0A1.77,1.77,0,0,0,141,81.4a1.19,1.19,0,0,0,.41-.85,1,1,0,0,0-.3-.74,2,2,0,0,0-.49-.38,5,5,0,0,0-1.35-.51,7,7,0,0,0-1.94-.21,9.51,9.51,0,0,0-2.06.32,19.24,19.24,0,0,0-2.48.89c-.88.38-1.75.75-2.63,1.11a12.1,12.1,0,0,1-2.34.7,8.41,8.41,0,0,1-2,.17,11,11,0,0,1-1.28-.1,3.86,3.86,0,0,1-1.18-.37,2,2,0,0,1-.69-.53,1.15,1.15,0,0,1-.29-.79,1,1,0,0,1,.15-.52,2.26,2.26,0,0,1,1.14-1,4.15,4.15,0,0,1,1.39-.28,13.83,13.83,0,0,1,2.13.12c.63.08,1.26.16,1.89.22a10.85,10.85,0,0,0,1.89,0,3.81,3.81,0,0,0,1.06-.19,1.48,1.48,0,0,0,1.08-1.33C133.11,76.82,133.14,76.42,133.15,76Z"/><path class="cls-1" d="M132.42,57.63a7.36,7.36,0,0,1-.19,1.53,3.27,3.27,0,0,1-1.81,2.19,11.23,11.23,0,0,1-1.37.5c-.61.2-1.23.39-1.83.6a7.27,7.27,0,0,0-.69.32,2.1,2.1,0,0,0-.55.43,1.19,1.19,0,0,0-.31.67,1.05,1.05,0,0,0,.07.43,1.59,1.59,0,0,0,.3.5,6.19,6.19,0,0,0,.9.87,13.46,13.46,0,0,0,3.4,2.07,3.74,3.74,0,0,0,1.27.3,1.12,1.12,0,0,0,.48,0,.56.56,0,0,0,.31-.19,2.54,2.54,0,0,0,.23-.34c.35-.66.7-1.32,1-2a4.81,4.81,0,0,0,.41-1.23,2.24,2.24,0,0,0,0-.93.92.92,0,0,0-.71-.7,2.48,2.48,0,0,0-.94-.06,1.17,1.17,0,0,0-1,.85,1.89,1.89,0,0,0,0,1.08,4.39,4.39,0,0,0,.68,1.37c.11.15.23.29.34.43a.17.17,0,0,1,0,.23.15.15,0,0,1-.24,0l-.12-.14a4.75,4.75,0,0,1-.94-1.65,2.53,2.53,0,0,1-.09-1.31,1.43,1.43,0,0,1,1.24-1.21,2.34,2.34,0,0,1,1.28.12,1.25,1.25,0,0,1,.85,1.08,3.16,3.16,0,0,1-.07,1,8.47,8.47,0,0,1-.55,1.48c-.31.64-.66,1.25-1,1.86a1.28,1.28,0,0,1-1.15.64,3.53,3.53,0,0,1-1.29-.26,12.23,12.23,0,0,1-1.74-.86,13.59,13.59,0,0,1-2.6-1.93,2.85,2.85,0,0,1-.47-.57,1.56,1.56,0,0,1-.25-.78,1.26,1.26,0,0,1,.28-.86,2.77,2.77,0,0,1,.84-.68,8.36,8.36,0,0,1,1.45-.6l1.7-.53a4.79,4.79,0,0,0,.81-.34,3,3,0,0,0,1.52-2,6.32,6.32,0,0,0,.15-1.37c0-.13,0-.26,0-.39a.14.14,0,0,1,.16-.15.14.14,0,0,1,.16.14C132.43,57.33,132.42,57.47,132.42,57.63Z"/></svg>
